<?xml version="1.0" encoding="UTF-8" standalone="no"?>
<!-- Created with Inkscape (http://www.inkscape.org/) -->

<svg
   width="408.99698mm"
   height="790.69867mm"
   viewBox="0 0 408.99698 790.69867"
   version="1.1"
   id="svg1"
   inkscape:version="1.3.2 (091e20ef0f, 2023-11-25)"
   sodipodi:docname="company.svg"
   xmlns:inkscape="http://www.inkscape.org/namespaces/inkscape"
   xmlns:sodipodi="http://sodipodi.sourceforge.net/DTD/sodipodi-0.dtd"
   xmlns="http://www.w3.org/2000/svg"
   xmlns:svg="http://www.w3.org/2000/svg">
  <sodipodi:namedview
     id="namedview1"
     pagecolor="#ffffff"
     bordercolor="#000000"
     borderopacity="0.25"
     inkscape:showpageshadow="2"
     inkscape:pageopacity="0.0"
     inkscape:pagecheckerboard="0"
     inkscape:deskcolor="#d1d1d1"
     inkscape:document-units="mm"
     inkscape:zoom="0.099837962"
     inkscape:cx="-160.25968"
     inkscape:cy="1422.3047"
     inkscape:window-width="1336"
     inkscape:window-height="701"
     inkscape:window-x="15"
     inkscape:window-y="15"
     inkscape:window-maximized="1"
     inkscape:current-layer="layer1" />
  <defs
     id="defs1" />
  <g
     inkscape:label="Layer 1"
     inkscape:groupmode="layer"
     id="layer1"
     transform="translate(23.746633,301.79651)">
    <g
       id="g8882"
       transform="matrix(0.29632283,0,0,0.29632283,-143.5483,-182.98118)"
       style="fill:#1e1e2e;fill-opacity:1"
       inkscape:export-filename="../../WD_S_BahanLomba_ParassICTIX_1/image/icons/samsung.svg"
       inkscape:export-xdpi="96"
       inkscape:export-ydpi="96">
      <path
         id="path10-3"
         style="fill:#1e1e2e;fill-opacity:1"
         d="m 1321.6567,-213.02985 c -75.2714,0.83364 -161.3351,8.8055 -251.836,24.57617 -120.39122,20.96601 -228.71283,52.2595 -311.45699,87.35742 4.39395,-1.03503 9.22042,-1.52344 14.32227,-1.52344 14.6441,0 34.85742,3.516127 34.85742,26.037113 v 7.261718 h -25.7832 v -6.382812 c 0,-5.646728 -3.57109,-9.382813 -9.61328,-9.382813 -6.4707,0 -8.73318,3.635885 -9.44727,6.931641 -0.24169,1.175487 -0.38499,3.372894 0.10938,5.449219 2.92219,12.106402 42.16398,18.566864 46.52539,40.208984 0.42845,2.208149 1.36177,8.052883 0.10937,16.984374 -2.44986,17.2258084 -17.85288,23.6191407 -36.55078,23.6191407 -19.44494,0 -37.59375,-6.9536494 -37.59375,-30.0019527 l 0.0234,-8.009766 h 27.72851 v 10.009766 c 0,5.67968 3.93237,9.392578 10.41407,9.392578 6.87711,0 9.20639,-3.504794 10.07421,-6.943359 0.47239,-1.944494 0.78018,-5.1632 -0.23046,-7.667969 -5.31718,-13.380762 -42.04338,-19.501172 -46.5586,-40.626953 -1.0876,-5.185313 -0.97751,-9.325639 -0.23047,-13.972656 1.12509,-6.894515 4.3132,-11.983295 8.94727,-15.589843 -98.83127,43.888594 -157.77088,93.0159694 -150.43555,135.160154 13.60051,78.098366 248.22951,102.476646 524.02936,54.435547 122.9968,-21.422044 233.2173,-53.644159 316.5996,-89.6699212 -4.2302,0.9779982 -8.8005,1.4296875 -13.5098,1.4296875 -18.3575,0 -34.6498,-6.71172485 -36.3965,-25.5195313 -0.2967,-3.449559 -0.34,-4.877034 -0.373,-6.810546 l 0.022,-43.539063 c 0,-1.834639 0.2319,-5.085766 0.4297,-6.810546 2.296,-19.324142 17.9609,-25.542971 36.3183,-25.542971 18.3356,0 34.3866,6.185871 36.2871,25.542971 0.3406,3.295757 0.2305,6.810546 0.2305,6.810546 v 3.451172 h -26.0703 v -5.791015 c 0.022,0.01099 -0.032,-2.459532 -0.3399,-3.931641 -0.4394,-2.285062 -2.4278,-7.537109 -10.3047,-7.537109 -7.5358,0 -9.7456,4.966418 -10.2949,7.537109 -0.3186,1.36225 -0.4394,3.207102 -0.4394,4.876953 v 47.283203 c -0.022,1.30732 0.055,2.747119 0.2636,3.933594 0.4504,2.768437 3.0558,7.492187 10.5372,7.492187 7.4919,0 10.1064,-4.734736 10.5898,-7.492187 0.1868,-1.186475 0.2415,-2.626274 0.2305,-3.933594 V -38.93415 h -10.6133 v -15.095703 h 36.6601 V -26.2779 c -0.022,1.933512 -0.065,3.360987 -0.373,6.810546 -0.7418,8.089099 -4.1877,13.9359696 -9.3262,17.9785157 95.2997,-43.2317447 151.8155,-91.2558097 144.6074,-132.5625017 -8.486,-48.8046 -103.3041,-76.6295 -240.5585,-78.90039 -10.2942,-0.17031 -20.827,-0.19721 -31.5801,-0.0781 z m -212.6934,110.98047 c 14.5014,0 34.5508,3.494049 34.5508,25.773433 v 7.185547 h -25.5859 v -6.318359 c 0,-5.602805 -3.4932,-9.25 -9.4805,-9.25 -6.4048,0 -8.6234,3.549451 -9.3594,6.867187 -0.2526,1.109575 -0.3967,3.284263 0.098,5.34961 2.8893,11.985605 41.737,18.379761 46.0761,39.824218 0.4506,2.16422 1.3403,7.93126 0.088,16.796875 -2.4059,17.0720708 -17.6657,23.3789056 -36.166,23.3789056 -19.2474,0 -37.2304,-6.88933993 -37.2304,-29.7070306 l 0.031,-7.898438 h 27.4434 l 0.021,9.919922 c 0,5.547875 3.9012,9.261719 10.295,9.261719 6.8333,0 9.1403,-3.449357 9.9863,-6.876953 0.4614,-1.944502 0.7911,-5.075782 -0.2305,-7.558594 v 0 c -5.2622,-13.248983 -41.6249,-19.324321 -46.0742,-40.230468 -1.0656,-5.163368 -0.9893,-9.227476 -0.2422,-13.808594 2.6915,-16.709536 17.5995,-22.70898 35.7812,-22.70898 z m 61.0488,2.669918 h 26.125 v 76.505858 c 0,1.340281 0.044,2.845504 0.2422,3.955078 0.5603,2.537744 2.7361,7.503907 9.9649,7.503907 7.1738,0 9.4138,-4.966163 9.9082,-7.503907 0.2087,-1.12056 0.2641,-2.614797 0.2422,-3.955078 v -76.505858 h 26.1465 v 74.166015 c 0.055,1.90056 -0.1329,5.811317 -0.2208,6.789062 -1.8344,19.30222648 -17.0934,25.5644529 -36.0878,25.5644529 -19.0167,0 -34.287,-6.26222642 -36.0997,-25.5644529 -0.088,-0.977745 -0.2756,-4.888502 -0.2207,-6.789062 z m -323.99604,0.04492 h 45.98632 L 911.08637,4.0541304 H 883.27973 L 869.50434,-89.756415 h -0.58203 L 854.7602,4.0541304 h -27.91407 z m 87.9746,0 h 42.1875 l 12.76563,79.031249 h 0.54883 L 1002.27,-99.33454 h 42.1621 l 2.2422,103.3886704 h -25.8399 l -0.6797,-92.9531244 h -0.539 L 1002.3344,4.0541304 H 976.10004 L 958.80902,-88.898994 h -0.56054 l -0.64844,92.9531244 h -25.89453 z m 337.48824,0 h 38.3965 l 23.7617,81.173827 h 0.5723 l -1.418,-81.173827 h 25.5977 V 2.9760054 h -36.8027 l -25.543,-83.9648424 h -0.5488 l 1.416,83.9648424 h -25.4317 z" />
    </g>
    <g
       id="g941"
       transform="matrix(1.0408981,0,0,1.0408981,5.0482519,39.128597)"
       style="fill:#1e1e2e;fill-opacity:1"
       inkscape:export-filename="../../assets/microsoft.png"
       inkscape:export-xdpi="96"
       inkscape:export-ydpi="96">
      <path
         fill="#737373"
         d="m 140.4,14.4 v 43.2 h -7.5 V 23.7 h -0.1 l -13.4,33.9 h -5 L 100.7,23.7 h -0.1 V 57.6 H 93.7 V 14.4 h 10.8 l 12.4,32 h 0.2 l 13.1,-32 z m 6.2,3.3 c 0,-1.2 0.4,-2.2 1.3,-3 0.9,-0.8 1.9,-1.2 3.1,-1.2 1.3,0 2.4,0.4 3.2,1.2 0.8,0.8 1.3,1.8 1.3,3 0,1.2 -0.4,2.2 -1.3,3 -0.9,0.8 -1.9,1.2 -3.2,1.2 -1.3,0 -2.3,-0.4 -3.1,-1.2 -0.8,-0.9 -1.3,-1.9 -1.3,-3 z m 8.1,8.9 v 31 h -7.3 v -31 z m 22.1,25.7 c 1.1,0 2.3,-0.2 3.6,-0.8 1.3,-0.5 2.5,-1.2 3.6,-2 v 6.8 c -1.2,0.7 -2.5,1.2 -4,1.5 -1.5,0.3 -3.1,0.5 -4.9,0.5 -4.6,0 -8.3,-1.4 -11.1,-4.3 -2.9,-2.9 -4.3,-6.6 -4.3,-11 0,-5 1.5,-9.1 4.4,-12.3 2.9,-3.2 7,-4.8 12.4,-4.8 1.4,0 2.8,0.2 4.1,0.5 1.4,0.3 2.5,0.8 3.3,1.2 v 7 c -1.1,-0.8 -2.3,-1.5 -3.4,-1.9 -1.2,-0.4 -2.4,-0.7 -3.6,-0.7 -2.9,0 -5.2,0.9 -7,2.8 -1.8,1.9 -2.6,4.4 -2.6,7.6 0,3.1 0.9,5.6 2.6,7.3 1.7,1.7 4,2.6 6.9,2.6 z m 27.9,-26.2 c 0.6,0 1.1,0 1.6,0.1 0.5,0.1 0.9,0.2 1.2,0.3 v 7.4 c -0.4,-0.3 -0.9,-0.6 -1.7,-0.8 -0.8,-0.2 -1.6,-0.4 -2.7,-0.4 -1.8,0 -3.3,0.8 -4.5,2.3 -1.2,1.5 -1.9,3.8 -1.9,7 v 15.6 h -7.3 v -31 h 7.3 v 4.9 h 0.1 c 0.7,-1.7 1.7,-3 3,-4 1.4,-0.9 3,-1.4 4.9,-1.4 z m 3.2,16.5 c 0,-5.1 1.5,-9.2 4.3,-12.2 2.9,-3 6.9,-4.5 12,-4.5 4.8,0 8.6,1.4 11.3,4.3 2.7,2.9 4.1,6.8 4.1,11.7 0,5 -1.5,9 -4.3,12 -2.9,3 -6.8,4.5 -11.8,4.5 -4.8,0 -8.6,-1.4 -11.4,-4.2 -2.8,-2.9 -4.2,-6.8 -4.2,-11.6 z m 7.6,-0.3 c 0,3.2 0.7,5.7 2.2,7.4 1.5,1.7 3.6,2.6 6.3,2.6 2.6,0 4.7,-0.8 6.1,-2.6 1.4,-1.7 2.1,-4.2 2.1,-7.6 0,-3.3 -0.7,-5.8 -2.1,-7.6 -1.4,-1.7 -3.5,-2.6 -6,-2.6 -2.7,0 -4.7,0.9 -6.2,2.7 -1.7,1.9 -2.4,4.4 -2.4,7.7 z m 35,-7.5 c 0,1 0.3,1.9 1,2.5 0.7,0.6 2.1,1.3 4.4,2.2 2.9,1.2 5,2.5 6.1,3.9 1.2,1.5 1.8,3.2 1.8,5.3 0,2.9 -1.1,5.2 -3.4,7 -2.2,1.8 -5.3,2.6 -9.1,2.6 -1.3,0 -2.7,-0.2 -4.3,-0.5 -1.6,-0.3 -2.9,-0.7 -4,-1.2 v -7.2 c 1.3,0.9 2.8,1.7 4.3,2.2 1.5,0.5 2.9,0.8 4.2,0.8 1.6,0 2.9,-0.2 3.6,-0.7 0.8,-0.5 1.2,-1.2 1.2,-2.3 0,-1 -0.4,-1.8 -1.2,-2.6 -0.8,-0.7 -2.4,-1.5 -4.6,-2.4 -2.7,-1.1 -4.6,-2.4 -5.7,-3.8 -1.1,-1.4 -1.7,-3.2 -1.7,-5.4 0,-2.8 1.1,-5.1 3.3,-6.9 2.2,-1.8 5.1,-2.7 8.6,-2.7 1.1,0 2.3,0.1 3.6,0.4 1.3,0.3 2.5,0.6 3.4,0.9 V 34 c -1,-0.6 -2.1,-1.2 -3.4,-1.7 -1.3,-0.5 -2.6,-0.7 -3.8,-0.7 -1.4,0 -2.5,0.3 -3.2,0.8 -0.7,0.7 -1.1,1.4 -1.1,2.4 z m 16.4,7.8 c 0,-5.1 1.5,-9.2 4.3,-12.2 2.9,-3 6.9,-4.5 12,-4.5 4.8,0 8.6,1.4 11.3,4.3 2.7,2.9 4.1,6.8 4.1,11.7 0,5 -1.5,9 -4.3,12 -2.9,3 -6.8,4.5 -11.8,4.5 -4.8,0 -8.6,-1.4 -11.4,-4.2 -2.7,-2.9 -4.2,-6.8 -4.2,-11.6 z m 7.6,-0.3 c 0,3.2 0.7,5.7 2.2,7.4 1.5,1.7 3.6,2.6 6.3,2.6 2.6,0 4.7,-0.8 6.1,-2.6 1.4,-1.7 2.1,-4.2 2.1,-7.6 0,-3.3 -0.7,-5.8 -2.1,-7.6 -1.4,-1.7 -3.5,-2.6 -6,-2.6 -2.7,0 -4.7,0.9 -6.2,2.7 -1.6,1.9 -2.4,4.4 -2.4,7.7 z m 48.4,-9.7 H 312 v 25 h -7.4 v -25 h -5.2 v -6 h 5.2 v -4.3 c 0,-3.2 1.1,-5.9 3.2,-8 2.1,-2.1 4.8,-3.1 8.1,-3.1 0.9,0 1.7,0.1 2.4,0.1 0.7,0 1.3,0.2 1.8,0.4 V 18 c -0.2,-0.1 -0.7,-0.3 -1.3,-0.5 -0.6,-0.2 -1.3,-0.3 -2.1,-0.3 -1.5,0 -2.7,0.5 -3.5,1.4 -0.8,0.9 -1.2,2.4 -1.2,4.2 v 3.7 h 10.9 v -7 l 7.3,-2.2 v 9.2 h 7.4 v 6 h -7.4 V 47 c 0,1.9 0.4,3.2 1,4 0.7,0.8 1.8,1.2 3.3,1.2 0.4,0 0.9,-0.1 1.5,-0.3 0.6,-0.2 1.1,-0.4 1.5,-0.7 v 6 c -0.5,0.3 -1.2,0.5 -2.3,0.7 -1.1,0.2 -2.1,0.3 -3.2,0.3 -3.1,0 -5.4,-0.8 -6.9,-2.4 -1.5,-1.6 -2.3,-4.1 -2.3,-7.4 z"
         id="path23"
         style="fill:#1e1e2e;fill-opacity:1" />
      <rect
         fill="#f25022"
         width="34.200001"
         height="34.200001"
         id="rect938"
         x="0"
         y="0"
         style="fill:#1e1e2e;fill-opacity:1" />
      <rect
         x="37.799999"
         fill="#7fba00"
         width="34.200001"
         height="34.200001"
         id="rect939"
         y="0"
         style="fill:#1e1e2e;fill-opacity:1" />
      <rect
         y="37.799999"
         fill="#00a4ef"
         width="34.200001"
         height="34.200001"
         id="rect940"
         x="0"
         style="fill:#1e1e2e;fill-opacity:1" />
      <rect
         x="37.799999"
         y="37.799999"
         fill="#ffb900"
         width="34.200001"
         height="34.200001"
         id="rect941"
         style="fill:#1e1e2e;fill-opacity:1" />
    </g>
    <g
       id="g2235"
       transform="matrix(0.92378609,0,0,0.92378609,323.80604,11.230918)"
       inkscape:export-filename="../../WD_S_BahanLomba_ParassICTIX_1/image/icons/ibm.svg"
       inkscape:export-xdpi="96"
       inkscape:export-ydpi="96">
      <g
         id="g2234"
         transform="translate(-442.85641,104.98075)"
         style="fill:#1e1e2e;fill-opacity:1">
        <rect
           x="128"
           y="342.94949"
           width="62.222198"
           height="8.8888998"
           id="rect2070"
           style="fill:#1e1e2e;fill-opacity:1" />
        <rect
           x="128"
           y="325.97971"
           width="62.222198"
           height="8.8888998"
           id="rect2071"
           style="fill:#1e1e2e;fill-opacity:1" />
        <rect
           x="145.77769"
           y="309.01001"
           width="26.6667"
           height="8.8889999"
           id="rect2072"
           style="fill:#1e1e2e;fill-opacity:1" />
        <rect
           x="145.77769"
           y="292.04041"
           width="26.6667"
           height="8.8888998"
           id="rect2073"
           style="fill:#1e1e2e;fill-opacity:1" />
        <rect
           x="145.77769"
           y="275.07059"
           width="26.6667"
           height="8.8888998"
           id="rect2210"
           style="fill:#1e1e2e;fill-opacity:1" />
        <rect
           x="145.77769"
           y="258.10101"
           width="26.6667"
           height="8.8888998"
           id="rect2211"
           style="fill:#1e1e2e;fill-opacity:1" />
        <rect
           x="128"
           y="241.1313"
           width="62.222198"
           height="8.8888998"
           id="rect2212"
           style="fill:#1e1e2e;fill-opacity:1" />
        <rect
           x="128"
           y="224.1617"
           width="62.222198"
           height="8.8888998"
           id="rect2213"
           style="fill:#1e1e2e;fill-opacity:1" />
        <path
           d="m 199.1112,334.8686 h 94.842 a 33.7121,33.7121 0 0 0 3.576,-8.8889 h -98.418 z"
           id="path2213"
           style="fill:#1e1e2e;fill-opacity:1" />
        <path
           d="m 286.5286,292.04 h -69.64 v 8.8888 h 77.0547 a 34.0754,34.0754 0 0 0 -7.4147,-8.8888 z"
           id="path2214"
           style="fill:#1e1e2e;fill-opacity:1" />
        <path
           d="m 216.8889,275.0706 v 8.8894 h 69.64 a 34.0774,34.0774 0 0 0 7.415,-8.8889 z"
           id="path2215"
           style="fill:#1e1e2e;fill-opacity:1" />
        <path
           d="m 293.9532,241.1313 h -94.842 v 8.8887 h 98.418 a 33.7148,33.7148 0 0 0 -3.576,-8.8887 z"
           id="path2216"
           style="fill:#1e1e2e;fill-opacity:1" />
        <path
           d="m 264.5656,224.1617 h -65.4544 v 8.8888 h 88.35 a 33.8138,33.8138 0 0 0 -22.8956,-8.8888 z"
           id="path2217"
           style="fill:#1e1e2e;fill-opacity:1" />
        <rect
           x="216.8889"
           y="258.10101"
           width="26.6667"
           height="8.8888998"
           id="rect2217"
           style="fill:#1e1e2e;fill-opacity:1" />
        <path
           d="m 268.6061,266.99 h 28.71 a 33.9492,33.9492 0 0 0 1.189,-8.8889 h -29.899 z"
           id="path2218"
           style="fill:#1e1e2e;fill-opacity:1" />
        <rect
           x="216.8889"
           y="309.01001"
           width="26.6667"
           height="8.8889999"
           id="rect2218"
           style="fill:#1e1e2e;fill-opacity:1" />
        <path
           d="m 268.6061,309.01 v 8.889 h 29.899 a 33.9488,33.9488 0 0 0 -1.189,-8.889 z"
           id="path2219"
           style="fill:#1e1e2e;fill-opacity:1" />
        <path
           d="m 199.1112,351.75 65.4544,0.0879 a 33.6926,33.6926 0 0 0 22.8959,-8.8888 h -88.35 z"
           id="path2220"
           style="fill:#1e1e2e;fill-opacity:1" />
        <polygon
           points="379.979,342.949 373.799,342.949 376.875,351.838 "
           id="polygon2220"
           style="fill:#1e1e2e;fill-opacity:1" />
        <polygon
           points="367.842,325.98 370.962,334.869 382.816,334.869 385.936,325.98 "
           id="polygon2221"
           style="fill:#1e1e2e;fill-opacity:1" />
        <polygon
           points="361.884,309.01 365.005,317.899 388.773,317.899 391.894,309.01 "
           id="polygon2222"
           style="fill:#1e1e2e;fill-opacity:1" />
        <polygon
           points="355.927,292.04 359.047,300.929 394.731,300.929 397.851,292.04 "
           id="polygon2223"
           style="fill:#1e1e2e;fill-opacity:1" />
        <polygon
           points="323.556,258.101 323.556,266.99 371.58,266.99 368.489,258.101 "
           id="polygon2224"
           style="fill:#1e1e2e;fill-opacity:1" />
        <polygon
           points="391.19,241.131 388.099,250.02 448,250.02 448,241.131 "
           id="polygon2225"
           style="fill:#1e1e2e;fill-opacity:1" />
        <polygon
           points="448,224.162 397.091,224.162 394,233.051 448,233.051 "
           id="polygon2226"
           style="fill:#1e1e2e;fill-opacity:1" />
        <rect
           x="305.77789"
           y="342.94949"
           width="44.4445"
           height="8.8888998"
           id="rect2226"
           style="fill:#1e1e2e;fill-opacity:1" />
        <rect
           x="305.77789"
           y="325.97971"
           width="44.4445"
           height="8.8888998"
           id="rect2227"
           style="fill:#1e1e2e;fill-opacity:1" />
        <rect
           x="323.5556"
           y="309.01001"
           width="26.6667"
           height="8.8889999"
           id="rect2228"
           style="fill:#1e1e2e;fill-opacity:1" />
        <rect
           x="323.5556"
           y="292.04041"
           width="26.6667"
           height="8.8888998"
           id="rect2229"
           style="fill:#1e1e2e;fill-opacity:1" />
        <polygon
           points="430.222,266.99 430.222,258.101 385.289,258.101 382.198,266.99 "
           id="polygon2229"
           style="fill:#1e1e2e;fill-opacity:1" />
        <polygon
           points="353.09,283.96 400.688,283.96 403.556,275.792 403.556,283.96 430.222,283.96 430.222,275.071 403.556,275.071 379.387,275.071 376.889,282.256 374.39,275.071 350.222,275.071 323.556,275.071 323.556,283.96 350.222,283.96 350.222,275.791 "
           id="polygon2230"
           style="fill:#1e1e2e;fill-opacity:1" />
        <rect
           x="403.55551"
           y="292.04041"
           width="26.6667"
           height="8.8888998"
           id="rect2230"
           style="fill:#1e1e2e;fill-opacity:1" />
        <rect
           x="403.55551"
           y="309.01001"
           width="26.6667"
           height="8.8889999"
           id="rect2231"
           style="fill:#1e1e2e;fill-opacity:1" />
        <rect
           x="403.55551"
           y="325.97971"
           width="44.4445"
           height="8.8888998"
           id="rect2232"
           style="fill:#1e1e2e;fill-opacity:1" />
        <rect
           x="403.55551"
           y="342.94949"
           width="44.4445"
           height="8.8888998"
           id="rect2233"
           style="fill:#1e1e2e;fill-opacity:1" />
        <polygon
           points="305.778,250.02 365.679,250.02 362.588,241.131 305.778,241.131 "
           id="polygon2233"
           style="fill:#1e1e2e;fill-opacity:1" />
        <polygon
           points="305.778,233.051 359.778,233.051 356.687,224.162 305.778,224.162 "
           id="polygon2234"
           style="fill:#1e1e2e;fill-opacity:1" />
      </g>
    </g>
    <g
       id="g6"
       transform="matrix(1.0986226,0,0,1.0986226,-763.5586,-1811.9929)">
      <g
         id="g2236"
         transform="matrix(0.55868791,0,0,0.55868791,719.96612,1555.2052)"
         style="fill:#1e1e2e;fill-opacity:1"
         inkscape:export-filename="../../assets/prakerja.png"
         inkscape:export-xdpi="96"
         inkscape:export-ydpi="96">
        <path
           fill="#fba66b"
           d="m 3.95,0 h 6.28 l -0.09,19.46 c -0.01,0.53 0.18,0.61 0.56,0.24 l 8.91,-8.59 c 0.25,-0.24 0.54,-0.36 0.88,-0.36 h 6.97 c 0.65,0 0.75,0.23 0.28,0.68 L 17,21.8 c -0.27,0.26 -0.29,0.54 -0.06,0.84 l 11.08,14.41 c 0.34,0.44 0.23,0.66 -0.33,0.66 l -6.85,-0.04 c -0.32,-0.01 -0.61,-0.15 -0.81,-0.4 l -7.36,-9.54 c -0.82,-1.07 -2.52,-0.48 -2.52,0.86 l 0.03,8.5 c 0,0.33 -0.26,0.59 -0.58,0.59 L 4.58,37.66 c -0.4,0 -0.6,-0.2 -0.6,-0.6 z"
           id="path1-62"
           style="fill:#1e1e2e;fill-opacity:1" />
        <path
           fill="#fba66b"
           d="m 90.13,0 h 6.19 L 96.3,10.27 c 0,0.32 0.16,0.48 0.48,0.48 H 102 c 0.5,0 0.75,0.25 0.75,0.75 v 4.75 c 0,0.5 -0.25,0.75 -0.75,0.75 h -4.89 c -0.43,0 -0.64,0.21 -0.64,0.64 l 0.02,19.42 c 0,0.34 -0.28,0.61 -0.62,0.6 L 91.05,37.44 C 90.32,37.41 89.96,37.03 89.97,36.3 L 90.2,17.61 C 90.21,17.2 90.01,17 89.61,17 h -1.46 c -0.35,0 -0.53,-0.18 -0.53,-0.54 v -5.17 c 0,-0.36 0.18,-0.54 0.53,-0.54 h 1.4 c 0.44,0 0.8,-0.37 0.79,-0.81 z"
           id="path2-9"
           style="fill:#1e1e2e;fill-opacity:1" />
        <path
           fill="#fba66b"
           d="M 53.39,36.56 C 37.11,45.92 22.39,24.3 36.35,12.85 43.58,6.93 54.84,9.32 58.87,17.8 c 2.29,4.82 1.42,13.2 1.62,18.93 0.02,0.47 -0.36,0.86 -0.84,0.86 l -4.79,-0.06 c -0.3,0 -0.52,-0.13 -0.67,-0.4 l -0.21,-0.4 c -0.14,-0.26 -0.34,-0.32 -0.59,-0.17 z m 0.63,-12.4 c 0,-4.62 -3.75,-8.37 -8.37,-8.37 -4.62,0 -8.37,3.75 -8.37,8.37 0,4.62 3.75,8.37 8.37,8.37 4.62,0 8.37,-3.75 8.37,-8.37 z"
           id="path3-1"
           style="fill:#1e1e2e;fill-opacity:1" />
        <path
           fill="#fba66b"
           d="m 72.89,11.44 -0.17,1.76 c -0.04,0.42 0.46,0.67 0.77,0.38 2.68,-2.49 5.86,-3.83 9.53,-4.03 0.36,-0.01 0.52,0.16 0.47,0.51 l -0.71,5.43 c -0.06,0.42 -0.3,0.65 -0.72,0.7 -11.34,1.21 -9.38,13.15 -9.31,20.95 0.01,0.3 -0.14,0.45 -0.44,0.44 L 67.24,37.52 C 66.92,37.51 66.66,37.25 66.66,36.93 L 66.61,11.42 c -0.01,-0.45 0.21,-0.67 0.66,-0.67 h 4.99 c 0.37,0 0.67,0.32 0.63,0.69 z"
           id="path4-2"
           style="fill:#1e1e2e;fill-opacity:1" />
        <path
           fill="#fba66b"
           d="m 132.5,26.49 c -0.49,16.08 -24.3,16.53 -24.45,-0.45 -0.05,-4.86 -0.09,-9.75 -0.13,-14.68 0,-0.41 0.2,-0.61 0.6,-0.61 h 5.03 c 0.45,0 0.66,0.22 0.63,0.66 -0.38,6.61 -0.33,12.03 0.15,16.28 0.58,5.09 8.1,6.13 10.7,2.2 2.32,-3.51 1.19,-14.21 1.25,-18.63 0,-0.34 0.17,-0.51 0.52,-0.51 h 5.14 c 0.33,0 0.49,0.16 0.5,0.49 0.13,7.39 0.15,12.48 0.06,15.25 z"
           id="path5-7"
           style="fill:#1e1e2e;fill-opacity:1" />
        <path
           fill="#4a91dc"
           d="m 226.81,70.16 20.48,-19.57 c 0.07,-0.06 0.15,-0.09 0.23,-0.09 h 17.07 c 0.3,0 0.44,0.36 0.23,0.57 L 240.28,74.7 c -0.12,0.11 -0.13,0.3 -0.03,0.43 l 24.64,32.06 c 0.17,0.22 0.02,0.53 -0.26,0.53 l -16.55,0.1 c -0.1,0 -0.2,-0.05 -0.26,-0.13 L 230.31,84.78 c -0.12,-0.16 -0.34,-0.17 -0.49,-0.04 l -3.49,3.27 c -0.06,0.06 -0.1,0.15 -0.1,0.24 l 0.06,19.14 c 0,0.18 -0.15,0.33 -0.33,0.33 l -12.59,0.1 c -0.18,0 -0.33,-0.15 -0.33,-0.33 l -0.17,-79.66 c 0,-0.18 0.15,-0.33 0.33,-0.33 h 12.72 c 0.18,0 0.33,0.15 0.33,0.33 v 42.09 c 0,0.29 0.35,0.44 0.56,0.24 z"
           id="path6-0"
           style="fill:#1e1e2e;fill-opacity:1" />
        <path
           fill="#4a91dc"
           d="M 0,144.08 V 76.95 C 2.98,47.36 40.39,37.07 57.36,61.78 c 19.25,28 -15.82,63.22 -43.31,42.33 -0.32,-0.25 -0.79,-0.02 -0.79,0.39 l -0.01,39.08 c 0,0.39 -0.2,0.59 -0.59,0.59 z M 49.27,79.16 c 0,-9.87 -8.01,-17.88 -17.88,-17.88 -9.87,0 -17.88,8.01 -17.88,17.88 0,9.87 8.01,17.88 17.88,17.88 9.87,0 17.88,-8.01 17.88,-17.88 z"
           id="path7-9"
           style="fill:#1e1e2e;fill-opacity:1" />
        <path
           fill="#4a91dc"
           d="m 71.08,69.8 c 10.53,-33.03 59.98,-26.92 61.38,8.46 0.02,0.4 -0.31,0.74 -0.71,0.74 h -12.01 c -0.45,0 -0.69,-0.22 -0.72,-0.67 -0.78,-13.46 -14.71,-20.97 -26.32,-15.12 -8.05,4.06 -9.66,11.3 -9.69,20.42 -0.02,7.94 -0.02,15.86 0,23.75 0,0.23 -0.19,0.42 -0.42,0.42 l -12.35,-0.07 c -0.32,-0.01 -0.48,-0.17 -0.48,-0.49 -0.02,-8.77 -0.02,-17.53 -0.01,-26.27 0.01,-4.7 0.46,-8.42 1.33,-11.17 z"
           id="path8-3"
           style="fill:#1e1e2e;fill-opacity:1" />
        <path
           fill="#4a91dc"
           d="m 142.3,68.68 c 9.9,-27.59 50.12,-27.67 59.33,0.55 1.05,3.22 1.59,8.51 1.62,15.86 0.02,7.37 0.01,14.75 -0.02,22.16 0,0.31 -0.15,0.46 -0.46,0.46 l -12.49,0.13 c -0.43,0 -0.59,-0.21 -0.5,-0.62 l 0.24,-1.07 c 0.15,-0.67 -0.58,-1.19 -1.16,-0.83 -25.32,15.9 -56.91,-7.79 -46.56,-36.64 z m 47.45,10.41 c 0,-9.9 -8.02,-17.92 -17.92,-17.92 -9.9,0 -17.92,8.02 -17.92,17.92 0,9.9 8.02,17.92 17.92,17.92 9.9,0 17.92,-8.02 17.92,-17.92 z"
           id="path9-6"
           style="fill:#1e1e2e;fill-opacity:1" />
        <path
           fill="#4a91dc"
           d="m 292.92,109.42 c -29.96,-7.74 -32.69,-49.46 -2.66,-59.87 21.18,-7.34 40.59,8.46 41.47,29.94 0.01,0.28 -0.21,0.51 -0.49,0.51 h -48.26 c -0.46,0 -0.82,0.42 -0.74,0.87 3.11,17.88 25.88,22.4 34.4,5.86 0.15,-0.29 0.39,-0.44 0.72,-0.45 l 13.2,-0.25 c 0.42,-0.01 0.72,0.39 0.61,0.79 -4.75,16.6 -21.09,27.03 -38.25,22.6 z m 23.66,-39.07 c -6.34,-13.93 -26.54,-14.77 -32.28,-0.02 -0.13,0.32 0.11,0.67 0.46,0.67 h 31.41 c 0.33,0 0.55,-0.35 0.41,-0.65 z"
           id="path10-0"
           style="fill:#1e1e2e;fill-opacity:1" />
        <path
           fill="#4a91dc"
           d="m 344.07,63.52 c 17.1,-27.21 54.87,-16.97 58.57,14.19 0.1,0.86 -0.28,1.29 -1.15,1.29 h -11.68 c -0.34,0 -0.53,-0.17 -0.58,-0.51 -2.44,-19.59 -28.05,-24.18 -34.96,-5.51 -0.87,2.37 -1.3,5.78 -1.29,10.22 0.03,8.08 0.04,16.15 0.01,24.2 0,0.22 -0.18,0.4 -0.41,0.4 l -12.33,-0.07 c -0.31,-0.01 -0.47,-0.17 -0.48,-0.48 -0.06,-10.74 -0.05,-21.46 0.04,-32.17 0.03,-3.23 1.45,-7.08 4.26,-11.56 z"
           id="path11-6"
           style="fill:#1e1e2e;fill-opacity:1" />
        <path
           fill="#4a91dc"
           d="m 486.25,105.74 c 0,-0.37 -0.17,-0.48 -0.5,-0.31 -9.65,4.85 -18.9,5.95 -27.75,3.3 -18.16,-5.42 -26.04,-26.09 -18.15,-42.89 11.92,-25.39 49.96,-23.18 58.3,3.74 0.9,2.91 1.35,7.41 1.34,13.49 -0.01,8.01 0.05,16.03 0.16,24.05 0,0.37 -0.19,0.56 -0.56,0.57 l -12.36,0.2 c -0.26,0.01 -0.48,-0.21 -0.48,-0.47 z m -0.07,-26.65 c 0,-9.9 -8.03,-17.93 -17.93,-17.93 -9.9,0 -17.93,8.03 -17.93,17.93 0,9.9 8.03,17.93 17.93,17.93 9.9,0 17.93,-8.03 17.93,-17.93 z"
           id="path12-2"
           style="fill:#1e1e2e;fill-opacity:1" />
        <path
           fill="#4a91dc"
           d="m 413.5,117.5 c 0.41,0 0.75,-0.34 0.75,-0.75 V 51 c 0,-0.33 0.17,-0.5 0.5,-0.5 h 12.45 c 0.35,0 0.53,0.18 0.53,0.53 0.05,20.3 0.05,40.58 0,60.85 -0.01,6.05 -0.36,10.09 -1.05,12.11 -5.66,16.46 -31.8,12.66 -32.87,-6.01 -0.02,-0.26 0.19,-0.48 0.45,-0.48 z"
           id="path13-6"
           style="fill:#1e1e2e;fill-opacity:1" />
        <circle
           fill="#fba66b"
           cx="371.37"
           cy="78.900002"
           r="8.3500004"
           id="circle13"
           style="fill:#1e1e2e;fill-opacity:1" />
        <circle
           fill="#fba66b"
           cx="468.22"
           cy="78.879997"
           r="8.3500004"
           id="circle14"
           style="fill:#1e1e2e;fill-opacity:1" />
        <path
           fill="#fba66b"
           d="m 412.42,160 h -4.72 c -25.56,-2.93 -41.7,-25.41 -34.51,-50.28 0.08,-0.3 0.41,-0.45 0.7,-0.33 l 10.03,4.18 c 0.3,0.13 0.42,0.35 0.36,0.67 -5.46,30.3 29.45,46.05 48.12,21.9 0.19,-0.25 0.42,-0.31 0.7,-0.19 l 10.22,4.24 c 0.38,0.16 0.46,0.42 0.24,0.77 -7.15,11.43 -17.53,17.78 -31.14,19.04 z"
           id="path14-1"
           style="fill:#1e1e2e;fill-opacity:1" />
      </g>
    </g>
    <g
       id="g2"
       transform="matrix(1.2680386,0,0,1.2680386,9.3383968,157.80915)"
       style="fill:#1e1e2e;fill-opacity:1"
       inkscape:export-filename="../../assets/google.png"
       inkscape:export-xdpi="96"
       inkscape:export-ydpi="96">
      <path
         fill="#808080"
         d="m 115.75,47.18 c 0,12.77 -9.99,22.18 -22.25,22.18 C 81.24,69.36 71.25,59.95 71.25,47.18 71.25,34.32 81.24,25 93.5,25 c 12.26,0 22.25,9.32 22.25,22.18 z m -9.74,0 c 0,-7.98 -5.79,-13.44 -12.51,-13.44 -6.72,0 -12.51,5.46 -12.51,13.44 0,7.9 5.79,13.44 12.51,13.44 6.72,0 12.51,-5.55 12.51,-13.44 z"
         id="path1-36"
         style="fill:#1e1e2e;fill-opacity:1" />
      <path
         fill="#808080"
         d="m 163.75,47.18 c 0,12.77 -9.99,22.18 -22.25,22.18 -12.26,0 -22.25,-9.41 -22.25,-22.18 0,-12.85 9.99,-22.18 22.25,-22.18 12.26,0 22.25,9.32 22.25,22.18 z m -9.74,0 c 0,-7.98 -5.79,-13.44 -12.51,-13.44 -6.72,0 -12.51,5.46 -12.51,13.44 0,7.9 5.79,13.44 12.51,13.44 6.72,0 12.51,-5.55 12.51,-13.44 z"
         id="path2-7"
         style="fill:#1e1e2e;fill-opacity:1" />
      <path
         fill="#808080"
         d="m 209.75,26.34 v 39.82 c 0,16.38 -9.66,23.07 -21.08,23.07 -10.75,0 -17.22,-7.19 -19.66,-13.07 l 8.48,-3.53 c 1.51,3.61 5.21,7.87 11.17,7.87 7.31,0 11.84,-4.51 11.84,-13 v -3.19 h -0.34 c -2.18,2.69 -6.38,5.04 -11.68,5.04 -11.09,0 -21.25,-9.66 -21.25,-22.09 0,-12.52 10.16,-22.26 21.25,-22.26 5.29,0 9.49,2.35 11.68,4.96 h 0.34 v -3.61 h 9.25 z m -8.56,20.92 c 0,-7.81 -5.21,-13.52 -11.84,-13.52 -6.72,0 -12.35,5.71 -12.35,13.52 0,7.73 5.63,13.36 12.35,13.36 6.63,0 11.84,-5.63 11.84,-13.36 z"
         id="path3-5"
         style="fill:#1e1e2e;fill-opacity:1" />
      <path
         fill="#808080"
         d="m 225,3 v 65 h -9.5 V 3 Z"
         id="path4-3"
         style="fill:#1e1e2e;fill-opacity:1" />
      <path
         fill="#808080"
         d="m 262.02,54.48 7.56,5.04 c -2.44,3.61 -8.32,9.83 -18.48,9.83 -12.6,0 -22.01,-9.74 -22.01,-22.18 0,-13.19 9.49,-22.18 20.92,-22.18 11.51,0 17.14,9.16 18.98,14.11 L 270,41.62 240.35,53.9 c 2.27,4.45 5.8,6.72 10.75,6.72 4.96,0 8.4,-2.44 10.92,-6.14 z m -23.27,-7.98 19.82,-8.23 c -1.09,-2.77 -4.37,-4.7 -8.23,-4.7 -4.95,0 -11.84,4.37 -11.59,12.93 z"
         id="path5-5"
         style="fill:#1e1e2e;fill-opacity:1" />
      <path
         fill="#808080"
         d="M 35.29,41.41 V 32 H 67 c 0.31,1.64 0.47,3.58 0.47,5.68 0,7.06 -1.93,15.79 -8.15,22.01 -6.05,6.3 -13.78,9.66 -24.02,9.66 C 16.32,69.35 0.36,53.89 0.36,34.91 0.36,15.93 16.32,0.47 35.3,0.47 c 10.5,0 17.98,4.12 23.6,9.49 L 52.26,16.6 C 48.23,12.82 42.77,9.88 35.29,9.88 c -13.86,0 -24.7,11.17 -24.7,25.03 0,13.86 10.84,25.03 24.7,25.03 8.99,0 14.11,-3.61 17.39,-6.89 2.66,-2.66 4.41,-6.46 5.1,-11.65 z"
         id="path6-6"
         style="fill:#1e1e2e;fill-opacity:1" />
    </g>
  </g>
</svg>
