<?xml version="1.0" encoding="UTF-8" standalone="no"?>
<!-- Created with Inkscape (http://www.inkscape.org/) -->

<svg
   width="416.01831"
   height="704.03113"
   viewBox="0 0 110.07151 186.2749"
   version="1.1"
   id="svg1"
   xml:space="preserve"
   xmlns="http://www.w3.org/2000/svg"
   xmlns:svg="http://www.w3.org/2000/svg"><defs
     id="defs1" /><g
     id="layer1"
     transform="translate(1075.6427,508.4006)"><g
       id="g11"
       transform="matrix(2.7270459,0,0,2.7270459,-1109.4159,-537.62981)"><path
         class="st0"
         d="m 27.908749,63.500549 v 3.104839 h -3.10484 v -3.104839 z m 3.104839,-3.10484 h -3.104839 v 3.10484 h 3.104839 z M 24.803909,26.242475 v 3.10484 h 3.10484 v -3.10484 z m 3.10484,3.10484 v 3.104839 h 3.104839 V 29.347315 Z M 52.747465,10.718278 v 3.104839 3.10484 3.104839 h -3.10484 v 3.10484 3.104839 3.10484 3.104839 3.10484 h -3.104839 v 3.104839 h -3.10484 v 3.10484 h -3.104839 v 3.104839 3.104839 h 3.104839 v 3.10484 h 3.10484 v 3.104839 h 3.104839 v 3.10484 3.104839 3.10484 3.104839 3.10484 h 3.10484 v 3.104839 3.10484 3.104839 h -3.10484 -3.104839 -3.10484 -3.104839 -3.10484 -3.104839 -3.10484 -3.104839 -3.10484 -3.104839 -3.10484 -3.104838 -3.10484 v -3.104839 -3.10484 -3.104839 h 3.10484 v -3.10484 -3.104839 -3.10484 -3.104839 -3.10484 h 3.104838 v -3.104839 h 3.10484 v -3.10484 h 3.104839 V 44.871512 41.766673 H 21.69907 v -3.10484 h -3.10484 v -3.104839 h -3.104838 v -3.10484 -3.104839 -3.10484 -3.104839 -3.10484 h -3.10484 v -3.104839 -3.10484 -3.104839 h 3.10484 3.104838 3.10484 3.104839 3.10484 3.104839 3.10484 3.104839 3.10484 3.104839 3.10484 3.104839 z m -3.10484,62.096789 h -3.104839 -3.10484 -3.104839 -3.10484 -3.104839 -3.10484 -3.104839 -3.10484 -3.104839 -3.10484 -3.104838 v 3.10484 h 3.104838 3.10484 3.104839 3.10484 3.104839 3.10484 3.104839 3.10484 3.104839 3.10484 3.104839 z M 46.537786,20.032796 h -3.10484 -3.104839 -3.10484 -3.104839 -3.10484 -3.104839 -3.10484 -3.104839 -3.10484 v 3.10484 3.104839 3.10484 3.104839 h 3.10484 v 3.10484 h 3.104839 v 3.104839 h 3.10484 v 3.10484 h 3.104839 v 3.104839 3.104839 h -3.104839 v 3.10484 h -3.10484 V 54.18603 H 21.69907 v 3.10484 h -3.10484 v 3.104839 3.10484 3.104839 3.10484 h 3.10484 v -3.10484 h 3.104839 v 3.10484 h 3.10484 v -3.10484 h 3.104839 v 3.10484 h 3.10484 v -3.10484 h 3.104839 v 3.10484 h 3.10484 v -3.10484 h 3.104839 v 3.10484 h 3.10484 v -3.10484 -3.104839 -3.10484 -3.104839 h -3.10484 v -3.10484 h -3.104839 v -3.104839 h -3.10484 v -3.10484 h -3.104839 v -3.104839 -3.104839 h 3.104839 v -3.10484 h 3.10484 v -3.104839 h 3.104839 v -3.10484 h 3.10484 v -3.104839 -3.10484 -3.104839 z m 3.104839,-6.209679 h -3.104839 -3.10484 -3.104839 -3.10484 -3.104839 -3.10484 -3.104839 -3.10484 -3.104839 -3.10484 -3.104838 v 3.10484 h 3.104838 3.10484 3.104839 3.10484 3.104839 3.10484 3.104839 3.10484 3.104839 3.10484 3.104839 z M 37.223267,63.500549 v 3.104839 h 3.10484 v -3.104839 z m -6.209679,0 v 3.104839 h 3.10484 v -3.104839 z m 6.209679,0 v -3.10484 h -3.104839 v 3.10484 z M 34.118428,57.29087 h -3.10484 v 3.104839 h 3.10484 z m -3.10484,-3.10484 h 3.10484 v -3.104839 h -3.10484 z m 0,-15.524197 v 3.10484 h 3.10484 v -3.10484 z m 0,-3.104839 h 3.10484 v -3.10484 h -3.10484 z m 3.10484,-9.314519 h -3.10484 v 3.10484 h 3.10484 z m 3.104839,3.10484 h 3.10484 v -3.10484 h -3.10484 z m -3.104839,3.104839 h 3.104839 v -3.104839 h -3.104839 z"
         id="path1-367"
         style="fill:#1e1e2e;fill-opacity:1;stroke-width:1.24194" /></g></g><style
     type="text/css"
     id="style1">
	.st0{fill:#1D1D1B;}
</style></svg>
