<?xml version="1.0" encoding="UTF-8" standalone="no"?>
<!-- Created with Inkscape (http://www.inkscape.org/) -->

<svg
   width="1064.4648"
   height="1064.7949"
   viewBox="0 0 281.63965 281.72699"
   version="1.1"
   id="svg1"
   inkscape:version="1.3.2 (091e20ef0f, 2023-11-25)"
   sodipodi:docname="Mobile-prototype.svg"
   xml:space="preserve"
   xmlns:inkscape="http://www.inkscape.org/namespaces/inkscape"
   xmlns:sodipodi="http://sodipodi.sourceforge.net/DTD/sodipodi-0.dtd"
   xmlns="http://www.w3.org/2000/svg"
   xmlns:svg="http://www.w3.org/2000/svg"><sodipodi:namedview
     id="namedview1"
     pagecolor="#ffffff"
     bordercolor="#000000"
     borderopacity="0.25"
     inkscape:showpageshadow="2"
     inkscape:pageopacity="0.0"
     inkscape:pagecheckerboard="0"
     inkscape:deskcolor="#333333"
     inkscape:document-units="mm"
     inkscape:zoom="0.06069018"
     inkscape:cx="-5775.2342"
     inkscape:cy="-1285.2162"
     inkscape:window-width="1336"
     inkscape:window-height="701"
     inkscape:window-x="15"
     inkscape:window-y="15"
     inkscape:window-maximized="1"
     inkscape:current-layer="g11" /><defs
     id="defs1" /><g
     inkscape:label="Layer 1"
     inkscape:groupmode="layer"
     id="layer1"
     transform="translate(827.68745,805.80303)"><g
       id="g6"
       transform="matrix(3.1303044,0,0,3.1303044,-843.38282,-821.45474)"><path
         d="m 27.515003,66.851071 v 5.601973 h 22.470954 v -5.601973 z"
         style="fill:#1e1e2e"
         id="path36" /><path
         d="m 16.264008,61.249923 v 5.602138 h 11.223921 v -5.602138 z"
         style="fill:#1e1e2e"
         id="path35" /><path
         d="m 10.638923,49.997938 v 11.230029 h 5.598011 V 49.997938 Z"
         style="fill:#1e1e2e"
         id="path34" /><path
         d="m 61.263035,49.956006 v 5.668997 h -0.02707 v 5.62492 H 50.01303 v 5.601148 h 5.62393 v 5.601973 h 5.599001 v 5.669987 h 5.625085 v 5.581007 h 5.623929 v 5.668998 h 5.625085 v 5.6269 h 5.624919 v -0.04391 h 5.626076 V 89.35306 h 5.624919 l -0.02691,-11.250004 h -5.598011 v -5.624094 l -5.626076,-0.02493 V 66.852061 H 78.11006 v -5.602138 h -5.625085 v -5.62492 h -5.623929 v -5.668997 z"
         style="fill:#1e1e2e"
         id="path33" /><path
         d="m 66.889936,27.476963 v 22.479043 h 5.596029 V 27.476963 h -9.9e-4 z"
         style="fill:#1e1e2e"
         id="path32" /><path
         d="M 5.0140033,27.476963 V 49.956006 H 10.612014 V 27.476963 Z"
         style="fill:#1e1e2e"
         id="path31" /><path
         d="m 61.235961,16.251061 v 11.225902 h 5.598011 V 16.251061 Z"
         style="fill:#1e1e2e"
         id="path30" /><path
         d="m 10.611024,16.226959 v 11.229038 h 5.59702 V 16.226959 Z"
         style="fill:#1e1e2e"
         id="path29" /><path
         d="m 49.984966,10.623995 v 5.602964 h 11.225077 v -5.602964 z"
         style="fill:#1e1e2e"
         id="path27" /><path
         d="m 49.984966,10.623995 h 11.225077 v 5.602964 H 49.984966 Z"
         style="fill:#1e1e2e"
         id="path26" /><path
         d="m 27.487929,10.60303 v -9.91e-4 H 16.264008 v 5.602963 h 11.223921 z"
         style="fill:#1e1e2e"
         id="path25" /><path
         d="M 27.487929,5.0000661 V 10.60303 H 49.958057 V 5.0000661 Z"
         style="fill:#1e1e2e"
         id="path24" /></g></g><style
     type="text/css"
     id="style1">
	.st0{fill:#1D1D1B;}
</style></svg>
