<?xml version="1.0" encoding="UTF-8" standalone="no"?>
<svg
   version="1.1"
   x="0px"
   y="0px"
   viewBox="0 0 24.512482 73.525009"
   enable-background="new 0 0 100 100"
   xml:space="preserve"
   id="svg3"
   width="24.512482"
   height="73.525009"
   xmlns="http://www.w3.org/2000/svg"
   xmlns:svg="http://www.w3.org/2000/svg"><defs
     id="defs3" /><polygon
     points="54.906235,13.237495 52.456284,13.237495 50.006256,13.237495 47.556305,13.237495 45.106277,13.237495 42.643738,13.237495 42.643738,15.687447 40.193787,15.687447 40.193787,18.137474 37.743759,18.137474 37.743759,20.587501 37.743759,23.037453 37.743759,25.48748 37.743759,27.937508 37.743759,30.387459 37.743759,32.837486 37.743759,35.287437 37.743759,37.737465 37.743759,40.187492 40.193787,40.187492 40.193787,42.649956 40.193787,45.099983 40.193787,47.550011 40.193787,49.999962 40.193787,52.449989 42.643738,52.449989 42.643738,54.89994 42.643738,57.349968 42.643738,59.799995 42.643738,62.249947 45.106277,62.249947 45.106277,64.699974 45.106277,67.150002 45.106277,69.599953 47.556305,69.599953 50.006256,69.599953 52.456284,69.599953 54.906235,69.599953 54.906235,67.150002 54.906235,64.699974 54.906235,62.249947 57.356262,62.249947 57.356262,59.799995 57.356262,57.349968 57.356262,54.89994 57.356262,52.449989 59.80629,52.449989 59.80629,49.999962 59.80629,47.550011 59.80629,45.099983 59.80629,42.649956 59.80629,40.187492 62.256241,40.187492 62.256241,37.737465 62.256241,35.287437 62.256241,32.837486 62.256241,30.387459 62.256241,27.937508 62.256241,25.48748 62.256241,23.037453 62.256241,20.587501 62.256241,18.137474 59.80629,18.137474 59.80629,15.687447 57.356262,15.687447 57.356262,13.237495 "
     id="polygon1"
     transform="translate(-37.743759,-13.237495)"
     style="fill:#ffffff" /><polygon
     points="45.106277,74.512444 45.106277,76.962471 42.643738,76.962471 42.643738,79.412498 42.643738,81.86245 42.643738,84.312477 45.106277,84.312477 45.106277,86.762505 47.556305,86.762505 50.006256,86.762505 52.456284,86.762505 54.906235,86.762505 54.906235,84.312477 57.356262,84.312477 57.356262,81.86245 57.356262,79.412498 57.356262,76.962471 54.906235,76.962471 54.906235,74.512444 52.456284,74.512444 50.006256,74.512444 47.556305,74.512444 "
     id="polygon2"
     transform="translate(-37.743759,-13.237495)"
     style="fill:#ffffff" /></svg>
