<?xml version="1.0" encoding="UTF-8" standalone="no"?>
<!-- Created with Inkscape (http://www.inkscape.org/) -->

<svg
   width="1024.0001"
   height="301.51221"
   viewBox="0 0 270.93336 79.775106"
   version="1.1"
   id="svg1"
   inkscape:version="1.3.2 (091e20ef0f, 2023-11-25)"
   sodipodi:docname="Mobile-prototype.svg"
   xml:space="preserve"
   xmlns:inkscape="http://www.inkscape.org/namespaces/inkscape"
   xmlns:sodipodi="http://sodipodi.sourceforge.net/DTD/sodipodi-0.dtd"
   xmlns="http://www.w3.org/2000/svg"
   xmlns:svg="http://www.w3.org/2000/svg"><sodipodi:namedview
     id="namedview1"
     pagecolor="#ffffff"
     bordercolor="#000000"
     borderopacity="0.25"
     inkscape:showpageshadow="2"
     inkscape:pageopacity="0.0"
     inkscape:pagecheckerboard="0"
     inkscape:deskcolor="#333333"
     inkscape:document-units="mm"
     inkscape:zoom="0.20012138"
     inkscape:cx="1166.7919"
     inkscape:cy="1728.9507"
     inkscape:window-width="1336"
     inkscape:window-height="701"
     inkscape:window-x="15"
     inkscape:window-y="15"
     inkscape:window-maximized="1"
     inkscape:current-layer="layer1" /><defs
     id="defs1" /><g
     inkscape:label="Layer 1"
     inkscape:groupmode="layer"
     id="layer1"
     transform="translate(-410.81043,-1913.406)"><path
       id="path1562"
       style="fill:#1e1e2e;fill-opacity:1;stroke-width:0.602073"
       d="m 681.74376,1913.406 v 28.5986 18.0621 h -1.50529 v 1.5052 h 1.50529 v 12.0417 h -1.50529 v -3.0106 h -1.50528 v 1.5053 h -1.50461 v 1.5053 H 674.218 v -1.5053 h 1.50529 v -1.5053 h 1.50529 v -3.0106 h 3.00989 v -1.5052 h -3.00989 v 1.5052 h -1.50529 v 3.0106 h -3.01059 v 1.5053 h -1.50529 v -3.0105 h -1.50529 v -1.5054 h 1.50529 v -1.5052 h 3.01059 v -1.5046 h -3.01059 v -3.0107 h -1.50529 v 3.0107 h -1.50529 v -3.0107 h -1.50461 v 3.0107 h -1.50528 v 1.5046 h -1.50529 v -3.01 h -1.50531 v 3.01 h 1.50531 v 1.5052 h 1.50529 v -1.5052 h 1.50528 v 1.5052 h 1.50461 v 1.5054 h 1.50529 v 1.5052 h -3.0099 v -1.5052 h -1.50528 v 1.5052 h -1.50529 v -1.5052 h -1.50531 v 1.5052 h -1.50528 v -1.5052 h -3.0099 v 1.5052 h -1.50529 v -1.5052 h -1.5053 v -1.5054 h -1.50529 v 1.5054 h 1.50529 v 1.5052 h 1.5053 v 1.5053 h -1.5053 v 1.5053 h -1.50529 v 1.5046 h -1.50529 v -1.5046 h -1.50529 v -1.5053 h -1.50528 v -3.0105 h 1.50528 v 1.5052 h 1.50529 v 1.5053 h 1.50529 v -1.5053 h -1.50529 v -1.5052 h -1.50529 v -3.0108 h -1.50528 v 3.0108 h -3.0099 v 1.5052 h 1.50529 v 1.5053 h -1.50529 v 1.5053 h -4.51588 v -3.0106 h 1.50529 v 1.5053 h 1.50528 v -1.5053 h -1.50528 v -1.5052 h 1.50528 v -1.5054 h -1.50528 v 1.5054 h -1.50529 v 1.5052 h -1.5053 v -1.5052 h -3.0099 v -1.5054 h 1.5053 v -1.5054 h -1.5053 v 1.5054 h -3.01058 v 1.5054 h -1.50529 v -1.5054 h -1.50528 v -3.0099 h -1.50461 v 3.0099 h -1.5053 -4.51587 v -1.5054 h 3.01057 v -1.5045 h 1.5053 v -1.5053 h 1.5053 v -1.5053 h 1.50461 v 1.5053 h 1.50528 v -1.5053 h -1.50528 v -1.5052 h -1.50461 v -1.5054 h -1.5053 -1.5053 v 1.5054 h 1.5053 1.5053 v 1.5052 h -1.5053 -1.5053 v 3.0107 h -1.50528 v -3.0107 h -1.50529 v -1.5052 h 1.50529 v -1.5054 h -1.50529 v -1.5052 h 1.50529 v -1.5054 h 1.50528 v 1.5054 h 1.5053 v -1.5054 h -1.5053 v -3.0098 h -1.50528 v 3.0098 h -1.50529 v 1.5054 h -1.5053 v -1.5054 h -3.0099 v -1.5046 h -1.50529 v 1.5046 h 1.50529 v 1.5054 h -3.01058 v 1.5052 h -1.50529 v -1.5052 h -1.50528 v -1.5054 h -1.50531 v 1.5054 h 1.50531 v 1.5052 h -1.50531 v 1.5054 h 1.50531 v -1.5054 h 1.50528 v 3.0106 h -4.51519 v -1.5052 h -1.5053 v -1.5054 h 1.5053 v -1.5052 h -3.01058 v -3.01 h -1.50529 v 3.01 h -1.5053 v 1.5052 h -1.50529 v 1.5054 h 1.50529 v -1.5054 h 1.5053 v -1.5052 h 1.50529 v 3.0106 h -1.50529 v 1.5052 h -1.5053 v 1.5053 h -1.50529 v -1.5053 h -1.50529 v -1.5052 h -1.50461 v -1.5054 h 1.50461 v -1.5052 h 1.50529 v -1.5054 h -1.50529 v 1.5054 h -1.50461 v 1.5052 h -1.50528 v -1.5052 h -3.01058 v 1.5052 h -1.50531 v -1.5052 h -1.50529 v 1.5052 h -1.50461 v -1.5052 h -1.50528 v 1.5052 h -3.0106 v -1.5052 h 1.50531 v -1.5054 h 1.50529 v -1.5046 h 1.50528 v 1.5046 h 1.50461 v -1.5046 h 1.50529 v -3.0106 h -1.50529 v 3.0106 h -1.50461 v -1.5052 h -1.50528 v -3.0106 h -1.50529 v 3.0106 h -1.50531 v -3.0106 h -1.50528 v 3.0106 h -3.01058 v 1.5052 h 3.01058 v 1.5046 h 1.50528 v 1.5054 h -1.50528 v 3.0106 h -1.50529 v -1.5054 h -3.00989 v -3.0106 h -1.50531 v -1.5046 h -3.01057 v 1.5046 h 3.01057 v 3.0106 h 1.50531 v 1.5054 h 1.5046 v 1.5052 h -3.00991 v -1.5052 h -1.50529 v -1.5054 h -1.50528 v 3.0106 h -1.5053 -1.50528 v -1.5052 h 1.50528 v -1.5054 h -1.50528 v -1.5052 h 1.50528 v -1.5054 h -4.51518 v -1.5046 h 3.0099 v -1.5052 h 1.50528 v -3.0106 h 1.5053 v -1.5053 h -1.5053 v -1.5053 h -1.50528 v 1.5053 h 1.50528 v 1.5053 h -1.50528 v 3.0106 h -1.50461 v -3.0106 h -1.50529 v -1.5053 h 1.50529 v -1.5053 h -1.50529 v -1.5046 h 1.50529 v -1.5053 h 1.50461 v 1.5053 h 1.50528 v -1.5053 h -1.50528 v -3.0106 h -1.50461 v 3.0106 h -1.50529 v 1.5053 h -1.50531 v -1.5053 h -3.01057 v -1.5052 h -1.50529 v 1.5052 h 1.50529 v 1.5053 h -3.01059 v 1.5046 h -1.50461 v -1.5046 h -1.50528 v -1.5053 h -1.50529 v 1.5053 h 1.50529 v 1.5046 h -1.50529 v 1.5053 h 1.50529 v -1.5053 h 1.50528 v 3.0106 h -4.51586 v -1.5053 h -1.50528 v -1.5053 h 1.50528 v -1.5046 h -3.01059 v -3.0105 h -1.5046 v 3.0105 h -1.50531 v 1.5046 h -1.50528 v 1.5053 h 1.50528 v -1.5053 h 1.50531 v -1.5046 h 1.5046 v 3.0099 h -1.5046 v 1.5053 h -1.50531 v 1.5052 h -1.50528 v -1.5052 h -1.50529 v -1.5053 h -1.5053 v -1.5053 h 1.5053 v -1.5046 h 1.50529 v -1.5053 h -1.50529 v 1.5053 h -1.5053 v 1.5046 h -1.50529 v -1.5046 h -3.0099 v 1.5046 h -1.50527 v -1.5046 h -1.50531 v 1.5046 h -1.50528 v -1.5046 h -1.50529 v 1.5046 h -3.0099 v -1.5046 h 1.50459 v -1.5053 h 1.50531 v -1.5052 h 1.50529 v 1.5052 h 1.50528 v -1.5052 h 1.50531 v -3.0106 h -1.50531 v 3.0106 h -1.50528 v -1.5054 h -1.50529 v -3.0106 h -1.50531 v 3.0106 h -1.50459 v -3.0106 h -1.5053 v 3.0106 h -3.01058 v 1.5054 h 3.01058 v 1.5052 h 1.5053 v 1.5053 h -1.5053 v 3.0099 h -1.50529 v -1.5053 h -3.01058 v -3.0099 h -1.5053 v -1.5052 h -3.00988 v 1.5052 h 3.00988 v 3.0099 h 1.5053 v 1.5053 h 1.50529 v 1.5053 h -3.01059 v -1.5053 h -1.50529 v -1.5053 h -1.50459 v 3.0106 h -1.50531 v 1.5052 h 3.0099 v 1.5054 h -3.0099 v 3.0098 h 1.50531 v 1.5054 h -1.50531 v 1.5052 h -1.50528 v -3.0106 h -1.50529 v 1.5054 h -1.50531 v 1.5052 h -3.00989 v -1.5052 h 1.50461 v -1.5054 h 1.50528 v -3.0098 h 3.0106 v -1.5054 h -3.0106 v 1.5054 h -1.50528 v 3.0098 h -3.00991 v 1.5054 h -1.50528 v -3.01 h -1.50531 v -1.5052 h 1.50531 v -1.5054 h 3.01058 v -1.5052 h -3.01058 v -3.0106 h -1.50531 v 3.0106 h -1.50529 v -3.0106 h -1.50529 v 3.0106 h -1.50459 v 1.5052 h -1.50531 v -3.0105 h -1.50529 v 3.0105 h 1.50529 v 1.5054 h 1.50531 v -1.5054 h 1.50459 v 1.5054 h 1.50529 v 1.5052 h 1.50529 v 1.5046 h -3.01058 v -1.5046 h -1.50459 v 1.5046 h -1.50531 v -1.5046 h -1.50529 v 1.5046 h -1.50528 v -1.5046 h -3.01059 v 1.5046 h -1.50529 v -1.5046 h -1.50461 v -1.5052 h -1.50529 v 1.5052 h 1.50529 v 1.5046 h 1.50461 v 1.5054 h -1.50461 v 1.5052 h -1.50529 v 1.5054 h -1.50529 v -1.5054 h -1.50529 v -1.5052 h -1.50528 v -3.01 h 1.50528 v 1.5046 h 1.50529 v 1.5054 h 1.50529 v -1.5054 h -1.50529 v -1.5046 h -1.50529 v -3.0106 h -1.50528 v 3.0106 h -3.00992 v 1.5046 h 1.50461 v 1.5054 h -1.50461 v 1.5052 h -4.51588 v -3.0106 h 1.50531 v 1.5054 h 1.50528 v -1.5054 h -1.50528 v -1.5046 h 1.50528 v -1.5052 h -1.50528 v 1.5052 h -1.50531 v 1.5046 h -1.50528 v -1.5046 h -3.0106 v -1.5052 h 1.50531 v -1.5054 h -1.50531 v 1.5054 H 471.018 v 1.5052 h -1.5053 v -1.5052 h -1.50528 v -3.0106 h -1.5053 v 3.0106 h -1.5053 -1.5046 v -1.5054 h 1.5046 v -3.0105 h 1.5053 v -1.5053 h 1.5053 v 1.5053 h 1.50528 v -1.5053 h -1.50528 v -1.5046 h -1.5053 v -1.5053 h -1.5053 v 1.5053 h -1.5046 v -3.0105 h -1.50528 v 1.5052 h -1.50531 v 1.5053 h -3.01057 v -1.5053 h 1.50529 v -1.5052 h 1.50528 v -3.0106 h 3.01059 v -1.5054 h -3.01059 v 1.5054 h -1.50528 v 3.0106 h -3.0106 v 1.5052 h -1.50528 v -3.0106 h -1.50461 v -1.5052 h 1.50461 v -1.5054 h 3.01059 v -1.5052 h -3.01059 v -3.01 h -1.50461 v 3.01 h -1.50529 v -3.01 h -1.50528 v 3.01 h -1.5053 v 1.5052 h -1.5053 v -3.0099 h -1.50528 v 3.0099 h 1.50528 v 1.5054 h 1.5053 v -1.5054 h 1.5053 v 1.5054 h 1.50528 v 1.5052 h 1.50529 v 1.5054 h -3.01057 v -1.5054 h -1.5053 v 1.5054 h -1.5053 v -1.5054 h -1.50528 v 1.5054 h -1.5046 v -1.5054 h -3.01059 v 1.5054 h -1.50529 v -1.5054 h -1.50531 v -1.5052 h -1.50528 v 1.5052 h 1.50528 v 1.5054 h 1.50531 v 1.5052 h -1.50531 v 1.5053 h -1.50528 v 1.5046 h -1.50529 v -1.5046 h -1.50461 v -1.5053 h -1.50528 v -3.0106 h 1.50528 v 1.5054 h 1.50461 v 1.5052 h 1.50529 v -1.5052 h -1.50529 v -1.5054 h -1.50461 v -3.0106 h -1.50528 v 3.0106 h -3.0106 v 1.5054 h 1.5053 v 1.5052 h -1.5053 v 1.5053 h -4.51518 v -3.0105 h 1.5046 v 1.5052 h 1.5053 v -1.5052 h -1.5053 v -1.5054 h 1.5053 v -1.5052 h -1.5053 v 1.5052 h -1.5046 v 1.5054 h -1.50529 v -1.5054 h -3.01058 v -1.5052 h 1.50529 v -1.5054 h -1.50529 v 1.5054 h -3.01059 v 1.5052 h -1.50531 v -1.5052 h -1.50458 v -3.0106 h -1.5053 v 3.0106 h -1.5053 v -4.5153 h 1.5053 v -1.5053 h 1.5053 v 1.5053 h 1.50458 v -1.5053 h -1.50458 v -1.5052 h -1.5053 v -1.5053 h -1.5053 v -16.5569 h 54.18639 54.18709 54.18639 54.18708 z m -269.42803,18.0622 v 1.5052 h -1.5053 v -1.5052 z m 0,7.5258 h 1.5053 v 1.5052 h 1.50458 v 1.5054 h -1.50458 v 1.5052 h 1.50458 v 1.5053 h -1.50458 v 3.0099 h -1.5053 v -3.0099 h -1.5053 v -1.5053 h 1.5053 v -1.5052 h -1.5053 v -1.5054 h 1.5053 z m 0,9.031 v 1.5053 h 3.00988 v 1.5052 h -4.51518 v -3.0105 z m 3.00988,3.0105 h 1.50531 v 1.5054 h -1.50531 z m 0,1.5054 v 1.5052 h -1.50458 v -1.5052 z m -1.50458,1.5052 v 1.5046 h -1.5053 v -1.5046 z m -1.5053,0 h -1.5053 v -1.5052 h 1.5053 z m 0,1.5046 v 1.5054 h -1.5053 v -1.5054 z m 0,1.5054 h 1.5053 v 1.5052 h -1.5053 z m 3.00988,-3.01 h 1.50531 v 3.01 h -1.50531 z m 1.50531,0 v -1.5052 h 1.50529 v 1.5052 z m 1.50529,0 h 1.5053 v 1.5046 h -1.5053 z m 1.5053,0 v -1.5052 h 1.50529 v 1.5052 z m 0,-1.5052 h -1.5053 v -1.5054 h 1.5053 z m 0,-1.5054 v -3.0105 h 1.50529 v 3.0105 z m 1.50529,-3.0105 v -1.5053 h -1.50529 v -1.5046 h 1.50529 v -1.5053 h -1.50529 v -1.5052 h 1.50529 1.50529 v 3.0105 h 1.50529 v 1.5046 h -1.50529 v 1.5053 z m 1.50529,0 h 1.50529 v 1.5053 h -1.50529 z m 1.50529,1.5053 h 1.5046 v 1.5052 h -1.5046 z m 0,-1.5053 v -1.5053 h 3.0099 v 1.5053 z m 3.0099,0 h 1.50528 v 1.5053 h -1.50528 z m -7.52577,-6.0204 h -3.01059 v -1.5054 h 3.01059 z m -3.01059,0 v 1.5052 h -1.50531 v -1.5052 z m 0,1.5052 h 3.01059 v 1.5053 h -3.01059 z m 0,1.5053 v 1.5046 h -1.50531 v -1.5046 z m 0,1.5046 h 3.01059 v 1.5053 h -3.01059 z m 0,1.5053 v 1.5053 h -1.50531 v -1.5053 z m 0,1.5053 h 1.50529 v 1.5052 h -1.50529 z m 12.04164,-4.5152 h 1.5053 v 1.5046 h -1.5053 z m 1.5053,0 v -1.5053 h 1.5053 v 1.5053 z m 6.02048,1.5046 h 1.50528 v 1.5053 h -1.50528 z m 0,1.5053 v 1.5053 h -3.0099 v -1.5053 z m -3.0099,0 h -1.50528 v -1.5053 h 1.50528 z m -1.50528,0 v 1.5053 h -1.5053 v -1.5053 z m 0,1.5053 h 1.50528 v 1.5052 h -1.50528 z m 1.50528,1.5052 h 1.50461 v 1.5054 h -1.50461 z m 3.0099,-1.5052 h 1.50528 v 3.0106 h -1.50528 z m 1.50528,-3.0106 v -1.5046 h 1.50531 v 1.5046 z m 1.50531,0 h 1.50529 v 1.5053 h -1.50529 z m 1.50529,1.5053 h 1.50529 v 1.5053 h -1.50529 z m 1.50529,1.5053 h 1.5053 v 1.5052 h -1.5053 z m 0,1.5052 v 1.5054 h -1.50529 v -1.5054 z m -1.50529,1.5054 v 1.5052 h -1.50529 v -1.5052 z m 0,1.5052 h 1.50529 v 1.5046 h -1.50529 z m 0,1.5046 v 1.5054 h -1.50529 v -1.5054 z m 3.01059,-4.5152 h 1.5046 v 1.5054 h -1.5046 z m 1.5046,1.5054 h 1.50528 v 1.5052 h -1.50528 z m 0,1.5052 v 1.5046 h -1.5046 v -1.5046 z m 0,-3.0106 v -1.5052 h 3.01058 v 1.5052 z m 3.01058,-1.5052 v -3.0106 h 1.5053 v 3.0106 z m 1.5053,0 h 1.50528 v 1.5052 h -1.50528 z m 1.50528,1.5052 h 1.50529 v 1.5054 h -1.50529 z m 1.50529,1.5054 h 1.50461 v 1.5052 h -1.50461 z m 1.50461,1.5052 h 1.50528 v 1.5046 h -1.50528 z m 1.50528,0 v -1.5052 h 1.50531 v 1.5052 z m 1.50531,-1.5052 v -1.5054 h 1.50529 v 1.5054 z m 1.50529,-1.5054 v -1.5052 h 1.50528 v 1.5052 z m 1.50528,0 h 1.50531 v 1.5054 h -1.50531 z m 1.50531,1.5054 h 1.50528 v 1.5052 h -1.50528 z m -3.01059,-3.0106 h -1.50529 v 1.5052 h -1.50531 v -1.5052 h -1.50528 v -1.5053 h 3.01059 v -1.5053 h 1.50529 v 1.5053 z m -1.50529,-3.0106 h -3.01059 v -1.5046 h 3.01059 z m -3.01059,0 v 1.5053 h -1.50461 v -1.5053 z m -1.50461,0 h -1.50529 v -3.0099 h 1.50529 z m 0,1.5053 v 1.5053 h -1.50529 v -1.5053 z m 0,1.5053 h 1.50461 v 1.5052 h -1.50461 z m 1.50461,1.5052 h 1.50528 v 1.5054 h -1.50528 z m -6.02048,-4.5158 h -1.5053 v -1.5046 h 1.5053 z m 0,-1.5046 v -1.5053 -1.5052 h 1.5053 v 1.5052 1.5053 z m -1.5053,1.5046 v 1.5053 h -1.50528 v -1.5053 z m -1.50528,0 h -1.5046 v -1.5046 h 1.5046 z m -1.5046,0 v 1.5053 h -1.5053 v -1.5053 z m -1.5053,0 h -1.50529 v -1.5046 h 1.50529 z m -1.50529,-1.5046 h -1.50529 v -1.5053 h 1.50529 z m 0,-1.5053 v -1.5052 h 3.01059 v 1.5052 z m 3.01059,4.5152 h 1.5046 v 1.5053 h -1.5046 z m 1.5046,-6.0204 h 1.50528 v 1.5052 h -1.50528 z m 6.02116,-3.0106 v -1.5054 h 1.50529 v 1.5054 z m 1.50529,-1.5054 v -1.5052 h 1.50461 v 1.5052 z m -1.50529,0 h -1.50528 v -1.5052 h 1.50528 z m 9.03106,7.5265 h 1.50531 v 1.5046 h -1.50531 z m 1.50531,1.5046 h 3.00988 v 1.5053 h -3.00988 z m 3.00988,0 v -1.5046 h 1.5053 v 1.5046 z m 1.5053,6.0212 h 1.5053 v 1.5052 h 1.50528 v 1.5046 h -1.50528 v 1.5054 h 1.50528 v 1.5052 h -1.50528 v 3.0106 h -1.5053 v -3.0106 h -1.5053 v -1.5052 h 1.5053 v -1.5054 h -1.5053 v -1.5046 h 1.5053 z m -1.5053,6.0204 v 1.5054 h -1.5046 v -1.5054 z m 1.5053,3.0106 v 1.5053 h 3.01058 v 1.5053 h -4.51588 v -3.0106 z m 3.01058,3.0107 h 1.5053 v 1.5046 h -1.5053 z m 0,1.5046 v 1.5052 h -1.50528 v -1.5052 z m -1.50528,1.5052 v 1.5054 h -1.5053 v -1.5054 z m -1.5053,0 h -1.5053 v -1.5052 h 1.5053 z m 0,1.5054 v 1.5052 h -1.5053 v -1.5052 z m 0,1.5052 h 1.5053 v 1.5053 h -1.5053 z m 3.01058,-3.0106 h 1.5053 v 3.0106 h -1.5053 z m 1.5053,0 v -1.5052 h 1.50529 v 1.5052 z m 1.50529,0 h 1.50459 v 1.5054 h -1.50459 z m 1.50459,0 v -1.5052 h 1.50531 v 1.5052 z m 0,-1.5052 h -1.50459 v -1.5046 h 1.50459 z m 0,-1.5046 v -3.0107 h 1.50531 v 3.0107 z m 1.50531,-3.0107 v -1.5052 h -1.50531 v -1.5054 h 1.50531 v -1.5052 h -1.50531 v -1.5054 h 1.50531 1.50529 v 3.0106 h 1.50528 v 1.5054 h -1.50528 v 1.5052 z m 1.50529,0 h 1.50528 v 1.5053 h -1.50528 z m 1.50528,1.5053 h 1.50531 v 1.5054 h -1.50531 z m 0,-1.5053 v -1.5052 h 3.01059 v 1.5052 z m 3.01059,0 h 1.50529 v 1.5053 h -1.50529 z m -7.52647,-6.0212 H 471.018 v -1.5046 h 3.00988 z m -3.00988,0 v 1.5054 h -1.5053 v -1.5054 z m 0,1.5054 h 3.00988 v 1.5052 H 471.018 Z m 0,1.5052 v 1.5054 h -1.5053 v -1.5054 z m 0,1.5054 h 3.00988 v 1.5052 H 471.018 Z m 0,1.5052 v 1.5053 h -1.5053 v -1.5053 z m 0,1.5053 h 1.50529 v 1.5054 H 471.018 Z m 12.04164,-4.5159 h 1.50461 v 1.5054 h -1.50461 z m 1.50461,0 v -1.5052 h 1.50531 v 1.5052 z m 6.02117,1.5054 h 1.50529 v 1.5052 h -1.50529 z m 0,1.5052 v 1.5053 h -3.01058 v -1.5053 z m -3.01058,0 h -1.50528 v -1.5052 h 1.50528 z m -1.50528,0 v 1.5053 h -1.50531 v -1.5053 z m 0,1.5053 h 1.50528 v 1.5054 h -1.50528 z m 1.50528,1.5054 h 1.50529 v 1.5046 h -1.50529 z m 3.01058,-1.5054 h 1.50529 v 3.01 h -1.50529 z m 1.50529,-3.0105 v -1.5054 h 1.50461 v 1.5054 z m 1.50461,0 h 1.50529 v 1.5052 h -1.50529 z m 1.50529,1.5052 h 1.50528 v 1.5053 h -1.50528 z m 1.50528,1.5053 h 1.50531 v 1.5054 h -1.50531 z m 0,1.5054 v 1.5046 h -1.50528 v -1.5046 z m -1.50528,1.5046 v 1.5052 h -1.50529 v -1.5052 z m 0,1.5052 h 1.50528 v 1.5054 h -1.50528 z m 0,1.5054 v 1.5052 h -1.50529 v -1.5052 z m 3.01059,-4.5153 h 1.50528 v 1.5045 h -1.50528 z m 1.50528,1.5045 h 1.50529 v 1.5054 h -1.50529 z m 0,1.5054 v 1.5054 h -1.50528 v -1.5054 z m 0,-3.0099 v -1.5053 h 3.0106 v 1.5053 z m 3.0106,-1.5053 v -3.0105 h 1.50459 v 3.0105 z m 1.50459,0 h 1.50529 v 1.5053 h -1.50529 z m 1.50529,1.5053 h 1.50529 v 1.5045 h -1.50529 z m 1.50529,1.5045 h 1.50531 v 1.5054 h -1.50531 z m 1.50531,1.5054 h 1.50528 v 1.5054 h -1.50528 z m 1.50528,0 v -1.5054 h 1.5053 v 1.5054 z m 1.5053,-1.5054 v -1.5045 h 1.50461 v 1.5045 z m 1.50461,-1.5045 v -1.5053 h 1.50528 v 1.5053 z m 1.50528,0 h 1.50531 v 1.5045 h -1.50531 z m 1.50531,1.5045 h 1.50529 v 1.5054 h -1.50529 z m 1.50529,0 v -1.5045 h 1.50528 v 1.5045 z m 1.50528,-1.5045 v -1.5053 h 1.50531 v 1.5053 z m -6.02116,-1.5053 h -1.50461 v 1.5053 h -1.5053 v -1.5053 h -1.50528 v -1.5053 h 3.01058 v -1.5052 h 1.50461 v 1.5052 z m -1.50461,-3.0105 h -3.01058 v -1.5054 h 3.01058 z m -3.01058,0 v 1.5052 h -1.50531 v -1.5052 z m -1.50531,0 h -1.50529 v -3.0106 h 1.50529 z m 0,1.5052 v 1.5053 h -1.50529 v -1.5053 z m 0,1.5053 h 1.50531 v 1.5053 h -1.50531 z m 1.50531,1.5053 h 1.50528 v 1.5045 h -1.50528 z m -6.02048,-4.5158 h -1.50531 v -1.5054 h 1.50531 z m 0,-1.5054 v -1.5052 -1.5054 h 1.50459 v 1.5054 1.5052 z m -1.50531,1.5054 v 1.5052 h -1.50529 v -1.5052 z m -1.50529,0 h -1.50528 v -1.5054 h 1.50528 z m -1.50528,0 v 1.5052 h -1.50531 v -1.5052 z m -1.50531,0 h -1.50528 v -1.5054 h 1.50528 z m -1.50528,-1.5054 h -1.50529 v -1.5052 h 1.50529 z m 0,-1.5052 v -1.5054 h 3.01059 v 1.5054 z m 3.01059,4.5158 h 1.50528 v 1.5053 h -1.50528 z m 1.50528,-6.0212 h 1.50529 v 1.5054 h -1.50529 z m 6.02048,-3.0098 v -1.5054 h 1.50529 v 1.5054 z m 1.50529,-1.5054 v -1.5052 h 1.50531 v 1.5052 z m -1.50529,0 h -1.50529 v -1.5052 h 1.50529 z m 9.03107,7.5258 h 1.50531 v 1.5054 h -1.50531 z m 1.50531,1.5054 h 3.01057 v 1.5052 h -3.01057 z m 4.51588,-3.0106 h 1.50459 v 1.5052 h -1.50459 z m 1.50459,0 v -1.5054 h 1.50529 v 1.5054 z m 1.50529,-1.5054 v -1.5046 h 1.5053 v 1.5046 z m 1.5053,0 h 1.50529 v 1.5054 h -1.50529 z m 1.50529,1.5054 h 1.50529 v 1.5052 h -1.50529 z m 1.50529,1.5052 h 1.50529 v 1.5054 h -1.50529 z m 1.50529,0 v -1.5052 h 1.5053 v 1.5052 z m 1.5053,-1.5052 v -1.5054 h 1.50459 v 1.5054 z m 1.50459,-1.5054 v -1.5046 h 1.50531 v 1.5046 z m 1.50531,-1.5046 v -3.0106 h 1.50529 v 3.0106 z m 1.50529,0 h 3.01059 v 1.5046 h -3.01059 z m 3.01059,1.5046 h 1.50527 v 1.5054 h -1.50527 z m 0,1.5054 v 1.5052 h -1.50531 v -1.5052 z m 0,1.5052 h 1.50527 v 1.5054 h -1.50527 z m 1.50527,-3.0106 v -1.5046 h 1.50461 v 1.5046 z m 1.50461,0 h 1.50529 v 1.5054 h -1.50529 z m 1.50529,1.5054 h 1.50529 v 1.5052 h -1.50529 z m 0,1.5052 v 1.5054 h -1.50529 v -1.5054 z m 0,1.5054 h 1.50529 v 1.5052 h -1.50529 z m -1.50529,-6.0206 v -1.5052 h 1.50529 v 1.5052 z m 1.50529,-1.5052 v -1.5054 h 1.50529 v 1.5054 z m 1.50529,-1.5054 v -1.5052 h 1.5053 v 1.5052 z m 1.5053,0 h 1.50529 v 1.5054 h -1.50529 z m 1.50529,1.5054 h 3.01059 v 1.5052 h -3.01059 z m 0,1.5052 v 3.01 h -1.50529 v -3.01 z m 3.01059,0 h 1.5046 v 1.5046 h -1.5046 z m 0,1.5046 v 1.5054 h -1.50531 v -1.5054 z m 1.5046,-1.5046 v -1.5052 h 1.50531 v 1.5052 z m 0,-1.5052 h -1.5046 v -1.5054 h 1.5046 z m -7.52578,-3.0106 h -1.50529 v -1.5053 h 1.50529 z m -1.50529,-1.5053 h -3.0099 v -1.5053 h 3.0099 z m 0,1.5053 v 1.5052 h -1.50529 v -1.5052 z m -1.50529,1.5052 v 1.5054 h -1.50461 v -1.5054 z m -1.50461,0 h -1.50527 v -1.5052 h 1.50527 z m -1.50527,0 v 1.5054 h -1.50531 v -1.5054 z m -1.50531,0 h -1.50528 v -1.5052 h 1.50528 z m -1.50528,-1.5052 h -1.50529 v -1.5053 -1.5053 h 1.50529 v 1.5053 z m 3.01059,3.0106 h 1.50527 v 1.5052 h -1.50527 z m -6.02119,1.5052 h -1.50459 v -1.5052 h 1.50459 z m -1.50459,-1.5052 h -1.5053 v -1.5054 h 1.5053 z m 0,-1.5054 v -3.0105 h 1.50459 v 3.0105 z m -1.5053,0 h -3.01058 v -1.5052 h 3.01058 z m -3.01058,0 v 1.5054 h 3.01058 v 1.5052 h -1.50529 v 1.5046 h -1.50529 v -1.5046 h -1.50529 v -1.5052 -1.5054 z m 1.50529,4.5152 h 1.50529 v 1.5054 h -1.50529 z m 1.50529,0 v -1.5046 h 1.5053 v 1.5046 z m -7.52646,-4.5152 v -1.5052 h 1.50529 v 1.5052 z m 9.03176,-7.5257 v -1.5052 h 1.50459 v 1.5052 z m 1.50459,-1.5052 v -1.5054 h 1.50531 v 1.5054 z m -1.50459,0 h -1.5053 v -1.5054 h 1.5053 z m 6.02047,4.5151 h 1.50531 v 1.5053 h -1.50531 z m 15.05155,1.5053 h 1.50531 v 1.5053 h -1.50531 z m 1.50531,1.5053 h 1.50528 v 1.5052 h -1.50528 z m 6.02114,0 h 1.50461 v -3.0106 h 1.5053 1.50529 v 1.5053 h -1.50529 v 1.5053 h 1.50529 v 1.5052 h -1.50529 v 1.5054 h -1.5053 v -1.5054 h -1.50461 z m 0,1.5052 v 1.5054 h -3.01057 v -1.5054 z m -3.01057,1.5054 v 1.5052 h -1.50529 v -1.5052 z m 3.01057,0 h 1.50461 v 1.5052 h -1.50461 z m 0,1.5052 v 1.5046 h -1.50528 v -1.5046 z m 3.00991,-1.5052 h 1.50529 v 3.0098 h -1.50529 z m 1.50529,3.0098 h 1.50529 v 1.5054 h -1.50529 z m 0,1.5054 v 1.5052 h -1.50529 v -1.5052 z m 0,1.5052 h 1.50529 v 1.5054 h -1.50529 z m 1.50529,0 v -1.5052 h 1.50528 v 1.5052 z m 1.50528,0 h 1.50531 v 3.0106 h -1.50531 z m 1.50531,0 v -1.5052 h 1.50529 v 1.5052 z m 1.50529,0 h 1.50461 v 1.5054 h -1.50461 z m -1.50529,-1.5052 h -1.50531 v -1.5054 h 1.50531 z m -1.50531,-1.5054 h -1.50528 v -1.5046 h 1.50528 z m 0,-1.5046 v -1.5052 h 1.50531 v 1.5052 z m 0,-1.5052 h -3.01057 v -1.5054 h 3.01057 z m 0,-1.5054 v -1.5052 h 1.50531 v 1.5052 z m 0,-1.5052 h -3.01057 v -1.5053 h 3.01057 z m 0,-1.5053 v -1.5053 h 1.50531 v 1.5053 z m 0,-1.5053 h -3.01057 v -1.5046 h 3.01057 z m 4.51521,15.0522 v 1.5053 h -1.50461 v -1.5053 z m 6.02115,0 v 1.5053 h -1.50529 v -1.5053 z m -1.50529,1.5053 v 1.5053 h -3.01058 v -1.5053 z m 4.5152,-1.5053 h 3.01058 v 1.5053 h -3.01058 z m 0,1.5053 v 1.5053 h 3.01058 v 1.5045 h -1.50529 v 1.5054 h -1.50529 v -1.5054 h -1.5046 v -1.5045 -1.5053 z m -1.5046,3.0098 v 1.5054 h -1.50531 v -1.5054 z m -1.50531,1.5054 v 1.5054 h -1.50529 v -1.5054 z m -1.50529,1.5054 v 1.5052 h -1.50528 v -1.5052 z m -1.50528,0 h -1.5053 v -1.5054 h 1.5053 z m 4.51588,-1.5054 h 1.5046 v 1.5054 h -1.5046 z m 1.5046,1.5054 h 1.50529 v 1.5052 h -1.50529 z m 1.50529,1.5052 h 1.50529 v 1.5053 h -1.50529 z m 1.50529,0 v -1.5052 h 1.50528 v 1.5052 z m 1.50528,-1.5052 v -1.5054 h 1.50531 v 1.5054 z m 1.50531,-1.5054 v -1.5054 h 1.50529 v 1.5054 z m 1.50529,-1.5054 v -3.0098 h 1.50528 v 3.0098 z m 1.50528,0 h 3.0099 v 1.5054 h -3.0099 z m 3.0099,1.5054 h 1.50531 v 1.5054 h -1.50531 z m 0,1.5054 v 1.5052 h -1.50529 v -1.5052 z m 0,1.5052 h 1.50531 v 1.5053 h -1.50531 z m 1.50531,-3.0106 v -1.5054 h 1.50527 v 1.5054 z m 1.50527,0 h 1.50531 v 1.5054 h -1.50531 z m 1.50531,1.5054 h 1.50528 v 1.5052 h -1.50528 z m 0,1.5052 v 1.5053 h -1.50531 v -1.5053 z m 0,1.5053 h 1.50528 v 1.5053 h -1.50528 z m -1.50531,-6.0213 v -1.5045 h 1.50531 v 1.5045 z m 1.50531,-1.5045 v -1.5053 h 1.50528 v 1.5053 z m 1.50528,-1.5053 v -1.5053 h 1.50461 v 1.5053 z m 1.50461,0 h 1.50529 v 1.5053 h -1.50529 z m 1.50529,1.5053 h 3.01059 v 1.5045 h -3.01059 z m 0,1.5045 v 3.0108 h -1.50529 v -3.0108 z m 3.01059,0 h 1.50529 v 1.5054 h -1.50529 z m 0,1.5054 v 1.5054 h -1.5053 v -1.5054 z m 1.50529,-1.5054 v -1.5045 h 1.50528 v 1.5045 z m 0,-1.5045 h -1.50529 v -1.5053 h 1.50529 z m -7.52578,-3.0106 h -1.50528 v -1.5052 h 1.50528 z m -1.50528,-1.5052 h -3.01058 v -1.5054 h 3.01058 z m 0,1.5052 v 1.5053 h -1.50531 v -1.5053 z m -1.50531,1.5053 v 1.5053 h -1.50527 v -1.5053 z m -1.50527,0 h -1.50531 v -1.5053 h 1.50531 z m -1.50531,0 v 1.5053 h -1.50529 v -1.5053 z m -1.50529,0 h -1.50461 v -1.5053 h 1.50461 z m -1.50461,-1.5053 h -1.50528 v -1.5052 -1.5054 h 1.50528 v 1.5054 z m 3.0099,3.0106 h 1.50531 v 1.5045 h -1.50531 z m -6.02047,1.5045 h -1.50531 v -1.5045 h 1.50531 z m -1.50531,-1.5045 h -1.50528 v -1.5053 h 1.50528 z m 0,-1.5053 v -3.0105 h 1.50531 v 3.0105 z m 0,3.0098 v 1.5054 h -1.50528 v -1.5054 z m -1.50528,1.5054 v 1.5054 h -1.50529 v -1.5054 z m 1.50528,-12.0417 v -1.5046 h 1.50531 v 1.5046 z m 1.50531,-1.5046 v -1.5052 h 1.50529 v 1.5052 z m -1.50531,0 h -1.50528 v -1.5052 h 1.50528 z m 6.02049,4.5152 h 1.50529 v 1.5054 h -1.50529 z m 15.05224,1.5054 h 1.50528 v 1.5052 h -1.50528 z m 1.50528,1.5052 h 1.5053 v 1.5053 h -1.5053 z m 6.02049,0 h 1.50529 v -3.0106 h 1.50529 1.50529 v 1.5054 h -1.50529 v 1.5052 h 1.50529 v 1.5053 h -1.50529 v 1.5053 h -1.50529 v -1.5053 h -1.50529 z m 0,1.5053 v 1.5053 h -3.01059 v -1.5053 z m -3.01059,1.5053 v 1.5045 h -1.5046 v -1.5045 z m 3.01059,0 h 1.50529 v 1.5045 h -1.50529 z m 0,1.5045 v 1.5054 h -1.50528 v -1.5054 z m 3.01058,-1.5045 h 1.50529 v 3.0099 h -1.50529 z m 1.50529,3.0099 h 1.50461 v 1.5054 h -1.50461 z m 0,1.5054 v 1.5052 h -1.50529 v -1.5052 z m 0,1.5052 h 1.50461 v 1.5053 h -1.50461 z m 1.50461,0 v -1.5052 h 1.50529 v 1.5052 z m 1.50529,0 h 1.5053 v 3.0106 h -1.5053 z m 1.5053,0 v -1.5052 h 1.50529 v 1.5052 z m 1.50529,0 h 1.50528 v 1.5053 h -1.50528 z m 1.50528,1.5053 h 1.5053 1.5053 v -1.5053 h -1.5053 -1.5053 v -1.5052 h 1.5053 1.5053 v -1.5054 h 1.50461 v 1.5054 h 1.50528 v 1.5052 h -1.50528 v 1.5053 h 1.50528 v 1.5053 h -1.50528 v 3.0099 h -1.50461 v -3.0099 h -1.5053 -1.5053 z m 0,1.5053 v 1.5046 h -1.50528 v -1.5046 z m 3.0106,3.0099 v 1.5052 h 3.00989 v 1.5054 h -4.51519 v -3.0106 z m 3.00989,3.0106 h 1.50529 v 1.5052 h -1.50529 z m 0,1.5052 v 1.5054 h -1.50528 v -1.5054 z m -1.50528,1.5054 v 1.5046 h -1.50461 v -1.5046 z m -1.50461,0 h -1.5053 v -1.5054 h 1.5053 z m 0,1.5046 v 1.5052 h -1.5053 v -1.5052 z m 0,1.5052 h 1.50461 v 1.5054 h -1.50461 z m 3.00989,-3.0098 h 1.50529 v 3.0098 h -1.50529 z m 1.50529,0 v -1.5054 h 1.50529 v 1.5054 z m 1.50529,0 h 1.50529 v 1.5046 h -1.50529 z m 1.50529,0 v -1.5054 h 1.5053 v 1.5054 z m 0,-1.5054 h -1.50529 v -1.5052 h 1.50529 z m 0,-1.5052 v -3.0106 h 1.5053 v 3.0106 z m 1.5053,-3.0106 v -1.5053 h -1.5053 v -1.5046 h 1.5053 v -1.5053 h -1.5053 v -1.5053 h 1.5053 1.5046 v 3.0106 h 1.5053 v 1.5046 h -1.5053 v 1.5053 z m 1.5046,0 h 1.5053 v 1.5052 h -1.5053 z m 1.5053,1.5052 h 1.50529 v 1.5054 h -1.50529 z m 0,-1.5052 v -1.5053 h 3.01057 v 1.5053 z m 3.01057,0 h 1.50531 v 1.5052 h -1.50531 z m -7.52577,-6.0205 h -3.01058 v -1.5052 h 3.01058 z m -3.01058,0 v 1.5053 h -1.50529 v -1.5053 z m 0,1.5053 h 3.01058 v 1.5053 h -3.01058 z m 0,1.5053 v 1.5046 h -1.50529 v -1.5046 z m 0,1.5046 h 3.01058 v 1.5053 h -3.01058 z m 0,1.5053 v 1.5052 h -1.50529 v -1.5052 z m 0,1.5052 h 1.50529 v 1.5054 h -1.50529 z m -10.53635,-9.0309 h -1.5053 v -1.5054 h 1.5053 z m -1.5053,-1.5054 h -1.50529 v -1.5054 h 1.50529 z m 0,-1.5054 v -1.5045 h 1.5053 v 1.5045 z m 0,-1.5045 h -3.0099 v -1.5053 h 3.0099 z m 0,-1.5053 v -1.5053 h 1.5053 v 1.5053 z m 0,-1.5053 h -3.0099 v -1.5052 h 3.0099 z m 0,-1.5052 v -1.5054 h 1.5053 v 1.5054 z m 0,-1.5054 h -3.0099 v -1.5052 h 3.0099 z m 24.08331,15.0523 h 1.50529 v 1.5046 h -1.50529 z m 1.50529,0 v -1.5053 h 1.50461 v 1.5053 z m 6.02047,1.5046 h 1.50529 v 1.5053 h -1.50529 z m 0,1.5053 v 1.5052 h -3.01058 v -1.5052 z m -3.01058,0 h -1.50528 v -1.5053 h 1.50528 z m -1.50528,0 v 1.5052 h -1.50461 v -1.5052 z m 0,1.5052 h 1.50528 v 1.5054 h -1.50528 z m 1.50528,1.5054 h 1.50529 v 1.5052 h -1.50529 z m 3.01058,-1.5054 h 1.50529 v 3.0106 h -1.50529 z m 1.50529,-3.0105 v -1.5046 h 1.5053 v 1.5046 z m 1.5053,0 h 1.50529 v 1.5053 h -1.50529 z m 1.50529,1.5053 h 1.5046 v 1.5052 h -1.5046 z m 1.5046,1.5052 h 1.5053 v 1.5054 h -1.5053 z m 0,1.5054 v 1.5052 h -1.5046 v -1.5052 z m -1.5046,1.5052 v 1.5054 h -1.50529 v -1.5054 z m 0,1.5054 h 1.5046 v 1.5046 h -1.5046 z m 0,1.5046 v 1.5052 h -1.50529 v -1.5052 z m 3.0099,-4.5152 h 1.50528 v 1.5052 h -1.50528 z m 1.50528,1.5052 h 1.50531 v 1.5054 h -1.50531 z m 0,1.5054 v 1.5046 h -1.50528 v -1.5046 z m 0,-3.0106 v -1.5054 h 3.0106 v 1.5054 z m 3.0106,-1.5054 v -3.0105 h 1.50528 v 3.0105 z m 1.50528,0 h 1.50461 v 1.5054 h -1.50461 z m 1.50461,1.5054 h 1.50529 v 1.5052 h -1.50529 z m 1.50529,1.5052 h 1.50529 v 1.5054 h -1.50529 z m 1.50529,1.5054 h 1.50529 v 1.5046 h -1.50529 z m 1.50529,0 v -1.5054 h 1.5053 v 1.5054 z m 1.5053,-1.5054 v -1.5052 h 1.50529 v 1.5052 z m 1.50529,-1.5052 v -1.5054 h 1.50529 v 1.5054 z m 1.50529,0 h 1.50461 v 1.5052 h -1.50461 z m 1.50461,1.5052 h 1.50528 v 1.5054 h -1.50528 z m 1.50528,0 v -1.5052 h 1.50529 v 1.5052 z m -4.51518,-3.0106 H 674.218 v 1.5054 h -1.5053 v -1.5054 h -1.50529 v -1.5052 h 3.01059 v -1.5053 h 1.50529 v 1.5053 z m -1.50529,-3.0105 h -3.01059 v -1.5046 h 3.01059 z m -3.01059,0 v 1.5053 h -1.50529 v -1.5053 z m -1.50529,0 h -1.50529 v -3.0099 h 1.50529 z m 0,1.5053 v 1.5052 h -1.50529 v -1.5052 z m 0,1.5052 h 1.50529 v 1.5054 h -1.50529 z m 1.50529,1.5054 h 1.50529 v 1.5052 h -1.50529 z m -6.02047,-4.5159 h -1.50529 v -1.5046 h 1.50529 z m 0,-1.5046 v -1.5053 -1.5053 h 1.50528 v 1.5053 1.5053 z m -1.50529,1.5046 v 1.5053 h -1.50531 v -1.5053 z m -1.50531,0 h -1.50528 v -1.5046 h 1.50528 z m -1.50528,0 v 1.5053 h -1.5053 v -1.5053 z m -1.5053,0 h -1.5046 v -1.5046 h 1.5046 z m -1.5046,-1.5046 h -1.50529 v -1.5053 h 1.50529 z m 0,-1.5053 v -1.5053 h 3.0099 v 1.5053 z m 3.0099,4.5152 h 1.50528 v 1.5052 h -1.50528 z m 1.50528,-6.0205 h 1.50531 v 1.5053 h -1.50531 z m 6.02049,-3.0106 v -1.5054 h 1.50529 v 1.5054 z m 1.50529,-1.5054 v -1.5045 h 1.50529 v 1.5045 z m -1.50529,0 h -1.50461 v -1.5045 h 1.50461 z m 9.03175,7.5266 h 1.50461 v 1.5046 h -1.50461 z m 1.50461,1.5046 h 3.01057 v 1.5053 h -3.01057 z m -225.77733,-54.1864 h -1.50529 v 1.5053 h -1.50528 v 1.5052 h 1.50528 v -1.5052 h 1.50529 z m -19.56742,0 h -1.50528 v 1.5053 h 1.50528 z m -18.06283,0 h -1.50458 v 1.5053 h -1.5053 v 1.5052 h 1.5053 v -1.5052 h 1.50458 v 1.5052 h 1.50531 v -1.5052 h -1.50531 z m 48.16661,1.5053 h -1.50528 v 1.5052 h 1.50528 z m -37.63024,0 h -1.5046 v 1.5052 h 1.5046 v 1.5054 h 1.5053 v -1.5054 h -1.5053 z m -4.51518,0 h -1.50529 v 1.5052 h 1.50529 z m 37.62955,1.5052 h -1.50529 v 1.5054 h 1.50529 z m -22.57801,0 h -1.50529 v 1.5054 h -1.50461 v 1.5046 h 1.50461 v 1.5053 h 1.50529 v -1.5053 h -1.50529 v -1.5046 h 1.50529 z m 133.96207,1.5054 h -1.50529 v 1.5046 h -1.50531 v 1.5053 h 1.50531 v -1.5053 h 1.50529 v 1.5053 h 1.50461 v -1.5053 h -1.50461 z m -18.06282,0 h -1.5046 v 1.5046 h 1.5046 z m -19.56743,0 h -1.50459 v 1.5046 h 1.50459 v 1.5053 h 1.50531 v -1.5053 h -1.50531 z m -102.3523,0 h -1.5053 v 1.5046 h 1.5053 z m -13.54694,0 h -1.50531 v 1.5046 h 1.50531 z m -3.00989,0 h -1.5053 v 1.5046 h 1.5053 z m 150.51821,1.5046 h -1.50529 v 1.5053 h 1.50529 z m -4.5152,0 h -1.50528 v 1.5053 h -1.50529 v 1.5053 h 1.50529 v -1.5053 h 1.50528 z m -37.63023,0 h -1.50459 v 1.5053 h 1.50459 z m -70.74324,0 h -1.50528 v 1.5053 h 1.50528 z m 97.83711,1.5053 h -1.50528 v 1.5053 h 1.50528 v 1.5053 h -1.50528 v 1.5052 h 1.50528 v -1.5052 h 1.50531 v -1.5053 h -1.50531 z m -22.57799,0 h -1.50529 v 1.5053 h 1.50529 z m -96.33183,0 h -1.5053 v 1.5053 h -1.50528 v -1.5053 h -1.5053 v 1.5053 h -1.5046 v 1.5053 h 1.5046 v 1.5052 h 1.5053 v -1.5052 h 1.50528 v -1.5053 h 1.5053 z m -3.01058,3.0106 h -1.5053 v -1.5053 h 1.5053 z m 144.49774,-1.5053 h -1.50461 v 1.5053 h 1.50461 z m -3.0099,0 h -1.50531 v 1.5053 h 1.50531 z m -13.54694,0 h -1.50528 v 1.5053 h 1.50528 z m -99.34243,0 h -1.50528 v 1.5053 h 1.50528 z m 78.26972,1.5053 h -1.50531 v 1.5052 h 1.50531 z m -69.23865,0 h -1.5046 v 1.5052 h 1.5046 z m -18.06213,0 h -1.50528 v 1.5052 h 1.50528 z m -28.59848,0 h -1.50529 v 1.5052 h 1.50529 v 1.5053 h -1.50529 v 1.5047 h 1.50529 v -1.5047 h 1.5053 v -1.5053 h -1.5053 z m 139.98255,1.5052 h -1.50529 v 1.5053 h -1.50529 v -1.5053 h -1.50528 v 1.5053 h 1.50528 v 1.5047 h 1.50529 v 1.5052 h 1.50529 v -1.5052 h 1.50528 v -1.5047 h -1.50528 z m 0,1.5053 v 1.5047 h -1.50529 v -1.5047 z m -97.83713,-1.5053 h -1.50528 v 1.5053 h 1.50528 z m -18.06212,0 h -1.50529 v 1.5053 h -1.50529 v -1.5053 h -1.50531 v 1.5053 h 1.50531 v 3.0099 h 1.50529 v -3.0099 h 1.50529 v 1.5047 h 1.5053 v -1.5047 h -1.5053 z m -18.06213,0 h -1.50529 v 1.5053 h -1.50529 v 1.5047 h 1.50529 v -1.5047 h 1.50529 z m 149.01292,1.5053 h -1.50528 v 1.5047 h -1.50461 v 1.5052 h -1.50529 v 1.5054 h 1.50529 v -1.5054 h 1.50461 v 1.5054 h 1.50528 v -1.5054 h -1.50528 v -1.5052 h 1.50528 z m -43.65003,0 h -1.50529 v 1.5047 h 1.50529 z m -22.57802,0 h -1.50529 v 1.5047 h -1.50529 v 1.5052 h 1.50529 v -1.5052 h 1.50529 z m -19.56741,0 h -1.50528 v 1.5047 h 1.50528 z m -18.06214,0 h -1.50528 v 1.5047 h -1.5053 v 1.5052 h 1.5053 v -1.5052 h 1.50528 v 1.5052 h 1.5053 v -1.5052 h -1.5053 z m -6.02048,0 h -1.50528 v 1.5047 h 1.50528 z m -27.09388,0 h -1.50529 v 1.5047 h 1.50529 v 1.5052 h 1.50528 v -1.5052 h -1.50528 z m -9.03106,0 h -1.5053 v 1.5047 h 1.5053 z m 139.98253,1.5047 h -1.50528 v 1.5052 h -1.50529 v 1.5054 h 1.50529 v 1.5052 h 1.50528 v -1.5052 h -1.50528 v -1.5054 h 1.50528 z m -28.59846,0 h -1.50531 v 1.5052 h 1.50531 z m -18.06213,0 h -1.50531 v 1.5052 h 1.50531 z m -3.01059,0 h -1.50529 v 1.5052 h 1.50529 z m -37.62956,0 h -1.50531 v 1.5052 h 1.50531 v 1.5054 h 1.50528 v -1.5054 h -1.50528 z m -4.51588,0 h -1.50531 v 1.5052 h 1.50531 z m -45.15533,0 h -1.5053 v 3.0106 h 1.5053 z m 194.16894,1.5052 h -1.50529 v 1.5054 h -1.5053 v 1.5052 h 1.5053 v -1.5052 h 1.50529 v 1.5052 h 1.50528 v -1.5052 h -1.50528 z m -18.06213,0 h -1.50529 v 1.5054 h 1.50529 z m -19.56742,0 h -1.50531 v 1.5054 h 1.50531 v 1.5052 h 1.50529 v -1.5052 h -1.50529 z m -25.5886,0 h -1.50461 v 1.5054 h 1.50461 v 1.5052 h 1.5053 v -1.5052 h -1.5053 z m -15.05154,0 h -1.5053 v 1.5054 h -1.50529 v -1.5054 h -1.50529 v 1.5054 h -1.50461 v 1.5052 h 1.50461 v -1.5052 h 1.50529 v 3.0106 h 1.50529 v -3.0106 h 1.5053 z m -21.07271,0 h -1.5053 v 1.5054 h 1.5053 z m -12.04165,0 h -1.50461 v 1.5054 h 1.50461 z m -22.57733,0 h -1.50529 v 1.5054 h -1.50529 v 1.5052 h 1.50529 v 1.5054 h 1.50529 v -1.5054 h -1.50529 v -1.5052 h 1.50529 z m -46.66061,0 h -1.5053 v 1.5054 h 1.5053 z m 174.6015,1.5054 h -1.50529 v 1.5052 h 1.50529 z m -4.51587,0 h -1.50528 v 1.5052 h -1.50531 v 1.5054 h 1.50531 v -1.5054 h 1.50528 z m -37.62956,0 h -1.50528 v 1.5052 h 1.50528 z m -18.06212,0 h -1.50529 v 1.5052 h 1.50529 z m -9.03108,0 h -1.50528 v 1.5052 h -1.50529 v 1.5054 h 1.50529 v -1.5054 h 1.50528 z m -27.09387,0 h -1.50459 v 1.5052 h 1.50459 z m -37.62956,0 h -1.50461 v 1.5052 h 1.50461 z m -13.54625,0 h -1.5053 v 1.5052 h 1.5053 z m -3.01058,0 h -1.5053 v 1.5052 h 1.5053 z m -10.53636,0 h -1.50531 v 1.5052 h 1.50531 z m 146.00302,1.5052 h -1.50529 v 1.5054 h 1.50529 v 1.5052 h -1.50529 v 1.5053 h 1.50529 v -1.5053 h 1.5053 v -1.5052 h -1.5053 z m -22.578,0 h -1.5046 v 1.5054 h 1.5046 z m -25.5879,0 h -1.50528 v 3.0106 h 1.50528 z m -49.67122,0 h -1.50529 v 1.5054 h 1.50529 z m 120.41512,1.5054 h -1.50528 v 1.5052 h 1.50528 z m -3.01057,0 h -1.5053 v 1.5052 h 1.5053 z m -13.54626,0 h -1.5053 v 1.5052 h 1.5053 z m -67.73402,0 h -1.50461 v 1.5052 h 1.50461 z m -57.19698,0 h -1.50461 v 1.5052 h -1.50529 v -1.5052 h -1.50528 v 1.5052 h -1.50531 v 1.5053 h 1.50531 v 1.5046 h 1.50528 v -1.5046 h 1.50529 v -1.5053 h 1.50461 z m -3.0099,3.0105 h -1.50528 v -1.5053 h 1.50528 z m 106.86819,-1.5053 h -1.50529 v 1.5053 h 1.50529 z m -60.20756,0 h -1.50529 v 1.5053 h 1.50529 z m -18.06214,0 h -1.50528 v 1.5053 h 1.50528 z m 102.35232,1.5053 h -1.50531 v 1.5046 h -1.5046 v -1.5046 h -1.5053 v 1.5046 h 1.5053 v 1.5053 h 1.5046 v 1.5053 h 1.50531 v -1.5053 h 1.50528 v -1.5053 h -1.50528 z m 0,1.5046 v 1.5053 h -1.50531 v -1.5053 z m -93.32125,-1.5046 h -1.50528 v 1.5046 h 1.50528 z m -18.06214,0 h -1.50529 v 1.5046 h 1.50529 z m -28.59848,0 H 471.018 v 1.5046 h 1.50529 v 1.5053 H 471.018 v 1.5053 h 1.50529 v -1.5053 h 1.50459 v -1.5053 h -1.50459 z m 155.03409,1.5046 h -1.5053 v 1.5053 h -1.50528 v 1.5053 h -1.50529 v 1.5052 h 1.50529 v -1.5052 h 1.50528 v 1.5052 h 1.5053 v -1.5052 h -1.5053 v -1.5053 h 1.5053 z m -43.65072,0 h -1.50529 v 1.5053 h 1.50529 z m -69.23863,0 h -1.50528 v 1.5053 h 1.50528 z m -18.06214,0 h -1.50528 v 1.5053 h -1.50529 v -1.5053 h -1.50461 v 1.5053 h 1.50461 v 3.0105 h 1.50529 v -3.0105 h 1.50528 v 1.5053 h 1.50531 v -1.5053 h -1.50531 z m -18.06213,0 h -1.50528 v 1.5053 h -1.50529 v 1.5053 h 1.50529 v -1.5053 h 1.50528 z m 142.99245,1.5053 h -1.50529 v 1.5053 h -1.50461 v 1.5052 h 1.50461 v 1.5054 h 1.50529 v -1.5054 h -1.50529 v -1.5052 h 1.50529 z m -28.59849,0 h -1.50529 v 1.5053 h 1.50529 z m -75.25909,0 h -1.50529 v 1.5053 h 1.50529 z m -27.09321,0 h -1.50529 v 1.5053 h 1.50529 v 1.5052 h 1.50529 v -1.5052 h -1.50529 z m -9.03107,0 h -1.50528 v 1.5053 h 1.50528 z m 188.14777,1.5053 h -1.50529 v 1.5052 h -1.50461 v 1.5054 h 1.50461 v -1.5054 h 1.50529 z m -19.56742,0 h -1.50528 v 1.5052 h 1.50528 z m -18.06213,0 h -1.50528 v 1.5052 h -1.50461 v 1.5054 h 1.50461 v -1.5054 h 1.50528 v 1.5054 h 1.50529 v -1.5054 h -1.50529 z m -16.55684,0 h -1.50529 v 1.5052 h 1.50529 v 1.5054 h 1.50529 v -1.5054 h -1.50529 z m -15.05223,0 h -1.50461 v 1.5052 h -1.50528 v -1.5052 h -1.50531 v 1.5052 h -1.50527 v 1.5054 h 1.50527 v -1.5054 h 1.50531 v 3.0106 h 1.50528 v -3.0106 h 1.50461 z m -21.07202,0 h -1.50531 v 1.5052 h 1.50531 z m -94.82723,0 h -1.50461 v 3.0106 h 1.50461 z m 195.67422,1.5052 h -1.50528 v 1.5054 h 1.50528 z m -37.62954,0 h -1.50529 v 1.5054 h 1.50529 v 1.5052 h 1.50528 v -1.5052 h -1.50528 z m -4.51519,0 h -1.5053 v 1.5054 h 1.5053 z m -25.58858,0 h -1.50531 v 1.5054 h 1.50531 z m -9.03108,0 h -1.50529 v 1.5054 h -1.50529 v 1.5052 h 1.50529 v -1.5052 h 1.50529 z m -27.0932,0 h -1.50528 v 1.5054 h 1.50528 z m -78.26968,0 h -1.50531 v 1.5054 h 1.50531 z m -67.73334,0 v 1.5054 h -1.5053 v -1.5054 z m -1.5053,1.5054 v 1.5052 h -3.01058 v -1.5052 z m 0,1.5052 h 1.5053 v 1.5046 h -1.5053 z m 0,1.5046 v 1.5054 h -1.50528 v -1.5054 z m 0,1.5054 h 1.5053 v 1.5052 h -1.5053 z m 0,1.5052 v 1.5054 h -1.50528 v -1.5054 z m 1.5053,-4.5152 v -1.5052 h 1.5053 v 1.5052 z m 245.34543,-1.5052 H 674.218 v 1.5052 h 1.50529 z m -22.57801,0 h -1.50529 v 1.5052 h -1.50529 v 1.5046 h 1.50529 v 1.5054 h 1.50529 v -1.5054 h -1.50529 v -1.5046 h 1.50529 z m -43.65003,0 h -1.5053 v 3.0098 h 1.5053 z m -97.83711,0 h -1.5053 v 1.5052 h 1.5053 z m -61.71285,0 v 1.5052 h -1.5053 v -1.5052 z m 0,1.5052 h 1.50528 v 1.5046 h -1.50528 z m 1.50528,1.5046 h 1.50529 v 1.5054 h -1.50529 z m 195.67424,-1.5046 h -1.50529 v 1.5046 h 1.50529 z m -13.54695,0 h -1.50529 v 1.5046 h 1.50529 z m -3.01057,0 h -1.50461 v 1.5046 h 1.50461 z m -34.61899,0 h -1.50527 v 1.5046 h 1.50527 z m -135.46667,0 v 1.5046 h -1.50528 v -1.5046 z m 0,1.5046 h 1.50531 v 1.5054 h -1.50531 z m -22.57801,-1.5046 v 1.5046 h -1.50528 v -1.5046 z m -3.01057,0 v 1.5046 h -1.50461 v -1.5046 z m -1.50461,1.5046 v 1.5054 h -1.50528 v -1.5054 z m -9.03106,-1.5046 v 1.5046 h -1.50529 v -1.5046 z m 243.83945,1.5046 h -1.50461 v 1.5054 h 1.50461 z m -85.79546,0 h -1.50529 v 1.5054 h 1.50529 z m -27.09319,0 v 1.5054 h -1.50528 v -1.5054 z m -1.50528,1.5054 v 1.5052 h -1.50531 v -1.5052 z m 0,1.5052 h 1.50528 v 1.5054 h -1.50528 z m 1.50528,1.5054 h 1.50529 v 1.5052 h -1.50529 z m 0,1.5052 v 1.5053 h -1.50528 v -1.5053 z m 0,1.5053 h 1.50529 v 1.5053 h -1.50529 z m 0,-4.5159 v -1.5052 h 3.01058 v 1.5052 z m 91.81663,-1.5052 h -1.50529 v 1.5052 h -1.50531 v -1.5052 h -1.50528 v 1.5052 h -1.50529 v 1.5054 h 1.50529 v 1.5052 h 1.50528 v -1.5052 h 1.50531 v -1.5054 h 1.50529 z m -3.0106,3.0106 h -1.50528 v -1.5054 h 1.50528 z m -108.37345,-3.0106 v 1.5052 h -1.50529 v -1.5052 z m -1.50529,1.5052 v 1.5054 h -1.50531 v -1.5054 z m -1.50531,1.5054 v 1.5052 h -1.50459 v -1.5052 z m -73.75381,-3.0106 v 1.5052 h -1.50529 v -1.5052 z m -3.0106,0 v 1.5052 h -1.50528 v -1.5052 z m -9.03106,0 v 1.5052 h -1.50528 v -1.5052 z m 0,1.5052 h 1.5053 v 1.5054 h -1.5053 z m -10.53635,-1.5052 v 1.5052 h -1.50529 v -1.5052 z m -1.50529,1.5052 v 1.5054 h -1.50461 v -1.5054 z m -10.53567,-1.5052 v 1.5052 h -1.50529 v -1.5052 z m 248.35532,1.5052 h -1.50529 v 1.5054 h 1.50529 z m -111.38405,0 v 1.5054 h -1.50461 v -1.5054 z m -10.53566,0 v 1.5054 h -1.50531 v -1.5054 z m 0,1.5054 h 1.5046 v 1.5052 h -1.5046 z m -3.01059,-1.5054 v 1.5054 h -1.50529 v -1.5054 z m -22.578,0 v 1.5054 h -1.5053 v -1.5054 z m -1.5053,1.5054 v 1.5052 h -1.50529 v -1.5052 z m -61.71216,-1.5054 v 1.5054 h -1.50531 v -1.5054 z m -22.57801,0 v 1.5054 h -1.50531 v -1.5054 z m -1.50531,1.5054 v 1.5052 h -1.50528 v -1.5052 z m 0,1.5052 h 1.50531 v 1.5053 h -1.50531 z m 0,1.5053 v 1.5053 h -1.50528 v -1.5053 z m 1.50531,-1.5053 v -1.5052 h 1.50529 v 1.5052 z m 224.27272,-1.5052 h -1.50531 v 1.5052 h 1.50531 z m -28.5985,0 h -1.50529 v 1.5052 h 1.50529 v 1.5053 h -1.50529 v 1.5053 h 1.50529 v -1.5053 h 1.50529 v -1.5053 h -1.50529 z m -182.12729,0 v 1.5052 h -1.50529 v -1.5052 z m -30.10377,0 v 1.5052 h -1.50529 v -1.5052 z m -3.01058,0 v 1.5052 h -1.5053 v -1.5052 z m -3.01059,0 v 1.5052 h -1.50531 v -1.5052 z m -1.50531,1.5052 v 1.5053 h -1.50458 v -1.5053 z m 261.90297,0 h -1.50529 v 1.5053 h 1.50529 z m -18.06282,0 h -1.5046 v 1.5053 h -1.50529 v -1.5053 h -1.5053 v 1.5053 h 1.5053 v 3.0098 h 1.50529 v -3.0098 h 1.5046 v 1.5053 h 1.5053 v -1.5053 h -1.5053 z m -18.06212,0 h -1.5053 v 1.5053 h -1.5046 v 1.5053 h 1.5046 v -1.5053 h 1.5053 z m -79.77499,0 v 1.5053 h -1.50461 v -1.5053 z m -12.04097,0 v 1.5053 h -1.50528 v -1.5053 z m 0,1.5053 h 1.50531 v 1.5053 h -1.50531 z m -10.53633,-1.5053 v 1.5053 h -1.50531 v -1.5053 z m -1.50531,1.5053 v 1.5053 h -1.50528 v -1.5053 z m -7.52577,-1.5053 v 1.5053 h -1.50529 v -1.5053 z m -3.01058,0 v 1.5053 h -1.50529 v -1.5053 z m -76.7644,0 v 1.5053 h -1.5053 v -1.5053 z m -1.5053,1.5053 v 1.5053 h -1.5053 v -1.5053 z m 231.79848,0 h -1.50528 v 1.5053 h 1.50528 z m -27.09319,0 h -1.50529 v 1.5053 h 1.50529 v 1.5045 h 1.50529 v -1.5045 h -1.50529 z m -9.03107,0 h -1.50528 v 1.5053 h 1.50528 z m -97.8371,0 v 1.5053 h -1.5053 v -1.5053 z m -1.5053,1.5053 v 1.5045 h -1.50529 v -1.5045 z m 0,1.5045 h 1.5053 v 1.5054 h -1.5053 z m 1.5053,1.5054 h 1.50529 v 1.5054 h -1.50529 z m 0,-1.5054 v -1.5045 h 1.50529 v 1.5045 z m -22.57801,-3.0098 v 1.5053 h -1.50529 v -1.5053 z m 123.42571,1.5053 h -1.50529 v 3.0099 h 1.50529 z m -78.26969,0 v 1.5045 h -1.50531 v -1.5045 z m 0,1.5045 h 1.50529 v 1.5054 h -1.50529 z m -3.01059,-1.5045 v 1.5045 h -1.50529 v -1.5045 z m -3.01058,0 v 1.5045 h -1.5053 v -1.5045 z m -30.10379,0 v 1.5045 h -1.50459 v -1.5045 z m -48.16591,0 v 1.5045 h -1.50461 v -1.5045 z m -1.50461,1.5045 v 1.5054 h -3.01057 v -1.5054 z m 0,1.5054 h 1.50461 v 1.5054 h -1.50461 z m 0,1.5054 v 1.5052 h -1.50529 v -1.5052 z m 0,1.5052 h 1.50461 v 1.5053 h -1.50461 z m 0,1.5053 v 1.5053 h -1.50529 v -1.5053 z m 1.50461,-4.5159 v -1.5054 h 1.50531 v 1.5054 z m 176.10681,-1.5054 h -1.5053 v 1.5054 h 1.5053 z m -124.9303,0 v 1.5054 h -1.50529 v -1.5054 z m 0,1.5054 h 1.50528 v 1.5054 h -1.50528 z m -31.60909,-1.5052 v 1.5052 h -1.50459 v -1.5052 z m 0,1.5052 h 1.50529 v 1.5054 h -1.50529 z m 1.50529,1.5054 h 1.50529 v 1.5052 h -1.50529 z m 168.58104,-1.5054 h -1.5053 v 1.5054 h 1.5053 z m -64.72275,0 v 1.5054 h -1.5053 v -1.5054 z m -1.5053,1.5054 v 1.5052 h -1.50528 v -1.5052 z m 0,1.5052 h 1.5053 v 1.5053 h -1.5053 z m 1.5053,1.5053 h 1.5046 v 1.5053 h -1.5046 z m 0,1.5053 v 1.5046 h -1.5053 v -1.5046 z m 0,1.5046 h 1.5046 v 1.5053 h -1.5046 z m 0,-4.5152 v -1.5052 h 3.00991 v 1.5052 z m -94.82722,-3.0106 v 1.5054 h -1.50528 v -1.5054 z m 0,1.5054 h 1.50531 v 1.5052 h -1.50531 z m -22.57732,-1.5054 v 1.5054 h -1.50529 v -1.5054 z m -3.01058,0 v 1.5054 h -1.50529 v -1.5054 z m -1.50529,1.5054 v 1.5052 h -1.50528 v -1.5052 z m -9.03108,-1.5054 v 1.5054 h -1.50528 v -1.5054 z m 111.38406,1.5054 v 1.5052 h -1.50528 v -1.5052 z m -1.50528,1.5052 v 1.5053 h -1.50529 v -1.5053 z m -1.50529,1.5053 v 1.5053 h -1.50531 v -1.5053 z m 28.59848,-1.5053 v 1.5053 h -1.50529 v -1.5053 z m -10.53635,0 v 1.5053 h -1.5053 v -1.5053 z m 0,1.5053 h 1.50529 v 1.5053 h -1.50529 z m -3.01059,-1.5053 v 1.5053 h -1.50529 v -1.5053 z m -22.57731,0 v 1.5053 h -1.50531 v -1.5053 z m -1.50531,1.5053 v 1.5053 h -1.50529 v -1.5053 z m -64.72342,-1.5053 v 1.5053 h -1.50461 v -1.5053 z m -3.00991,0 v 1.5053 h -1.50528 v -1.5053 z m -9.03107,0 v 1.5053 h -1.50529 v -1.5053 z m 0,1.5053 h 1.50531 v 1.5053 h -1.50531 z m -10.53635,-1.5053 v 1.5053 h -1.50529 v -1.5053 z m -1.50529,1.5053 v 1.5053 h -1.50529 v -1.5053 z m -10.53637,-1.5053 v 1.5053 h -1.50528 v -1.5053 z m 40.64015,1.5053 v 1.5053 h -1.50528 v -1.5053 z m -3.01057,0 v 1.5053 h -1.50531 v -1.5053 z m -22.57802,0 v 1.5053 h -1.50461 v -1.5053 z m -1.50461,1.5053 v 1.5046 h -1.50529 v -1.5046 z m 0,1.5046 h 1.50461 v 1.5053 h -1.50461 z m 0,1.5053 v 1.5052 h -1.50529 v -1.5052 z m 1.50461,-1.5053 v -1.5046 h 1.50529 v 1.5046 z m 121.92041,-1.5046 v 1.5046 h -1.50529 v -1.5046 z m -12.04165,0 v 1.5046 h -1.50529 v -1.5046 z m 0,1.5046 h 1.5053 v 1.5053 h -1.5053 z m -10.53636,-1.5046 v 1.5046 h -1.50529 v -1.5046 z m -1.50529,1.5046 v 1.5053 h -1.50461 v -1.5053 z m -7.52577,-1.5046 v 1.5046 h -1.50529 v -1.5046 z m -3.01058,0 v 1.5046 h -1.5046 v -1.5046 z m -73.75383,0 v 1.5046 h -1.50529 v -1.5046 z m -30.10377,0 v 1.5046 h -1.50529 v -1.5046 z m -3.0106,0 v 1.5046 h -1.50459 v -1.5046 z m -3.00988,0 v 1.5046 h -1.5053 v -1.5046 z m -1.5053,1.5046 v 1.5053 h -1.50528 v -1.5053 z m 130.9508,0 v 1.5053 h -1.50461 v -1.5053 z m -1.50461,1.5053 v 1.5052 h -1.50528 v -1.5052 z m 0,1.5052 h 1.50461 v 1.5054 h -1.50461 z m 1.50461,1.5054 h 1.50529 v 1.5052 h -1.50529 z m 0,-1.5054 v -1.5052 h 1.50529 v 1.5052 z m -22.57733,-3.0105 v 1.5053 h -1.50529 v -1.5053 z m -3.01057,0 v 1.5053 h -1.5053 v -1.5053 z m -70.74393,0 v 1.5053 h -1.50459 v -1.5053 z m -1.50459,1.5053 v 1.5052 h -1.50531 v -1.5052 z m 120.41443,0 v 1.5052 h -1.5053 v -1.5052 z m 0,1.5052 h 1.50529 v 1.5054 h -1.50529 z m -3.01059,-1.5052 v 1.5052 h -1.50461 v -1.5052 z m -3.0099,0 v 1.5052 h -1.50529 v -1.5052 z m -30.10377,0 v 1.5052 h -1.50531 v -1.5052 z m 3.01057,1.5052 v 1.5054 h -1.50528 v -1.5054 z m 0,1.5054 h 1.50461 v 1.5052 h -1.50461 z m 57.19699,0 v 1.5052 h -1.50529 v -1.5052 z m -1.50529,1.5052 v 1.5054 h -3.01059 v -1.5054 z m 0,1.5054 h 1.50529 v 1.5046 h -1.50529 z m 0,1.5046 v 1.5052 h -1.50531 v -1.5052 z m 0,1.5052 h 1.50529 v 1.5054 h -1.50529 z m 0,1.5054 v 1.5052 h -1.50531 v -1.5052 z m 1.50529,-4.5152 v -1.5054 h 1.50461 v 1.5054 z m 19.56741,-1.5054 v 1.5054 h -1.50528 v -1.5054 z m 0,1.5054 h 1.50461 v 1.5046 h -1.50461 z m 1.50461,1.5046 h 1.50529 v 1.5052 h -1.50529 z m 9.03175,-1.5046 v 1.5046 h -1.50529 v -1.5046 z m 0,1.5046 h 1.50461 v 1.5052 h -1.50461 z m -22.57801,-1.5046 v 1.5046 h -1.50529 v -1.5046 z m -3.01058,0 v 1.5046 h -1.50529 v -1.5046 z m -1.50529,1.5046 v 1.5052 h -1.50528 v -1.5052 z m -9.03106,-1.5046 v 1.5046 h -1.5053 v -1.5046 z m 34.61965,3.0098 v 1.5054 H 674.218 v -1.5054 z m -3.01059,0 v 1.5054 h -1.50529 v -1.5054 z m -9.03105,0 v 1.5054 h -1.50531 v -1.5054 z m 0,1.5054 h 1.50529 v 1.5052 h -1.50529 z m -10.53637,-1.5054 v 1.5054 h -1.50529 v -1.5054 z m -1.50529,1.5054 v 1.5052 h -1.50529 v -1.5052 z m -10.53635,-1.5054 v 1.5054 h -1.5053 v -1.5054 z m 40.64012,1.5054 v 1.5052 h -1.50529 v -1.5052 z m -3.01057,0 v 1.5052 h -1.50461 v -1.5052 z m -22.57732,0 v 1.5052 h -1.5053 v -1.5052 z m -1.5053,1.5052 v 1.5053 h -1.50529 v -1.5053 z m 0,1.5053 h 1.5053 v 1.5053 h -1.5053 z m 0,1.5053 v 1.5053 h -1.50529 v -1.5053 z m 1.5053,-1.5053 v -1.5053 h 1.50529 v 1.5053 z m 13.54625,-1.5053 v 1.5053 h -1.50529 v -1.5053 z m -30.10378,0 v 1.5053 h -1.5046 v -1.5053 z m -3.0099,0 v 1.5053 h -1.50529 v -1.5053 z m -3.01058,0 v 1.5053 h -1.50529 v -1.5053 z m -1.50529,1.5053 v 1.5053 h -1.50528 v -1.5053 z m 34.61965,0 v 1.5053 h -1.50528 v -1.5053 z m -1.50528,1.5053 v 1.5053 h -1.50529 v -1.5053 z"
       inkscape:export-filename="../../assets/ditherBottomBase2.svg"
       inkscape:export-xdpi="96"
       inkscape:export-ydpi="96" /></g></svg>
