<?xml version="1.0" encoding="UTF-8" standalone="no"?>
<!-- Created with Inkscape (http://www.inkscape.org/) -->

<svg
   width="210mm"
   height="61.833496mm"
   viewBox="0 0 210 61.833496"
   version="1.1"
   id="svg1"
   xml:space="preserve"
   inkscape:version="1.3.2 (091e20ef0f, 2023-11-25)"
   sodipodi:docname="prototype.svg"
   inkscape:export-filename="prototype.png"
   inkscape:export-xdpi="96"
   inkscape:export-ydpi="96"
   xmlns:inkscape="http://www.inkscape.org/namespaces/inkscape"
   xmlns:sodipodi="http://sodipodi.sourceforge.net/DTD/sodipodi-0.dtd"
   xmlns="http://www.w3.org/2000/svg"
   xmlns:svg="http://www.w3.org/2000/svg"><sodipodi:namedview
     id="namedview1"
     pagecolor="#ffffff"
     bordercolor="#000000"
     borderopacity="0.25"
     inkscape:showpageshadow="2"
     inkscape:pageopacity="0.0"
     inkscape:pagecheckerboard="0"
     inkscape:deskcolor="#333333"
     inkscape:document-units="mm"
     inkscape:zoom="0.19555472"
     inkscape:cx="-2063.3611"
     inkscape:cy="1370.4604"
     inkscape:window-width="1336"
     inkscape:window-height="701"
     inkscape:window-x="15"
     inkscape:window-y="15"
     inkscape:window-maximized="0"
     inkscape:current-layer="g551"
     showgrid="false"
     showguides="true"><inkscape:grid
       id="grid1"
       units="mm"
       originx="-313.72977"
       originy="-595.24288"
       spacingx="0.99999998"
       spacingy="1"
       empcolor="#0099e5"
       empopacity="0.30196078"
       color="#0099e5"
       opacity="0.14902"
       empspacing="5"
       dotted="false"
       gridanglex="30"
       gridanglez="30"
       visible="false" /></sodipodi:namedview><defs
     id="defs1"><style
       id="style1">
      .cls-1 {
        fill: #fff;
      }
    </style></defs><g
     inkscape:label="Layer 1"
     inkscape:groupmode="layer"
     id="layer1"
     transform="translate(-313.72977,-595.24287)"><path
       id="path2045"
       style="fill:#1e1e2e;fill-opacity:1;stroke-width:0.466666"
       d="m 523.72979,595.24288 v 22.16665 13.99993 h -1.16675 v 1.16674 h 1.16675 v 9.33347 h -1.16675 v -2.33351 h -1.16674 v 1.16676 h -1.16622 v 1.16675 h -2.3335 v -1.16675 h 1.16675 v -1.16676 h 1.16675 v -2.33349 h 2.33296 v -1.16676 h -2.33296 v 1.16676 h -1.16675 v 2.33349 h -2.3335 v 1.16676 h -1.16675 v -2.3335 h -1.16675 v -1.16675 h 1.16675 v -1.16676 h 2.3335 v -1.1662 h -2.3335 v -2.33351 h -1.16675 v 2.33351 h -1.16675 v -2.33351 h -1.16622 v 2.33351 h -1.16674 v 1.1662 h -1.16675 v -2.33296 h -1.16676 v 2.33296 h 1.16676 v 1.16676 h 1.16675 v -1.16676 h 1.16674 v 1.16676 h 1.16622 v 1.16675 h 1.16675 v 1.16674 h -2.33297 v -1.16674 h -1.16674 v 1.16674 h -1.16675 v -1.16674 h -1.16676 v 1.16674 h -1.16674 v -1.16674 h -2.33297 v 1.16674 h -1.16675 v -1.16674 h -1.16675 v -1.16675 h -1.16675 v 1.16675 h 1.16675 v 1.16674 h 1.16675 v 1.16676 h -1.16675 v 1.16675 h -1.16675 v 1.16621 h -1.16675 v -1.16621 h -1.16675 v -1.16675 h -1.16674 v -2.3335 h 1.16674 v 1.16674 h 1.16675 v 1.16676 h 1.16675 v -1.16676 h -1.16675 v -1.16674 h -1.16675 v -2.33351 h -1.16674 v 2.33351 h -2.33297 v 1.16674 h 1.16675 v 1.16676 h -1.16675 v 1.16675 h -3.50025 v -2.33351 h 1.16675 v 1.16676 h 1.16674 v -1.16676 h -1.16674 v -1.16674 h 1.16674 v -1.16675 h -1.16674 v 1.16675 h -1.16675 v 1.16674 h -1.16675 v -1.16674 h -2.33297 v -1.16675 h 1.16675 v -1.16676 h -1.16675 v 1.16676 h -2.3335 v 1.16675 h -1.16675 v -1.16675 h -1.16674 v -2.33296 h -1.16622 v 2.33296 h -1.16675 -3.50025 v -1.16676 h 2.33349 v -1.1662 h 1.16676 v -1.16676 h 1.16675 v -1.16675 h 1.16622 v 1.16675 h 1.16674 v -1.16675 h -1.16674 v -1.16674 h -1.16622 v -1.16676 h -1.16675 -1.16676 v 1.16676 h 1.16676 1.16675 v 1.16674 h -1.16675 -1.16676 v 2.33351 h -1.16674 v -2.33351 h -1.16675 v -1.16674 h 1.16675 v -1.16676 h -1.16675 v -1.16675 h 1.16675 v -1.16675 h 1.16674 v 1.16675 h 1.16676 v -1.16675 h -1.16676 v -2.33297 h -1.16674 v 2.33297 h -1.16675 v 1.16675 h -1.16675 v -1.16675 h -2.33297 v -1.16621 h -1.16675 v 1.16621 h 1.16675 v 1.16675 h -2.3335 v 1.16675 h -1.16675 v -1.16675 h -1.16674 v -1.16675 h -1.16676 v 1.16675 h 1.16676 v 1.16675 h -1.16676 v 1.16676 h 1.16676 v -1.16676 h 1.16674 v 2.3335 h -3.49971 v -1.16674 h -1.16676 v -1.16676 h 1.16676 v -1.16675 h -2.3335 v -2.33296 h -1.16675 v 2.33296 h -1.16675 v 1.16675 h -1.16675 v 1.16676 h 1.16675 v -1.16676 h 1.16675 v -1.16675 h 1.16675 v 2.33351 h -1.16675 v 1.16674 h -1.16675 v 1.16675 h -1.16675 v -1.16675 h -1.16675 v -1.16674 h -1.16622 v -1.16676 h 1.16622 v -1.16675 h 1.16675 v -1.16675 h -1.16675 v 1.16675 h -1.16622 v 1.16675 h -1.16674 v -1.16675 h -2.3335 v 1.16675 h -1.16676 v -1.16675 h -1.16675 v 1.16675 h -1.16622 v -1.16675 h -1.16674 v 1.16675 h -2.33351 v -1.16675 h 1.16676 v -1.16675 h 1.16675 v -1.16621 h 1.16674 v 1.16621 h 1.16622 v -1.16621 h 1.16675 v -2.3335 h -1.16675 v 2.3335 h -1.16622 v -1.16676 h -1.16674 v -2.33349 h -1.16675 v 2.33349 h -1.16676 v -2.33349 h -1.16674 v 2.33349 h -2.3335 v 1.16676 h 2.3335 v 1.16621 h 1.16674 v 1.16675 h -1.16674 v 2.33351 h -1.16675 v -1.16676 h -2.33296 v -2.3335 h -1.16676 v -1.16621 h -2.33349 v 1.16621 h 2.33349 v 2.3335 h 1.16676 v 1.16676 h 1.16621 v 1.16674 h -2.33297 v -1.16674 h -1.16675 v -1.16676 h -1.16674 v 2.3335 h -1.16676 -1.16674 v -1.16674 h 1.16674 v -1.16676 h -1.16674 v -1.16675 h 1.16674 v -1.16675 h -3.49971 v -1.16621 h 2.33297 v -1.16676 h 1.16674 v -2.33349 h 1.16676 v -1.16676 h -1.16676 v -1.16674 h -1.16674 v 1.16674 h 1.16674 v 1.16676 h -1.16674 v 2.33349 h -1.16622 v -2.33349 h -1.16675 v -1.16676 h 1.16675 v -1.16674 h -1.16675 v -1.16622 h 1.16675 v -1.16675 h 1.16622 v 1.16675 h 1.16674 v -1.16675 h -1.16674 v -2.3335 h -1.16622 v 2.3335 h -1.16675 v 1.16675 h -1.16676 v -1.16675 h -2.33349 v -1.16674 h -1.16675 v 1.16674 h 1.16675 v 1.16675 h -2.3335 v 1.16622 H 429.23 v -1.16622 h -1.16674 v -1.16675 h -1.16675 v 1.16675 h 1.16675 v 1.16622 h -1.16675 v 1.16674 h 1.16675 v -1.16674 H 429.23 v 2.3335 h -3.50024 v -1.16676 h -1.16674 v -1.16674 h 1.16674 v -1.16622 h -2.3335 v -2.33349 h -1.16622 v 2.33349 h -1.16676 v 1.16622 h -1.16674 v 1.16674 h 1.16674 v -1.16674 h 1.16676 v -1.16622 h 1.16622 v 2.33296 h -1.16622 v 1.16676 h -1.16676 v 1.16675 h -1.16674 v -1.16675 h -1.16675 v -1.16676 h -1.16675 v -1.16674 h 1.16675 v -1.16622 h 1.16675 v -1.16675 h -1.16675 v 1.16675 h -1.16675 v 1.16622 h -1.16675 v -1.16622 h -2.33297 v 1.16622 h -1.16674 v -1.16622 h -1.16676 v 1.16622 h -1.16674 v -1.16622 h -1.16675 v 1.16622 h -2.33297 v -1.16622 h 1.16621 v -1.16675 h 1.16676 v -1.16674 h 1.16675 v 1.16674 h 1.16674 v -1.16674 h 1.16676 v -2.33351 h -1.16676 v 2.33351 h -1.16674 v -1.16676 h -1.16675 v -2.33349 h -1.16676 v 2.33349 h -1.16621 v -2.33349 h -1.16675 v 2.33349 h -2.3335 v 1.16676 h 2.3335 v 1.16674 h 1.16675 v 1.16675 h -1.16675 v 2.33296 h -1.16675 v -1.16674 h -2.3335 v -2.33297 h -1.16675 v -1.16674 h -2.33296 v 1.16674 h 2.33296 v 2.33297 h 1.16675 v 1.16674 h 1.16675 v 1.16676 h -2.3335 v -1.16676 h -1.16675 v -1.16674 h -1.16621 v 2.3335 h -1.16676 v 1.16675 h 2.33297 v 1.16674 h -2.33297 v 2.33297 h 1.16676 v 1.16675 h -1.16676 v 1.16675 h -1.16674 v -2.3335 h -1.16675 v 1.16675 h -1.16676 v 1.16675 h -2.33296 v -1.16675 h 1.16622 v -1.16675 h 1.16674 v -2.33297 h 2.33351 v -1.16674 h -2.33351 v 1.16674 h -1.16674 v 2.33297 h -2.33297 v 1.16675 h -1.16674 v -2.33296 h -1.16676 v -1.16676 h 1.16676 v -1.16674 h 2.33349 v -1.16675 h -2.33349 v -2.3335 h -1.16676 v 2.3335 h -1.16675 v -2.3335 h -1.16675 v 2.3335 h -1.16621 v 1.16675 h -1.16676 v -2.33351 h -1.16675 v 2.33351 h 1.16675 v 1.16674 h 1.16676 v -1.16674 h 1.16621 v 1.16674 h 1.16675 v 1.16676 h 1.16675 v 1.16621 h -2.3335 v -1.16621 h -1.16621 v 1.16621 h -1.16676 v -1.16621 h -1.16675 v 1.16621 h -1.16674 v -1.16621 h -2.3335 v 1.16621 h -1.16675 v -1.16621 H 376.73 v -1.16676 h -1.16675 v 1.16676 H 376.73 v 1.16621 h 1.16622 v 1.16675 H 376.73 v 1.16675 h -1.16675 v 1.16676 h -1.16675 v -1.16676 h -1.16675 v -1.16675 h -1.16674 v -2.33296 h 1.16674 v 1.16621 h 1.16675 v 1.16675 h 1.16675 v -1.16675 h -1.16675 v -1.16621 h -1.16675 v -2.3335 h -1.16674 v 2.3335 h -2.33298 v 1.16621 h 1.16622 v 1.16675 h -1.16622 v 1.16675 h -3.50025 v -2.3335 h 1.16676 v 1.16675 h 1.16674 v -1.16675 h -1.16674 v -1.16621 h 1.16674 v -1.16676 h -1.16674 v 1.16676 h -1.16676 v 1.16621 h -1.16674 v -1.16621 h -2.33351 v -1.16676 h 1.16676 v -1.16674 h -1.16676 v 1.16674 h -2.33296 v 1.16676 h -1.16675 v -1.16676 h -1.16674 v -2.33349 h -1.16676 v 2.33349 h -1.16675 -1.16622 v -1.16674 h 1.16622 v -2.33351 h 1.16675 v -1.16674 h 1.16676 v 1.16674 h 1.16674 v -1.16674 h -1.16674 v -1.16622 h -1.16676 v -1.16675 h -1.16675 v 1.16675 h -1.16622 v -2.33349 h -1.16674 v 1.16674 h -1.16676 v 1.16675 h -2.33349 v -1.16675 h 1.16675 v -1.16674 h 1.16674 v -2.33351 h 2.3335 v -1.16674 h -2.3335 v 1.16674 h -1.16674 v 2.33351 h -2.33351 v 1.16674 h -1.16674 v -2.3335 h -1.16622 v -1.16675 h 1.16622 v -1.16674 h 2.3335 v -1.16676 h -2.3335 v -2.33296 h -1.16622 v 2.33296 h -1.16675 v -2.33296 h -1.16674 v 2.33296 h -1.16676 v 1.16676 h -1.16675 v -2.33298 h -1.16674 v 2.33298 h 1.16674 v 1.16674 h 1.16675 v -1.16674 h 1.16676 v 1.16674 h 1.16674 v 1.16675 h 1.16675 v 1.16676 h -2.33349 v -1.16676 h -1.16676 v 1.16676 h -1.16675 v -1.16676 h -1.16674 v 1.16676 h -1.16622 v -1.16676 h -2.3335 v 1.16676 h -1.16675 v -1.16676 h -1.16676 v -1.16675 h -1.16674 v 1.16675 h 1.16674 v 1.16676 h 1.16676 v 1.16674 h -1.16676 v 1.16675 h -1.16674 v 1.16622 h -1.16675 v -1.16622 h -1.16622 v -1.16675 h -1.16674 v -2.3335 h 1.16674 v 1.16676 h 1.16622 v 1.16674 h 1.16675 v -1.16674 h -1.16675 v -1.16676 h -1.16622 v -2.33349 h -1.16674 v 2.33349 h -2.33351 v 1.16676 h 1.16675 v 1.16674 h -1.16675 v 1.16675 H 324.23 v -2.33349 h 1.16621 v 1.16674 h 1.16676 v -1.16674 h -1.16676 v -1.16676 h 1.16676 v -1.16675 h -1.16676 v 1.16675 H 324.23 v 1.16676 h -1.16675 v -1.16676 h -2.3335 v -1.16675 h 1.16675 v -1.16674 h -1.16675 v 1.16674 h -2.3335 v 1.16675 h -1.16676 v -1.16675 h -1.1662 v -2.3335 h -1.16676 v 2.3335 h -1.16675 v -3.49972 h 1.16675 v -1.16674 h 1.16676 v 1.16674 h 1.1662 v -1.16674 h -1.1662 v -1.16675 h -1.16676 v -1.16676 h -1.16675 v -12.83317 h 41.99979 42.00032 41.99979 42.00033 z m -208.83326,13.99993 v 1.16675 h -1.16675 v -1.16675 z m 0,5.83321 h 1.16676 v 1.16675 h 1.1662 v 1.16676 h -1.1662 v 1.16674 h 1.1662 v 1.16675 h -1.1662 v 2.33296 h -1.16676 v -2.33296 h -1.16675 v -1.16675 h 1.16675 v -1.16674 h -1.16675 v -1.16676 h 1.16675 z m 0,6.99996 v 1.16676 h 2.33296 v 1.16675 h -3.49971 v -2.33351 z m 2.33296,2.33351 h 1.16676 v 1.16674 h -1.16676 z m 0,1.16674 v 1.16676 h -1.1662 v -1.16676 z m -1.1662,1.16676 v 1.16621 h -1.16676 v -1.16621 z m -1.16676,0 h -1.16675 v -1.16676 h 1.16675 z m 0,1.16621 v 1.16675 h -1.16675 v -1.16675 z m 0,1.16675 h 1.16676 v 1.16675 h -1.16676 z m 2.33296,-2.33296 h 1.16676 v 2.33296 h -1.16676 z m 1.16676,0 v -1.16676 h 1.16675 v 1.16676 z m 1.16675,0 h 1.16675 v 1.16621 H 319.563 Z m 1.16675,0 v -1.16676 h 1.16675 v 1.16676 z m 0,-1.16676 H 319.563 v -1.16674 h 1.16675 z m 0,-1.16674 v -2.33351 h 1.16675 v 2.33351 z m 1.16675,-2.33351 v -1.16674 h -1.16675 v -1.16622 h 1.16675 v -1.16675 h -1.16675 v -1.16674 h 1.16675 1.16675 v 2.33349 H 324.23 v 1.16622 h -1.16675 v 1.16674 z m 1.16675,0 H 324.23 v 1.16676 h -1.16675 z m 1.16675,1.16676 h 1.16621 v 1.16675 H 324.23 Z m 0,-1.16676 v -1.16674 h 2.33297 v 1.16674 z m 2.33297,0 h 1.16674 v 1.16676 h -1.16674 z m -5.83322,-4.66645 h -2.3335 v -1.16676 h 2.3335 z m -2.3335,0 v 1.16674 h -1.16676 v -1.16674 z m 0,1.16674 h 2.3335 v 1.16675 h -2.3335 z m 0,1.16675 v 1.16622 h -1.16676 v -1.16622 z m 0,1.16622 h 2.3335 v 1.16674 h -2.3335 z m 0,1.16674 v 1.16676 h -1.16676 v -1.16676 z m 0,1.16676 h 1.16675 v 1.16675 h -1.16675 z m 9.33346,-3.49972 h 1.16675 v 1.16622 h -1.16675 z m 1.16675,0 v -1.16675 h 1.16676 v 1.16675 z m 4.66647,1.16622 h 1.16674 v 1.16674 h -1.16674 z m 0,1.16674 v 1.16676 h -2.33297 v -1.16676 z m -2.33297,0 h -1.16674 v -1.16674 h 1.16674 z m -1.16674,0 v 1.16676 h -1.16676 v -1.16676 z m 0,1.16676 h 1.16674 v 1.16675 h -1.16674 z m 1.16674,1.16675 h 1.16622 v 1.16674 h -1.16622 z m 2.33297,-1.16675 h 1.16674 v 2.33349 h -1.16674 z m 1.16674,-2.3335 v -1.16622 h 1.16676 v 1.16622 z m 1.16676,0 h 1.16675 v 1.16674 h -1.16675 z m 1.16675,1.16674 h 1.16675 v 1.16676 h -1.16675 z m 1.16675,1.16676 h 1.16675 v 1.16675 h -1.16675 z m 0,1.16675 v 1.16674 h -1.16675 v -1.16674 z m -1.16675,1.16674 v 1.16676 h -1.16675 v -1.16676 z m 0,1.16676 h 1.16675 v 1.16621 h -1.16675 z m 0,1.16621 v 1.16675 h -1.16675 v -1.16675 z m 2.3335,-3.49971 h 1.16622 v 1.16674 h -1.16622 z m 1.16622,1.16674 h 1.16674 v 1.16676 h -1.16674 z m 0,1.16676 v 1.16621 h -1.16622 v -1.16621 z m 0,-2.3335 v -1.16675 h 2.33349 v 1.16675 z m 2.33349,-1.16675 v -2.3335 h 1.16676 v 2.3335 z m 1.16676,0 h 1.16674 v 1.16675 h -1.16674 z m 1.16674,1.16675 h 1.16675 v 1.16674 h -1.16675 z m 1.16675,1.16674 h 1.16622 v 1.16676 h -1.16622 z m 1.16622,1.16676 h 1.16674 v 1.16621 h -1.16674 z m 1.16674,0 v -1.16676 h 1.16676 v 1.16676 z m 1.16676,-1.16676 v -1.16674 h 1.16675 v 1.16674 z m 1.16675,-1.16674 v -1.16675 h 1.16674 v 1.16675 z m 1.16674,0 h 1.16676 v 1.16674 h -1.16676 z m 1.16676,1.16674 h 1.16674 v 1.16676 h -1.16674 z m -2.3335,-2.33349 h -1.16675 v 1.16675 h -1.16676 v -1.16675 h -1.16674 v -1.16676 h 2.3335 v -1.16674 h 1.16675 v 1.16674 z m -1.16675,-2.3335 h -2.3335 v -1.16622 h 2.3335 z m -2.3335,0 v 1.16674 h -1.16622 v -1.16674 z m -1.16622,0 h -1.16675 v -2.33297 h 1.16675 z m 0,1.16674 v 1.16676 h -1.16675 v -1.16676 z m 0,1.16676 h 1.16622 v 1.16675 h -1.16622 z m 1.16622,1.16675 h 1.16674 v 1.16674 h -1.16674 z m -4.66647,-3.50025 h -1.16675 v -1.16622 h 1.16675 z m 0,-1.16622 v -1.16675 -1.16674 h 1.16676 v 1.16674 1.16675 z m -1.16675,1.16622 v 1.16674 h -1.16674 v -1.16674 z m -1.16674,0 h -1.16622 v -1.16622 h 1.16622 z m -1.16622,0 v 1.16674 h -1.16675 v -1.16674 z m -1.16675,0 h -1.16675 v -1.16622 h 1.16675 z m -1.16675,-1.16622 h -1.16675 v -1.16675 h 1.16675 z m 0,-1.16675 v -1.16674 h 2.3335 v 1.16674 z m 2.3335,3.49971 h 1.16622 v 1.16676 h -1.16622 z m 1.16622,-4.66645 h 1.16674 v 1.16674 h -1.16674 z m 4.66699,-2.33351 v -1.16674 h 1.16675 v 1.16674 z m 1.16675,-1.16674 v -1.16676 h 1.16622 v 1.16676 z m -1.16675,0 h -1.16674 v -1.16676 h 1.16674 z m 6.99996,5.83374 h 1.16676 v 1.16622 h -1.16676 z m 1.16676,1.16622 h 2.33296 v 1.16674 h -2.33296 z m 2.33296,0 v -1.16622 h 1.16675 v 1.16622 z m 1.16675,4.66699 h 1.16676 v 1.16676 h 1.16674 v 1.16621 h -1.16674 v 1.16675 h 1.16674 v 1.16675 h -1.16674 v 2.3335 h -1.16676 v -2.3335 h -1.16675 v -1.16675 h 1.16675 v -1.16675 h -1.16675 v -1.16621 h 1.16675 z m -1.16675,4.66647 v 1.16676 h -1.16622 v -1.16676 z m 1.16675,2.3335 v 1.16675 h 2.3335 v 1.16676 h -3.50025 v -2.33351 z m 2.3335,2.33351 h 1.16675 v 1.1662 h -1.16675 z m 0,1.1662 v 1.16676 h -1.16674 v -1.16676 z m -1.16674,1.16676 v 1.16675 h -1.16676 v -1.16675 z m -1.16676,0 h -1.16675 v -1.16676 h 1.16675 z m 0,1.16675 v 1.16674 h -1.16675 v -1.16674 z m 0,1.16674 h 1.16676 v 1.16676 h -1.16676 z m 2.3335,-2.33349 h 1.16675 v 2.33349 h -1.16675 z m 1.16675,0 v -1.16676 h 1.16675 v 1.16676 z m 1.16675,0 h 1.16621 v 1.16675 h -1.16621 z m 1.16621,0 v -1.16676 h 1.16676 v 1.16676 z m 0,-1.16676 h -1.16621 v -1.1662 h 1.16621 z m 0,-1.1662 v -2.33351 h 1.16676 v 2.33351 z m 1.16676,-2.33351 v -1.16674 h -1.16676 v -1.16676 h 1.16676 v -1.16675 h -1.16676 v -1.16675 h 1.16676 1.16675 v 2.3335 h 1.16674 v 1.16676 h -1.16674 v 1.16674 z m 1.16675,0 h 1.16674 v 1.16675 h -1.16674 z m 1.16674,1.16675 h 1.16676 v 1.16676 h -1.16676 z m 0,-1.16675 v -1.16674 h 2.3335 v 1.16674 z m 2.3335,0 h 1.16675 v 1.16675 h -1.16675 z m -5.83375,-4.667 h -2.33296 v -1.16621 h 2.33296 z m -2.33296,0 v 1.16675 h -1.16675 v -1.16675 z m 0,1.16675 h 2.33296 v 1.16675 h -2.33296 z m 0,1.16675 v 1.16676 h -1.16675 v -1.16676 z m 0,1.16676 h 2.33296 v 1.16674 h -2.33296 z m 0,1.16674 v 1.16675 h -1.16675 v -1.16675 z m 0,1.16675 h 1.16675 v 1.16676 h -1.16675 z m 9.33346,-3.50025 h 1.16622 v 1.16676 h -1.16622 z m 1.16622,0 v -1.16675 h 1.16676 v 1.16675 z m 4.667,1.16676 H 376.73 v 1.16674 h -1.16675 z m 0,1.16674 v 1.16675 h -2.3335 v -1.16675 z m -2.3335,0 h -1.16674 v -1.16674 h 1.16674 z m -1.16674,0 v 1.16675 h -1.16676 v -1.16675 z m 0,1.16675 h 1.16674 v 1.16676 h -1.16674 z m 1.16674,1.16676 h 1.16675 v 1.1662 h -1.16675 z m 2.3335,-1.16676 H 376.73 v 2.33296 h -1.16675 z m 1.16675,-2.33349 v -1.16676 h 1.16622 v 1.16676 z m 1.16622,0 h 1.16675 v 1.16674 h -1.16675 z m 1.16675,1.16674 h 1.16674 v 1.16675 h -1.16674 z m 1.16674,1.16675 h 1.16676 v 1.16676 h -1.16676 z m 0,1.16676 v 1.1662 h -1.16674 v -1.1662 z m -1.16674,1.1662 v 1.16676 h -1.16675 v -1.16676 z m 0,1.16676 h 1.16674 v 1.16675 h -1.16674 z m 0,1.16675 v 1.16674 h -1.16675 v -1.16674 z m 2.3335,-3.49971 h 1.16674 v 1.1662 h -1.16674 z m 1.16674,1.1662 h 1.16675 v 1.16676 h -1.16675 z m 0,1.16676 v 1.16675 h -1.16674 v -1.16675 z m 0,-2.33296 v -1.16676 h 2.33351 v 1.16676 z m 2.33351,-1.16676 v -2.33349 h 1.16621 v 2.33349 z m 1.16621,0 h 1.16675 v 1.16676 h -1.16675 z m 1.16675,1.16676 h 1.16675 v 1.1662 h -1.16675 z m 1.16675,1.1662 h 1.16676 v 1.16676 h -1.16676 z m 1.16676,1.16676 h 1.16674 v 1.16675 h -1.16674 z m 1.16674,0 v -1.16676 h 1.16675 v 1.16676 z m 1.16675,-1.16676 v -1.1662 h 1.16622 v 1.1662 z m 1.16622,-1.1662 v -1.16676 h 1.16674 v 1.16676 z m 1.16674,0 h 1.16676 v 1.1662 h -1.16676 z m 1.16676,1.1662 h 1.16675 v 1.16676 h -1.16675 z m 1.16675,0 v -1.1662 h 1.16674 v 1.1662 z m 1.16674,-1.1662 v -1.16676 h 1.16676 v 1.16676 z m -4.66699,-1.16676 h -1.16622 v 1.16676 h -1.16675 v -1.16676 h -1.16674 v -1.16675 h 2.33349 v -1.16674 h 1.16622 v 1.16674 z m -1.16622,-2.33349 h -2.33349 v -1.16676 h 2.33349 z m -2.33349,0 v 1.16674 h -1.16676 v -1.16674 z m -1.16676,0 h -1.16675 v -2.33351 h 1.16675 z m 0,1.16674 v 1.16675 h -1.16675 v -1.16675 z m 0,1.16675 h 1.16676 v 1.16676 h -1.16676 z m 1.16676,1.16676 h 1.16674 v 1.1662 h -1.16674 z m -4.66647,-3.50025 h -1.16676 v -1.16676 h 1.16676 z m 0,-1.16676 v -1.16675 -1.16675 h 1.16621 v 1.16675 1.16675 z m -1.16676,1.16676 v 1.16674 h -1.16675 v -1.16674 z m -1.16675,0 h -1.16674 v -1.16676 h 1.16674 z m -1.16674,0 v 1.16674 h -1.16676 v -1.16674 z m -1.16676,0 h -1.16674 v -1.16676 h 1.16674 z m -1.16674,-1.16676 h -1.16675 v -1.16675 h 1.16675 z m 0,-1.16675 v -1.16675 h 2.3335 v 1.16675 z m 2.3335,3.50025 h 1.16674 v 1.16675 h -1.16674 z m 1.16674,-4.667 h 1.16675 v 1.16675 h -1.16675 z m 4.66647,-2.33297 v -1.16674 h 1.16675 v 1.16674 z m 1.16675,-1.16674 v -1.16675 h 1.16676 v 1.16675 z m -1.16675,0 h -1.16675 v -1.16675 h 1.16675 z m 6.99996,5.83321 h 1.16676 v 1.16676 h -1.16676 z m 1.16676,1.16676 h 2.33349 v 1.16674 h -2.33349 z m 3.50025,-2.33351 h 1.16621 v 1.16675 h -1.16621 z m 1.16621,0 v -1.16675 h 1.16675 v 1.16675 z m 1.16675,-1.16675 v -1.16621 h 1.16675 v 1.16621 z m 1.16675,0 h 1.16675 v 1.16675 h -1.16675 z m 1.16675,1.16675 h 1.16675 v 1.16675 h -1.16675 z m 1.16675,1.16675 h 1.16675 v 1.16676 h -1.16675 z m 1.16675,0 v -1.16675 h 1.16675 v 1.16675 z m 1.16675,-1.16675 v -1.16675 h 1.16621 v 1.16675 z m 1.16621,-1.16675 v -1.16621 h 1.16676 v 1.16621 z m 1.16676,-1.16621 v -2.3335 h 1.16675 v 2.3335 z m 1.16675,0 h 2.3335 v 1.16621 h -2.3335 z m 2.3335,1.16621 h 1.16674 v 1.16675 h -1.16674 z m 0,1.16675 v 1.16675 h -1.16676 v -1.16675 z m 0,1.16675 h 1.16674 v 1.16676 h -1.16674 z m 1.16674,-2.3335 v -1.16621 h 1.16622 v 1.16621 z m 1.16622,0 h 1.16675 v 1.16675 h -1.16675 z m 1.16675,1.16675 h 1.16675 v 1.16675 h -1.16675 z m 0,1.16675 v 1.16676 h -1.16675 v -1.16676 z m 0,1.16676 h 1.16675 v 1.16674 h -1.16675 z m -1.16675,-4.66647 v -1.16676 h 1.16675 v 1.16676 z m 1.16675,-1.16676 v -1.16674 h 1.16675 v 1.16674 z m 1.16675,-1.16674 v -1.16675 h 1.16675 v 1.16675 z m 1.16675,0 h 1.16675 v 1.16674 h -1.16675 z m 1.16675,1.16674 h 2.3335 v 1.16676 h -2.3335 z m 0,1.16676 v 2.33296 h -1.16675 v -2.33296 z m 2.3335,0 h 1.16622 v 1.16621 h -1.16622 z m 0,1.16621 v 1.16675 h -1.16676 v -1.16675 z m 1.16622,-1.16621 v -1.16676 h 1.16676 v 1.16676 z m 0,-1.16676 h -1.16622 v -1.16674 h 1.16622 z m -5.83322,-2.33349 h -1.16675 v -1.16676 h 1.16675 z m -1.16675,-1.16676 h -2.33297 v -1.16674 h 2.33297 z m 0,1.16676 v 1.16675 h -1.16675 v -1.16675 z m -1.16675,1.16675 v 1.16674 h -1.16622 v -1.16674 z m -1.16622,0 h -1.16674 v -1.16675 h 1.16674 z m -1.16674,0 v 1.16674 h -1.16676 v -1.16674 z m -1.16676,0 h -1.16674 v -1.16675 h 1.16674 z m -1.16674,-1.16675 h -1.16675 v -1.16676 -1.16674 h 1.16675 v 1.16674 z m 2.3335,2.33349 h 1.16674 v 1.16676 h -1.16674 z m -4.66701,1.16676 h -1.16621 v -1.16676 h 1.16621 z m -1.16621,-1.16676 h -1.16675 v -1.16674 h 1.16675 z m 0,-1.16674 v -2.33351 h 1.16621 v 2.33351 z m -1.16675,0 h -2.3335 v -1.16675 h 2.3335 z m -2.3335,0 v 1.16674 h 2.3335 v 1.16676 h -1.16675 v 1.16621 h -1.16675 v -1.16621 h -1.16675 v -1.16676 -1.16674 z m 1.16675,3.49971 h 1.16675 v 1.16675 h -1.16675 z m 1.16675,0 v -1.16621 h 1.16675 v 1.16621 z m -5.83375,-3.49971 v -1.16675 h 1.16675 v 1.16675 z m 7.0005,-5.83322 v -1.16674 h 1.16621 v 1.16674 z m 1.16621,-1.16674 v -1.16676 h 1.16676 v 1.16676 z m -1.16621,0 h -1.16675 v -1.16676 h 1.16675 z m 4.66646,3.49971 h 1.16676 v 1.16674 h -1.16676 z m 11.66644,1.16674 h 1.16676 v 1.16676 h -1.16676 z m 1.16676,1.16676 h 1.16674 v 1.16675 h -1.16674 z m 4.66698,0 h 1.16622 v -2.3335 h 1.16675 1.16675 v 1.16674 h -1.16675 v 1.16676 h 1.16675 v 1.16675 h -1.16675 v 1.16674 h -1.16675 v -1.16674 H 429.23 Z m 0,1.16675 v 1.16674 h -2.33349 v -1.16674 z m -2.33349,1.16674 v 1.16676 h -1.16675 v -1.16676 z m 2.33349,0 h 1.16622 v 1.16676 H 429.23 Z m 0,1.16676 v 1.16621 h -1.16674 v -1.16621 z m 2.33297,-1.16676 h 1.16675 v 2.33297 h -1.16675 z m 1.16675,2.33297 h 1.16675 v 1.16675 h -1.16675 z m 0,1.16675 v 1.16675 h -1.16675 v -1.16675 z m 0,1.16675 h 1.16675 v 1.16676 h -1.16675 z m 1.16675,0 v -1.16675 h 1.16674 v 1.16675 z m 1.16674,0 h 1.16676 v 2.3335 h -1.16676 z m 1.16676,0 v -1.16675 h 1.16675 v 1.16675 z m 1.16675,0 h 1.16622 v 1.16676 h -1.16622 z m -1.16675,-1.16675 h -1.16676 v -1.16675 h 1.16676 z m -1.16676,-1.16675 h -1.16674 v -1.16621 h 1.16674 z m 0,-1.16621 v -1.16676 h 1.16676 v 1.16676 z m 0,-1.16676 h -2.33349 v -1.16674 h 2.33349 z m 0,-1.16674 v -1.16675 h 1.16676 v 1.16675 z m 0,-1.16675 h -2.33349 v -1.16676 h 2.33349 z m 0,-1.16676 v -1.16674 h 1.16676 v 1.16674 z m 0,-1.16674 h -2.33349 v -1.16622 h 2.33349 z m 3.49973,11.66696 v 1.16675 h -1.16622 v -1.16675 z m 4.66699,0 v 1.16675 h -1.16675 v -1.16675 z m -1.16675,1.16675 v 1.16676 h -2.3335 v -1.16676 z m 3.49972,-1.16675 h 2.3335 v 1.16675 h -2.3335 z m 0,1.16675 v 1.16676 h 2.3335 v 1.1662 h -1.16675 v 1.16676 h -1.16675 v -1.16676 h -1.16621 v -1.1662 -1.16676 z m -1.16621,2.33296 v 1.16676 h -1.16676 v -1.16676 z m -1.16676,1.16676 v 1.16675 h -1.16675 v -1.16675 z m -1.16675,1.16675 v 1.16674 h -1.16674 v -1.16674 z m -1.16674,0 h -1.16676 v -1.16675 h 1.16676 z m 3.50025,-1.16675 h 1.16621 v 1.16675 h -1.16621 z m 1.16621,1.16675 h 1.16675 v 1.16674 h -1.16675 z m 1.16675,1.16674 h 1.16675 v 1.16676 h -1.16675 z m 1.16675,0 v -1.16674 h 1.16674 v 1.16674 z m 1.16674,-1.16674 v -1.16675 h 1.16676 v 1.16675 z m 1.16676,-1.16675 v -1.16676 h 1.16675 v 1.16676 z m 1.16675,-1.16676 v -2.33296 h 1.16674 v 2.33296 z m 1.16674,0 h 2.33297 v 1.16676 h -2.33297 z m 2.33297,1.16676 h 1.16676 v 1.16675 h -1.16676 z m 0,1.16675 v 1.16674 h -1.16675 v -1.16674 z m 0,1.16674 h 1.16676 v 1.16676 h -1.16676 z m 1.16676,-2.33349 v -1.16676 h 1.16674 v 1.16676 z m 1.16674,0 h 1.16676 v 1.16675 h -1.16676 z m 1.16676,1.16675 h 1.16674 v 1.16674 h -1.16674 z m 0,1.16674 v 1.16676 h -1.16676 v -1.16676 z m 0,1.16676 h 1.16674 v 1.16675 h -1.16674 z m -1.16676,-4.66701 v -1.1662 h 1.16676 v 1.1662 z m 1.16676,-1.1662 v -1.16676 h 1.16674 v 1.16676 z m 1.16674,-1.16676 v -1.16675 h 1.16622 v 1.16675 z m 1.16622,0 h 1.16675 v 1.16676 h -1.16675 z m 1.16675,1.16676 h 2.3335 v 1.1662 h -2.3335 z m 0,1.1662 v 2.33351 h -1.16675 v -2.33351 z m 2.3335,0 h 1.16675 v 1.16676 h -1.16675 z m 0,1.16676 v 1.16675 h -1.16675 v -1.16675 z m 1.16675,-1.16676 v -1.1662 h 1.16674 v 1.1662 z m 0,-1.1662 h -1.16675 v -1.16676 h 1.16675 z m -5.83322,-2.33351 h -1.16674 v -1.16674 h 1.16674 z m -1.16674,-1.16674 h -2.3335 v -1.16676 h 2.3335 z m 0,1.16674 v 1.16675 h -1.16676 v -1.16675 z m -1.16676,1.16675 v 1.16676 h -1.16674 v -1.16676 z m -1.16674,0 h -1.16676 v -1.16675 h 1.16676 z m -1.16676,0 v 1.16676 h -1.16675 v -1.16676 z m -1.16675,0 h -1.16622 v -1.16675 h 1.16622 z m -1.16622,-1.16675 h -1.16674 v -1.16674 -1.16676 h 1.16674 v 1.16676 z m 2.33297,2.33351 h 1.16676 v 1.1662 h -1.16676 z m -4.66646,1.1662 h -1.16676 v -1.1662 h 1.16676 z m -1.16676,-1.1662 h -1.16674 v -1.16676 h 1.16674 z m 0,-1.16676 v -2.33349 h 1.16676 v 2.33349 z m 0,2.33296 v 1.16676 h -1.16674 v -1.16676 z m -1.16674,1.16676 v 1.16675 h -1.16675 v -1.16675 z m 1.16674,-9.33347 v -1.16621 h 1.16676 v 1.16621 z m 1.16676,-1.16621 v -1.16676 h 1.16675 v 1.16676 z m -1.16676,0 h -1.16674 v -1.16676 h 1.16674 z m 4.66647,3.49971 h 1.16675 v 1.16676 h -1.16675 z m 11.66697,1.16676 h 1.16674 v 1.16674 h -1.16674 z m 1.16674,1.16674 h 1.16676 v 1.16675 h -1.16676 z m 4.66647,0 h 1.16675 v -2.3335 h 1.16675 1.16675 v 1.16676 h -1.16675 v 1.16674 h 1.16675 v 1.16675 h -1.16675 v 1.16676 h -1.16675 v -1.16676 h -1.16675 z m 0,1.16675 v 1.16676 h -2.3335 v -1.16676 z m -2.3335,1.16676 v 1.1662 h -1.16621 v -1.1662 z m 2.3335,0 h 1.16675 v 1.1662 h -1.16675 z m 0,1.1662 v 1.16676 h -1.16674 v -1.16676 z m 2.3335,-1.1662 h 1.16675 v 2.33296 h -1.16675 z m 1.16675,2.33296 h 1.16622 v 1.16675 h -1.16622 z m 0,1.16675 v 1.16674 h -1.16675 v -1.16674 z m 0,1.16674 h 1.16622 v 1.16676 h -1.16622 z m 1.16622,0 v -1.16674 h 1.16675 v 1.16674 z m 1.16675,0 h 1.16675 v 2.33351 h -1.16675 z m 1.16675,0 v -1.16674 h 1.16675 v 1.16674 z m 1.16675,0 h 1.16674 v 1.16676 h -1.16674 z m 1.16674,1.16676 h 1.16676 1.16675 v -1.16676 h -1.16675 -1.16676 v -1.16674 h 1.16676 1.16675 v -1.16675 h 1.16622 v 1.16675 h 1.16674 v 1.16674 h -1.16674 v 1.16676 h 1.16674 v 1.16675 h -1.16674 v 2.33296 h -1.16622 v -2.33296 h -1.16675 -1.16676 z m 0,1.16675 v 1.16621 h -1.16674 v -1.16621 z m 2.33351,2.33296 v 1.16675 h 2.33296 v 1.16675 h -3.49971 v -2.3335 z m 2.33296,2.3335 h 1.16675 v 1.16675 h -1.16675 z m 0,1.16675 v 1.16676 h -1.16674 v -1.16676 z m -1.16674,1.16676 v 1.1662 h -1.16622 v -1.1662 z m -1.16622,0 h -1.16675 v -1.16676 h 1.16675 z m 0,1.1662 v 1.16676 h -1.16675 v -1.16676 z m 0,1.16676 h 1.16622 v 1.16675 h -1.16622 z m 2.33296,-2.33296 h 1.16675 v 2.33296 h -1.16675 z m 1.16675,0 v -1.16676 h 1.16675 v 1.16676 z m 1.16675,0 h 1.16675 v 1.1662 h -1.16675 z m 1.16675,0 v -1.16676 h 1.16675 v 1.16676 z m 0,-1.16676 h -1.16675 v -1.16675 h 1.16675 z m 0,-1.16675 v -2.3335 h 1.16675 v 2.3335 z m 1.16675,-2.3335 v -1.16675 h -1.16675 v -1.16621 h 1.16675 v -1.16675 h -1.16675 v -1.16676 h 1.16675 1.16622 v 2.33351 h 1.16675 v 1.16621 h -1.16675 v 1.16675 z m 1.16622,0 h 1.16675 v 1.16675 h -1.16675 z m 1.16675,1.16675 h 1.16675 v 1.16675 h -1.16675 z m 0,-1.16675 v -1.16675 h 2.33349 v 1.16675 z m 2.33349,0 h 1.16676 v 1.16675 h -1.16676 z m -5.83321,-4.66647 h -2.3335 v -1.16674 h 2.3335 z m -2.3335,0 v 1.16676 h -1.16675 v -1.16676 z m 0,1.16676 h 2.3335 v 1.16675 h -2.3335 z m 0,1.16675 v 1.16621 h -1.16675 v -1.16621 z m 0,1.16621 h 2.3335 v 1.16675 h -2.3335 z m 0,1.16675 v 1.16675 h -1.16675 v -1.16675 z m 0,1.16675 h 1.16675 v 1.16675 h -1.16675 z m -8.16671,-6.99996 h -1.16675 v -1.16675 h 1.16675 z m -1.16675,-1.16675 h -1.16675 v -1.16676 h 1.16675 z m 0,-1.16676 v -1.1662 h 1.16675 v 1.1662 z m 0,-1.1662 h -2.33297 v -1.16676 h 2.33297 z m 0,-1.16676 v -1.16675 h 1.16675 v 1.16675 z m 0,-1.16675 h -2.33297 v -1.16674 h 2.33297 z m 0,-1.16674 v -1.16676 h 1.16675 v 1.16676 z m 0,-1.16676 h -2.33297 v -1.16675 h 2.33297 z m 18.66693,11.66697 h 1.16675 v 1.16621 h -1.16675 z m 1.16675,0 v -1.16675 h 1.16622 v 1.16675 z m 4.66646,1.16621 h 1.16675 v 1.16675 h -1.16675 z m 0,1.16675 v 1.16675 h -2.3335 v -1.16675 z m -2.3335,0 h -1.16674 v -1.16675 h 1.16674 z m -1.16674,0 v 1.16675 h -1.16622 v -1.16675 z m 0,1.16675 h 1.16674 v 1.16675 h -1.16674 z m 1.16674,1.16675 h 1.16675 v 1.16675 h -1.16675 z m 2.3335,-1.16675 h 1.16675 v 2.3335 h -1.16675 z m 1.16675,-2.3335 v -1.16621 h 1.16675 v 1.16621 z m 1.16675,0 h 1.16675 v 1.16675 h -1.16675 z m 1.16675,1.16675 h 1.16621 v 1.16675 h -1.16621 z m 1.16621,1.16675 h 1.16676 v 1.16675 h -1.16676 z m 0,1.16675 v 1.16675 h -1.16621 v -1.16675 z m -1.16621,1.16675 v 1.16676 h -1.16675 v -1.16676 z m 0,1.16676 h 1.16621 v 1.1662 h -1.16621 z m 0,1.1662 v 1.16676 h -1.16675 v -1.16676 z m 2.33297,-3.49971 h 1.16674 v 1.16675 h -1.16674 z m 1.16674,1.16675 h 1.16676 v 1.16676 h -1.16676 z m 0,1.16676 v 1.1662 h -1.16674 v -1.1662 z m 0,-2.33351 v -1.16675 h 2.33351 v 1.16675 z m 2.33351,-1.16675 v -2.3335 h 1.16674 v 2.3335 z m 1.16674,0 h 1.16622 v 1.16675 h -1.16622 z m 1.16622,1.16675 h 1.16675 v 1.16675 h -1.16675 z m 1.16675,1.16675 h 1.16675 v 1.16676 h -1.16675 z m 1.16675,1.16676 h 1.16675 v 1.1662 h -1.16675 z m 1.16675,0 v -1.16676 h 1.16675 v 1.16676 z m 1.16675,-1.16676 v -1.16675 h 1.16675 v 1.16675 z m 1.16675,-1.16675 v -1.16675 h 1.16675 v 1.16675 z m 1.16675,0 h 1.16622 v 1.16675 h -1.16622 z m 1.16622,1.16675 h 1.16674 v 1.16676 h -1.16674 z m 1.16674,0 v -1.16675 h 1.16675 v 1.16675 z m -3.49971,-2.3335 h -1.16675 v 1.16675 h -1.16675 v -1.16675 h -1.16675 v -1.16675 h 2.3335 v -1.16675 h 1.16675 v 1.16675 z m -1.16675,-2.3335 h -2.3335 v -1.16621 h 2.3335 z m -2.3335,0 v 1.16675 h -1.16675 v -1.16675 z m -1.16675,0 h -1.16675 v -2.33296 h 1.16675 z m 0,1.16675 v 1.16675 h -1.16675 v -1.16675 z m 0,1.16675 h 1.16675 v 1.16675 h -1.16675 z m 1.16675,1.16675 h 1.16675 v 1.16675 h -1.16675 z m -4.66646,-3.50025 h -1.16675 v -1.16621 h 1.16675 z m 0,-1.16621 v -1.16675 -1.16676 h 1.16674 v 1.16676 1.16675 z m -1.16675,1.16621 v 1.16675 h -1.16676 v -1.16675 z m -1.16676,0 h -1.16674 v -1.16621 h 1.16674 z m -1.16674,0 v 1.16675 h -1.16676 v -1.16675 z m -1.16676,0 h -1.16621 v -1.16621 h 1.16621 z m -1.16621,-1.16621 h -1.16675 v -1.16675 h 1.16675 z m 0,-1.16675 v -1.16676 h 2.33297 v 1.16676 z m 2.33297,3.49971 h 1.16674 v 1.16675 h -1.16674 z m 1.16674,-4.66647 h 1.16676 v 1.16676 h -1.16676 z m 4.66647,-2.33349 v -1.16676 h 1.16675 v 1.16676 z m 1.16675,-1.16676 v -1.1662 h 1.16675 v 1.1662 z m -1.16675,0 h -1.16622 v -1.1662 h 1.16622 z m 7.0005,5.83376 h 1.16622 v 1.16621 h -1.16622 z m 1.16622,1.16621 h 2.33349 v 1.16675 H 521.3963 Z M 346.39664,601.07609 h -1.16675 v 1.16675 h -1.16674 v 1.16676 h 1.16674 v -1.16676 h 1.16675 z m -15.16668,0 h -1.16674 v 1.16675 h 1.16674 z m -14.00047,0 h -1.1662 v 1.16675 h -1.16676 v 1.16676 h 1.16676 v -1.16676 h 1.1662 v 1.16676 h 1.16676 v -1.16676 h -1.16676 z m 37.33386,1.16675 h -1.16674 v 1.16676 h 1.16674 z m -29.16714,0 H 324.23 v 1.16676 h 1.16621 v 1.16674 h 1.16676 v -1.16674 h -1.16676 z m -3.49971,0 h -1.16675 v 1.16676 h 1.16675 z m 29.16661,1.16676 h -1.16675 v 1.16674 h 1.16675 z m -17.50018,0 h -1.16675 v 1.16674 h -1.16622 v 1.16622 h 1.16622 v 1.16675 h 1.16675 v -1.16675 h -1.16675 v -1.16622 h 1.16675 z m 103.83379,1.16674 h -1.16675 v 1.16622 h -1.16676 v 1.16675 h 1.16676 v -1.16675 h 1.16675 v 1.16675 h 1.16622 v -1.16675 h -1.16622 z m -14.00046,0 h -1.16622 v 1.16622 h 1.16622 z m -15.16669,0 h -1.16621 v 1.16622 h 1.16621 v 1.16675 h 1.16676 v -1.16675 h -1.16676 z m -79.33311,0 h -1.16675 v 1.16622 h 1.16675 z m -10.50021,0 h -1.16676 v 1.16622 h 1.16676 z m -2.33296,0 h -1.16676 v 1.16622 h 1.16676 z m 116.66643,1.16622 h -1.16675 v 1.16675 h 1.16675 z m -3.49972,0 h -1.16674 v 1.16675 h -1.16675 v 1.16674 h 1.16675 v -1.16674 H 429.23 Z m -29.16714,0 h -1.16621 v 1.16675 h 1.16621 z m -54.83297,0 h -1.16674 v 1.16675 h 1.16674 z m 75.83339,1.16675 h -1.16674 v 1.16674 h 1.16674 v 1.16676 h -1.16674 v 1.16675 h 1.16674 v -1.16675 h 1.16676 v -1.16676 h -1.16676 z m -17.50017,0 h -1.16675 v 1.16674 h 1.16675 z m -74.66665,0 h -1.16675 v 1.16674 h -1.16674 v -1.16674 h -1.16676 v 1.16674 H 324.23 v 1.16676 h 1.16621 v 1.16675 h 1.16676 v -1.16675 h 1.16674 v -1.16676 h 1.16675 z m -2.33349,2.3335 h -1.16676 v -1.16676 h 1.16676 z m 111.99997,-1.16676 h -1.16622 v 1.16676 h 1.16622 z m -2.33297,0 h -1.16676 v 1.16676 h 1.16676 z m -10.50021,0 h -1.16674 v 1.16676 h 1.16674 z m -77.00016,0 h -1.16674 v 1.16676 h 1.16674 z m 60.66673,1.16676 h -1.16676 v 1.16675 h 1.16676 z m -53.66676,0 h -1.16622 v 1.16675 h 1.16622 z m -13.99993,0 h -1.16674 v 1.16675 h 1.16674 z m -22.16664,0 h -1.16675 v 1.16675 h 1.16675 v 1.16674 h -1.16675 v 1.16622 h 1.16675 v -1.16622 h 1.16675 v -1.16674 H 319.563 Z m 108.50026,1.16675 h -1.16675 v 1.16674 h -1.16675 v -1.16674 h -1.16674 v 1.16674 h 1.16674 v 1.16622 h 1.16675 v 1.16676 h 1.16675 v -1.16676 H 429.23 v -1.16622 h -1.16674 z m 0,1.16674 v 1.16622 h -1.16675 v -1.16622 z m -75.83341,-1.16674 h -1.16674 v 1.16674 h 1.16674 z m -13.99992,0 h -1.16675 v 1.16674 h -1.16675 v -1.16674 h -1.16676 v 1.16674 h 1.16676 v 2.33298 h 1.16675 v -2.33298 h 1.16675 v 1.16622 h 1.16675 v -1.16622 h -1.16675 z m -13.99993,0 h -1.16675 v 1.16674 h -1.16675 v 1.16622 h 1.16675 V 611.5763 H 324.23 Z m 115.49968,1.16674 h -1.16674 v 1.16622 h -1.16622 v 1.16676 h -1.16675 v 1.16674 h 1.16675 v -1.16674 h 1.16622 v 1.16674 h 1.16674 v -1.16674 h -1.16674 v -1.16676 h 1.16674 z m -33.83307,0 h -1.16675 v 1.16622 h 1.16675 z m -17.50018,0 h -1.16675 v 1.16622 h -1.16675 v 1.16676 h 1.16675 v -1.16676 h 1.16675 z m -15.16668,0 h -1.16674 v 1.16622 h 1.16674 z m -13.99993,0 h -1.16674 v 1.16622 h -1.16676 v 1.16676 h 1.16676 v -1.16676 h 1.16674 v 1.16676 h 1.16675 v -1.16676 h -1.16675 z m -4.66647,0 h -1.16674 v 1.16622 h 1.16674 z m -21.00042,0 h -1.16675 v 1.16622 h 1.16675 v 1.16676 h 1.16674 v -1.16676 h -1.16674 z m -6.99996,0 h -1.16676 v 1.16622 h 1.16676 z m 108.50024,1.16622 h -1.16674 v 1.16676 h -1.16675 v 1.16674 h 1.16675 v 1.16675 h 1.16674 v -1.16675 h -1.16674 v -1.16674 h 1.16674 z m -22.16663,0 h -1.16676 v 1.16676 h 1.16676 z m -13.99993,0 h -1.16676 v 1.16676 h 1.16676 z m -2.3335,0 h -1.16675 v 1.16676 h 1.16675 z m -29.16661,0 h -1.16676 v 1.16676 h 1.16676 v 1.16674 h 1.16674 v -1.16674 h -1.16674 z m -3.50025,0 h -1.16676 v 1.16676 h 1.16676 z m -34.99983,0 h -1.16675 v 2.3335 h 1.16675 z m 150.50005,1.16676 h -1.16675 v 1.16674 h -1.16675 v 1.16675 h 1.16675 v -1.16675 h 1.16675 v 1.16675 h 1.16674 v -1.16675 h -1.16674 z m -13.99993,0 h -1.16675 v 1.16674 h 1.16675 z m -15.16668,0 h -1.16676 v 1.16674 h 1.16676 v 1.16675 h 1.16675 v -1.16675 h -1.16675 z m -19.83368,0 H 429.23 v 1.16674 h 1.16622 v 1.16675 h 1.16675 v -1.16675 h -1.16675 z m -11.66643,0 h -1.16675 v 1.16674 h -1.16675 v -1.16674 h -1.16675 v 1.16674 h -1.16622 v 1.16675 h 1.16622 v -1.16675 h 1.16675 v 2.33351 h 1.16675 v -2.33351 h 1.16675 z m -16.33343,0 h -1.16675 v 1.16674 h 1.16675 z m -9.33346,0 h -1.16622 v 1.16674 h 1.16622 z m -17.49965,0 h -1.16675 v 1.16674 h -1.16675 v 1.16675 h 1.16675 v 1.16676 h 1.16675 v -1.16676 h -1.16675 v -1.16675 h 1.16675 z m -36.16657,0 h -1.16675 v 1.16674 h 1.16675 z m 135.33336,1.16674 h -1.16675 v 1.16675 h 1.16675 z m -3.50025,0 h -1.16674 v 1.16675 h -1.16676 v 1.16676 h 1.16676 v -1.16676 h 1.16674 z m -29.16661,0 h -1.16674 v 1.16675 h 1.16674 z m -13.99992,0 h -1.16675 v 1.16675 h 1.16675 z m -6.99998,0 h -1.16674 v 1.16675 h -1.16675 v 1.16676 h 1.16675 v -1.16676 h 1.16674 z m -21.00042,0 h -1.16621 v 1.16675 h 1.16621 z m -29.16661,0 h -1.16622 v 1.16675 h 1.16622 z m -10.49968,0 h -1.16675 v 1.16675 h 1.16675 z m -2.33349,0 h -1.16676 v 1.16675 h 1.16676 z m -8.16672,0 h -1.16676 v 1.16675 h 1.16676 z m 113.16672,1.16675 h -1.16675 v 1.16676 h 1.16675 v 1.16674 h -1.16675 v 1.16675 h 1.16675 v -1.16675 h 1.16675 v -1.16674 h -1.16675 z m -17.50018,0 h -1.16621 v 1.16676 h 1.16621 z m -19.83314,0 h -1.16674 v 2.3335 h 1.16674 z m -38.50008,0 h -1.16675 v 1.16676 h 1.16675 z m 93.33357,1.16676 h -1.16674 v 1.16674 h 1.16674 z m -2.33349,0 h -1.16675 v 1.16674 h 1.16675 z m -10.49968,0 h -1.16676 v 1.16674 h 1.16676 z m -52.50054,0 h -1.16622 v 1.16674 h 1.16622 z m -44.33329,0 h -1.16622 v 1.16674 h -1.16675 v -1.16674 h -1.16674 v 1.16674 h -1.16676 v 1.16675 h 1.16676 v 1.16622 h 1.16674 v -1.16622 h 1.16675 v -1.16675 h 1.16622 z m -2.33297,2.33349 h -1.16674 v -1.16675 h 1.16674 z m 82.83337,-1.16675 h -1.16675 v 1.16675 h 1.16675 z m -46.66679,0 h -1.16675 v 1.16675 h 1.16675 z m -13.99993,0 h -1.16674 v 1.16675 h 1.16674 z m 79.33312,1.16675 h -1.16676 v 1.16622 h -1.16621 v -1.16622 h -1.16676 v 1.16622 h 1.16676 v 1.16674 h 1.16621 v 1.16676 h 1.16676 v -1.16676 h 1.16674 v -1.16674 h -1.16674 z m 0,1.16622 v 1.16674 h -1.16676 v -1.16674 z m -72.33316,-1.16622 h -1.16674 v 1.16622 h 1.16674 z m -13.99993,0 h -1.16675 v 1.16622 h 1.16675 z m -22.16664,0 h -1.16675 v 1.16622 h 1.16675 v 1.16674 h -1.16675 v 1.16676 h 1.16675 v -1.16676 h 1.16621 v -1.16674 h -1.16621 z m 120.16669,1.16622 h -1.16676 v 1.16674 h -1.16674 v 1.16676 h -1.16675 v 1.16675 h 1.16675 v -1.16675 h 1.16674 v 1.16675 h 1.16676 v -1.16675 h -1.16676 v -1.16676 h 1.16676 z m -33.83361,0 h -1.16675 v 1.16674 h 1.16675 z m -53.66676,0 h -1.16674 v 1.16674 h 1.16674 z m -13.99993,0 h -1.16674 v 1.16674 h -1.16675 v -1.16674 H 376.73 v 1.16674 h 1.16622 v 2.33351 h 1.16675 v -2.33351 h 1.16674 v 1.16676 h 1.16676 v -1.16676 h -1.16676 z m -13.99993,0 h -1.16674 v 1.16674 h -1.16675 v 1.16676 h 1.16675 v -1.16676 h 1.16674 z m 110.83323,1.16674 h -1.16675 v 1.16676 h -1.16622 v 1.16675 h 1.16622 v 1.16674 h 1.16675 v -1.16674 h -1.16675 v -1.16675 h 1.16675 z m -22.16665,0 h -1.16675 v 1.16676 h 1.16675 z m -58.33321,0 h -1.16675 v 1.16676 h 1.16675 z m -20.9999,0 h -1.16675 v 1.16676 h 1.16675 v 1.16675 H 376.73 v -1.16675 h -1.16675 z m -6.99997,0 h -1.16674 v 1.16676 h 1.16674 z m 145.83305,1.16676 h -1.16675 v 1.16675 h -1.16622 v 1.16674 h 1.16622 v -1.16674 h 1.16675 z m -15.16668,0 h -1.16674 v 1.16675 h 1.16674 z m -13.99993,0 h -1.16674 v 1.16675 h -1.16622 v 1.16674 h 1.16622 v -1.16674 h 1.16674 v 1.16674 h 1.16675 v -1.16674 h -1.16675 z m -12.83318,0 h -1.16675 v 1.16675 h 1.16675 v 1.16674 h 1.16675 v -1.16674 h -1.16675 z m -11.66696,0 h -1.16622 v 1.16675 h -1.16674 v -1.16675 h -1.16676 v 1.16675 h -1.16674 v 1.16674 h 1.16674 v -1.16674 h 1.16676 v 2.3335 h 1.16674 v -2.3335 h 1.16622 z m -16.33289,0 h -1.16676 v 1.16675 h 1.16676 z m -73.50044,0 h -1.16622 v 2.33349 h 1.16622 z m 151.66679,1.16675 h -1.16674 v 1.16674 h 1.16674 z m -29.1666,0 h -1.16675 v 1.16674 h 1.16675 v 1.16676 h 1.16674 v -1.16676 h -1.16674 z m -3.49972,0 h -1.16675 v 1.16674 h 1.16675 z m -19.83367,0 h -1.16676 v 1.16674 h 1.16676 z m -6.99997,0 h -1.16675 v 1.16674 h -1.16675 v 1.16676 h 1.16675 v -1.16676 h 1.16675 z m -20.9999,0 h -1.16674 v 1.16674 h 1.16674 z m -60.66671,0 h -1.16676 v 1.16674 h 1.16676 z m -52.50001,0 v 1.16674 h -1.16675 v -1.16674 z m -1.16675,1.16674 v 1.16676 h -2.3335 v -1.16676 z m 0,1.16676 h 1.16675 v 1.16621 h -1.16675 z m 0,1.16621 v 1.16675 h -1.16674 v -1.16675 z m 0,1.16675 h 1.16675 v 1.16675 h -1.16675 z m 0,1.16675 v 1.16676 h -1.16674 v -1.16676 z m 1.16675,-3.49971 v -1.16676 h 1.16676 v 1.16676 z m 190.16687,-1.16676 h -1.16675 v 1.16676 h 1.16675 z m -17.50018,0 h -1.16675 v 1.16676 h -1.16675 v 1.16621 h 1.16675 v 1.16675 h 1.16675 v -1.16675 h -1.16675 v -1.16621 h 1.16675 z m -33.83307,0 h -1.16676 v 2.33297 h 1.16676 z m -75.8334,0 h -1.16675 v 1.16676 h 1.16675 z m -47.83353,0 v 1.16676 h -1.16676 v -1.16676 z m 0,1.16676 h 1.16674 v 1.16621 h -1.16674 z m 1.16674,1.16621 h 1.16675 v 1.16675 h -1.16675 z m 151.6668,-1.16621 h -1.16675 v 1.16621 h 1.16675 z m -10.50022,0 h -1.16675 v 1.16621 h 1.16675 z m -2.33349,0 h -1.16622 v 1.16621 h 1.16622 z m -26.83312,0 h -1.16674 v 1.16621 h 1.16674 z m -105.00001,0 v 1.16621 h -1.16674 v -1.16621 z m 0,1.16621 h 1.16676 v 1.16675 h -1.16676 z m -17.50018,-1.16621 v 1.16621 h -1.16674 v -1.16621 z m -2.33349,0 v 1.16621 h -1.16622 v -1.16621 z m -1.16622,1.16621 v 1.16675 h -1.16674 V 627.9092 Z M 324.23,626.74299 v 1.16621 h -1.16675 v -1.16621 z m 188.99958,1.16621 h -1.16622 v 1.16675 h 1.16622 z m -66.49993,0 h -1.16675 v 1.16675 h 1.16675 z m -20.99989,0 v 1.16675 h -1.16674 v -1.16675 z m -1.16674,1.16675 v 1.16675 h -1.16676 v -1.16675 z m 0,1.16675 h 1.16674 v 1.16676 h -1.16674 z m 1.16674,1.16676 h 1.16675 v 1.16674 h -1.16675 z m 0,1.16674 v 1.16675 h -1.16674 v -1.16675 z m 0,1.16675 h 1.16675 v 1.16676 h -1.16675 z m 0,-3.50025 v -1.16675 h 2.3335 v 1.16675 z m 71.16693,-1.16675 h -1.16675 v 1.16675 h -1.16676 v -1.16675 h -1.16674 v 1.16675 h -1.16675 v 1.16676 h 1.16675 v 1.16674 h 1.16674 v -1.16674 h 1.16676 v -1.16676 h 1.16675 z m -2.33351,2.33351 h -1.16674 v -1.16676 h 1.16674 z m -84.0001,-2.33351 v 1.16675 h -1.16675 v -1.16675 z m -1.16675,1.16675 v 1.16676 h -1.16676 v -1.16676 z m -1.16676,1.16676 v 1.16674 h -1.16621 v -1.16674 z m -57.16646,-2.33351 v 1.16675 h -1.16675 v -1.16675 z m -2.33351,0 v 1.16675 h -1.16674 v -1.16675 z m -6.99996,0 v 1.16675 h -1.16674 v -1.16675 z m 0,1.16675 h 1.16675 v 1.16676 h -1.16675 z m -8.16671,-1.16675 v 1.16675 h -1.16675 v -1.16675 z m -1.16675,1.16675 v 1.16676 h -1.16622 V 630.2427 Z M 324.23,629.07595 v 1.16675 h -1.16675 v -1.16675 z m 192.49983,1.16675 h -1.16675 v 1.16676 h 1.16675 z m -86.33361,0 v 1.16676 H 429.23 v -1.16676 z m -8.16618,0 v 1.16676 h -1.16676 v -1.16676 z m 0,1.16676 h 1.16622 v 1.16674 h -1.16622 z m -2.3335,-1.16676 v 1.16676 h -1.16675 v -1.16676 z m -17.50018,0 v 1.16676 h -1.16675 v -1.16676 z m -1.16675,1.16676 v 1.16674 h -1.16675 v -1.16674 z m -47.833,-1.16676 v 1.16676 h -1.16676 v -1.16676 z m -17.50018,0 v 1.16676 h -1.16676 v -1.16676 z m -1.16676,1.16676 v 1.16674 h -1.16674 v -1.16674 z m 0,1.16674 h 1.16676 v 1.16675 h -1.16676 z m 0,1.16675 v 1.16676 h -1.16674 v -1.16676 z m 1.16676,-1.16675 v -1.16674 h 1.16675 v 1.16674 z m 173.83344,-1.16674 h -1.16676 v 1.16674 h 1.16676 z m -22.16665,0 h -1.16675 v 1.16674 h 1.16675 v 1.16675 h -1.16675 v 1.16676 h 1.16675 v -1.16676 h 1.16675 v -1.16675 h -1.16675 z m -141.16658,0 v 1.16674 h -1.16675 v -1.16674 z m -23.33339,0 v 1.16674 h -1.16675 v -1.16674 z m -2.3335,0 v 1.16674 H 319.563 v -1.16674 z m -2.3335,0 v 1.16674 h -1.16676 v -1.16674 z m -1.16676,1.16674 v 1.16675 h -1.1662 v -1.16675 z m 203.00059,0 h -1.16675 v 1.16675 h 1.16675 z m -14.00047,0 h -1.16621 v 1.16675 h -1.16675 v -1.16675 h -1.16675 v 1.16675 h 1.16675 v 2.33296 h 1.16675 v -2.33296 h 1.16621 v 1.16676 h 1.16676 v -1.16676 h -1.16676 z m -13.99992,0 h -1.16675 v 1.16675 h -1.16622 v 1.16676 h 1.16622 v -1.16676 h 1.16675 z m -61.83347,0 v 1.16675 H 429.23 v -1.16675 z m -9.33294,0 v 1.16675 h -1.16674 v -1.16675 z m 0,1.16675 h 1.16676 v 1.16676 h -1.16676 z m -8.1667,-1.16675 v 1.16675 h -1.16676 v -1.16675 z m -1.16676,1.16675 v 1.16676 h -1.16674 v -1.16676 z m -5.83321,-1.16675 v 1.16675 h -1.16675 v -1.16675 z m -2.3335,0 v 1.16675 h -1.16675 v -1.16675 z m -59.49996,0 v 1.16675 h -1.16676 v -1.16675 z m -1.16676,1.16675 v 1.16676 h -1.16675 v -1.16676 z m 179.66665,0 h -1.16674 v 1.16676 h 1.16674 z m -20.99989,0 h -1.16675 v 1.16676 h 1.16675 v 1.1662 h 1.16675 v -1.1662 h -1.16675 z m -6.99997,0 h -1.16674 v 1.16676 h 1.16674 z m -75.83339,0 v 1.16676 h -1.16675 v -1.16676 z m -1.16675,1.16676 v 1.1662 h -1.16675 v -1.1662 z m 0,1.1662 h 1.16675 v 1.16676 h -1.16675 z m 1.16675,1.16676 h 1.16675 v 1.16675 h -1.16675 z m 0,-1.16676 v -1.1662 h 1.16675 v 1.1662 z m -17.50018,-2.33296 v 1.16676 h -1.16675 v -1.16676 z m 95.66708,1.16676 h -1.16675 v 2.33296 h 1.16675 z m -60.66672,0 v 1.1662 h -1.16676 v -1.1662 z m 0,1.1662 h 1.16675 v 1.16676 h -1.16675 z m -2.3335,-1.1662 v 1.1662 h -1.16675 v -1.1662 z m -2.3335,0 v 1.1662 h -1.16675 v -1.1662 z m -23.3334,0 v 1.1662 h -1.16621 v -1.1662 z m -37.33332,0 v 1.1662 h -1.16622 v -1.1662 z m -1.16622,1.1662 v 1.16676 h -2.33349 v -1.16676 z m 0,1.16676 h 1.16622 v 1.16675 h -1.16622 z m 0,1.16675 v 1.16674 h -1.16675 v -1.16674 z m 0,1.16674 h 1.16622 v 1.16676 h -1.16622 z m 0,1.16676 v 1.16675 h -1.16675 v -1.16675 z m 1.16622,-3.50025 v -1.16676 h 1.16676 v 1.16676 z m 136.50012,-1.16676 h -1.16676 v 1.16676 h 1.16676 z m -96.83329,0 v 1.16676 h -1.16675 v -1.16676 z m 0,1.16676 h 1.16674 v 1.16675 h -1.16674 z m -24.50015,-1.16676 v 1.16676 h -1.16621 v -1.16676 z m 0,1.16676 h 1.16675 v 1.16675 h -1.16675 z m 1.16675,1.16675 h 1.16675 v 1.16674 h -1.16675 z m 130.6669,-1.16675 h -1.16675 v 1.16675 h 1.16675 z m -50.1665,0 v 1.16675 h -1.16676 v -1.16675 z m -1.16676,1.16675 v 1.16674 h -1.16674 v -1.16674 z m 0,1.16674 h 1.16676 v 1.16676 h -1.16676 z m 1.16676,1.16676 h 1.16621 v 1.16675 h -1.16621 z m 0,1.16675 v 1.16621 h -1.16676 v -1.16621 z m 0,1.16621 h 1.16621 v 1.16675 h -1.16621 z m 0,-3.49972 v -1.16674 h 2.33297 v 1.16674 z m -73.50044,-2.33349 v 1.16675 h -1.16674 v -1.16675 z m 0,1.16675 h 1.16676 v 1.16674 h -1.16676 z M 376.73,637.24267 v 1.16675 h -1.16675 v -1.16675 z m -2.3335,0 v 1.16675 h -1.16675 v -1.16675 z m -1.16675,1.16675 v 1.16674 h -1.16674 v -1.16674 z m -6.99997,-1.16675 v 1.16675 h -1.16674 v -1.16675 z m 86.33361,1.16675 v 1.16674 h -1.16674 v -1.16674 z m -1.16674,1.16674 v 1.16676 h -1.16675 v -1.16676 z m -1.16675,1.16676 v 1.16675 h -1.16676 v -1.16675 z m 22.16664,-1.16676 v 1.16676 h -1.16675 v -1.16676 z m -8.16671,0 v 1.16676 h -1.16675 v -1.16676 z m 0,1.16676 h 1.16675 v 1.16675 h -1.16675 z m -2.3335,-1.16676 v 1.16676 h -1.16675 v -1.16676 z m -17.49964,0 v 1.16676 h -1.16676 v -1.16676 z m -1.16676,1.16676 v 1.16675 h -1.16675 v -1.16675 z m -50.16703,-1.16676 v 1.16676 h -1.16622 v -1.16676 z m -2.33297,0 v 1.16676 h -1.16674 v -1.16676 z m -6.99997,0 v 1.16676 h -1.16675 v -1.16676 z m 0,1.16676 h 1.16676 v 1.16675 h -1.16676 z m -8.16671,-1.16676 v 1.16676 h -1.16675 v -1.16676 z m -1.16675,1.16676 v 1.16675 h -1.16675 v -1.16675 z m -8.16672,-1.16676 v 1.16676 h -1.16674 v -1.16676 z m 31.50011,1.16676 v 1.16675 h -1.16674 v -1.16675 z m -2.33349,0 v 1.16675 h -1.16676 v -1.16675 z m -17.50018,0 v 1.16675 H 376.73 v -1.16675 z m -1.16622,1.16675 v 1.16621 h -1.16675 v -1.16621 z m 0,1.16621 h 1.16622 v 1.16675 H 376.73 Z m 0,1.16675 v 1.16675 h -1.16675 v -1.16675 z m 1.16622,-1.16675 v -1.16621 h 1.16675 v 1.16621 z m 94.50032,-1.16621 v 1.16621 h -1.16675 v -1.16621 z m -9.33346,0 v 1.16621 h -1.16675 v -1.16621 z m 0,1.16621 h 1.16675 v 1.16675 h -1.16675 z m -8.16672,-1.16621 v 1.16621 h -1.16675 v -1.16621 z m -1.16675,1.16621 v 1.16675 h -1.16622 v -1.16675 z m -5.83321,-1.16621 v 1.16621 h -1.16675 v -1.16621 z m -2.3335,0 v 1.16621 h -1.16621 v -1.16621 z m -57.16647,0 v 1.16621 h -1.16675 v -1.16621 z m -23.33339,0 v 1.16621 h -1.16675 v -1.16621 z m -2.33351,0 v 1.16621 h -1.16621 v -1.16621 z m -2.33296,0 v 1.16621 h -1.16675 v -1.16621 z m -1.16675,1.16621 v 1.16675 h -1.16674 v -1.16675 z m 101.49976,0 v 1.16675 h -1.16622 v -1.16675 z m -1.16622,1.16675 v 1.16675 h -1.16674 v -1.16675 z m 0,1.16675 h 1.16622 v 1.16675 h -1.16622 z m 1.16622,1.16675 h 1.16675 v 1.16675 h -1.16675 z m 0,-1.16675 v -1.16675 h 1.16675 v 1.16675 z m -17.49965,-2.3335 v 1.16675 h -1.16675 v -1.16675 z m -2.33349,0 v 1.16675 h -1.16676 v -1.16675 z m -54.83351,0 v 1.16675 h -1.16621 v -1.16675 z m -1.16621,1.16675 v 1.16675 h -1.16676 v -1.16675 z m 93.33304,0 v 1.16675 h -1.16675 v -1.16675 z m 0,1.16675 h 1.16675 v 1.16675 h -1.16675 z m -2.3335,-1.16675 v 1.16675 h -1.16622 v -1.16675 z m -2.33297,0 v 1.16675 h -1.16675 v -1.16675 z m -23.33339,0 v 1.16675 h -1.16676 v -1.16675 z m 2.33349,1.16675 v 1.16675 h -1.16674 v -1.16675 z m 0,1.16675 h 1.16622 v 1.16675 h -1.16622 z m 44.3333,0 v 1.16675 h -1.16675 v -1.16675 z m -1.16675,1.16675 v 1.16676 h -2.3335 v -1.16676 z m 0,1.16676 h 1.16675 v 1.1662 h -1.16675 z m 0,1.1662 v 1.16676 h -1.16676 v -1.16676 z m 0,1.16676 h 1.16675 v 1.16675 h -1.16675 z m 0,1.16675 v 1.16674 h -1.16676 v -1.16674 z m 1.16675,-3.49971 v -1.16676 h 1.16622 v 1.16676 z m 15.16667,-1.16676 v 1.16676 h -1.16674 v -1.16676 z m 0,1.16676 h 1.16622 v 1.1662 h -1.16622 z m 1.16622,1.1662 h 1.16675 v 1.16676 h -1.16675 z m 7.0005,-1.1662 v 1.1662 h -1.16675 v -1.1662 z m 0,1.1662 h 1.16622 v 1.16676 h -1.16622 z m -17.50018,-1.1662 v 1.1662 h -1.16675 v -1.1662 z m -2.3335,0 v 1.1662 h -1.16675 v -1.1662 z m -1.16675,1.1662 v 1.16676 h -1.16674 v -1.16676 z m -6.99996,-1.1662 v 1.1662 h -1.16675 v -1.1662 z m 26.83364,2.33296 v 1.16675 h -1.16675 v -1.16675 z m -2.3335,0 v 1.16675 h -1.16675 v -1.16675 z m -6.99996,0 v 1.16675 h -1.16676 v -1.16675 z m 0,1.16675 h 1.16675 v 1.16674 h -1.16675 z m -8.16672,-1.16675 v 1.16675 h -1.16675 v -1.16675 z m -1.16675,1.16675 v 1.16674 h -1.16675 v -1.16674 z m -8.16671,-1.16675 v 1.16675 h -1.16675 v -1.16675 z m 31.5001,1.16675 v 1.16674 h -1.16675 v -1.16674 z m -2.33349,0 v 1.16674 h -1.16622 v -1.16674 z m -17.49965,0 v 1.16674 h -1.16675 v -1.16674 z m -1.16675,1.16674 v 1.16676 h -1.16675 v -1.16676 z m 0,1.16676 h 1.16675 v 1.16675 h -1.16675 z m 0,1.16675 v 1.16674 h -1.16675 v -1.16674 z m 1.16675,-1.16675 v -1.16676 h 1.16675 v 1.16676 z m 10.49968,-1.16676 v 1.16676 h -1.16675 v -1.16676 z m -23.33339,0 v 1.16676 h -1.16622 v -1.16676 z m -2.33297,0 v 1.16676 h -1.16675 v -1.16676 z m -2.3335,0 v 1.16676 h -1.16675 v -1.16676 z m -1.16675,1.16676 v 1.16675 h -1.16674 v -1.16675 z m 26.83364,0 v 1.16675 h -1.16674 v -1.16675 z m -1.16674,1.16675 v 1.16674 h -1.16675 v -1.16674 z" /></g></svg>
