<?xml version="1.0" encoding="UTF-8" standalone="no"?>
<!-- Created with Inkscape (http://www.inkscape.org/) -->

<svg
   width="280.62732"
   height="280.62735"
   viewBox="0 0 74.249311 74.24932"
   version="1.1"
   id="svg1"
   inkscape:version="1.3.2 (091e20ef0f, 2023-11-25)"
   sodipodi:docname="Mobile-prototype.svg"
   xml:space="preserve"
   xmlns:inkscape="http://www.inkscape.org/namespaces/inkscape"
   xmlns:sodipodi="http://sodipodi.sourceforge.net/DTD/sodipodi-0.dtd"
   xmlns="http://www.w3.org/2000/svg"
   xmlns:svg="http://www.w3.org/2000/svg"><sodipodi:namedview
     id="namedview1"
     pagecolor="#ffffff"
     bordercolor="#000000"
     borderopacity="0.25"
     inkscape:showpageshadow="2"
     inkscape:pageopacity="0.0"
     inkscape:pagecheckerboard="0"
     inkscape:deskcolor="#333333"
     inkscape:document-units="mm"
     inkscape:zoom="0.081671122"
     inkscape:cx="-4781.3718"
     inkscape:cy="1750.9249"
     inkscape:window-width="1336"
     inkscape:window-height="701"
     inkscape:window-x="15"
     inkscape:window-y="15"
     inkscape:window-maximized="1"
     inkscape:current-layer="layer1" /><defs
     id="defs1" /><g
     inkscape:label="Layer 1"
     inkscape:groupmode="layer"
     id="layer1"
     transform="translate(33.691811,112.69994)"><g
       id="g152"
       transform="matrix(1.3178722,0,0,1.3178722,-47.297794,137.78001)"
       inkscape:export-filename="./test.svg"
       inkscape:export-xdpi="96"
       inkscape:export-ydpi="96"><g
         id="g151"
         transform="translate(-6.7165787)"><g
           id="g150"
           transform="matrix(0.28484783,0,0,0.28484783,0.86803128,-78.724385)"><path
             id="rect148"
             style="fill:#ffffff;stroke-width:6.23845;stroke-dasharray:18.7154, 18.7154"
             d="M 87.820933,-390.87371 H 223.52356 c 17.19845,0 31.04413,13.84568 31.04413,31.04413 v 135.70263 c 0,17.19844 -13.84568,31.04412 -31.04413,31.04412 H 87.820933 c -17.198448,0 -31.044122,-13.84568 -31.044122,-31.04412 v -135.70263 c 0,-17.19845 13.845674,-31.04413 31.044122,-31.04413 z" /><path
             style="font-size:43.8775px;line-height:1;font-family:OCR-A;-inkscape-font-specification:OCR-A;font-variant-ligatures:no-common-ligatures;text-align:justify;fill:#1e1e2e;stroke-width:36.5811;stroke-dasharray:109.743, 109.743"
             d="m 150.63356,-253.03504 q 2.25759,0.62711 3.38636,2.2576 1.25423,1.50505 1.25423,3.38636 0,4.76599 -4.89142,6.14564 H 119.2783 q -3.51179,0 -6.27107,-2.13217 -2.75925,-2.13216 -4.51516,-5.51852 l -17.433522,-33.98911 q -2.63385,-5.14228 -2.63385,-9.53201 0,-3.38639 2.006737,-8.02695 l 15.301385,-32.60948 q 2.13214,-4.76602 4.01348,-7.14901 2.00674,-2.38299 5.64393,-2.38299 l 34.23996,-0.12549 q 1.75591,0 2.63385,1.75588 1.00337,1.75591 1.00337,4.38976 0,2.75925 -1.25423,4.76599 -1.12876,1.88131 -3.1355,1.37962 h -30.8536 q -6.14565,13.16923 -10.91163,23.7046 -4.76602,10.40994 -4.76602,11.78959 -0.75251,1.50506 -0.75251,3.01011 0,1.12877 0.75251,2.63382 l 18.56232,36.2467 z"
             id="path148"
             aria-label="C" /><path
             style="font-size:43.8775px;line-height:1;font-family:OCR-A;-inkscape-font-specification:OCR-A;font-variant-ligatures:no-common-ligatures;text-align:justify;fill:#f9e2af;stroke-width:36.5811;stroke-dasharray:109.743, 109.743"
             d="m 169.67135,-253.03504 q -2.25759,0.62711 -3.38639,2.2576 -1.25419,1.50505 -1.25419,3.38636 0,4.76599 4.89141,6.14564 h 31.10443 q 3.51179,0 6.27104,-2.13217 2.75928,-2.13216 4.51516,-5.51852 l 17.43356,-33.98911 q 2.63382,-5.14228 2.63382,-9.53201 0,-3.38639 -2.00674,-8.02695 l -15.30136,-32.60948 q -2.13216,-4.76602 -4.01347,-7.14901 -2.00674,-2.38299 -5.64396,-2.38299 l -34.23994,-0.12549 q -1.75591,0 -2.63385,1.75588 -1.00337,1.75591 -1.00337,4.38976 0,2.75925 1.2542,4.76599 1.1288,1.88131 3.13554,1.37962 h 30.85357 q 6.14564,13.16923 10.91166,23.7046 4.76598,10.40994 4.76598,11.78959 0.75254,1.50506 0.75254,3.01011 0,1.12877 -0.75254,2.63382 l -18.56232,36.2467 z"
             id="path149"
             aria-label="C" /><path
             style="font-size:43.8775px;line-height:1;font-family:OCR-A;-inkscape-font-specification:OCR-A;font-variant-ligatures:no-common-ligatures;text-align:justify;fill:#1e1e2e;stroke-width:36.5811;stroke-dasharray:109.743, 109.743"
             d="m 181.96981,-253.03504 q 2.25759,0.62711 3.38639,2.2576 1.2542,1.50505 1.2542,3.38636 0,4.76599 -4.89142,6.14564 h -31.10443 q -3.51179,0 -6.27107,-2.13217 -2.75925,-2.13216 -4.51516,-5.51852 l -17.43352,-33.98911 q -2.63385,-5.14228 -2.63385,-9.53201 0,-3.38639 2.00674,-8.02695 l 15.30138,-32.60948 q 2.13217,-4.76602 4.01348,-7.14901 2.00674,-2.38299 5.64395,-2.38299 l 34.23994,-0.12549 q 1.75591,0 2.63385,1.75588 1.00337,1.75591 1.00337,4.38976 0,2.75925 -1.2542,4.76599 -1.12879,1.88131 -3.13553,1.37962 h -30.8536 q -6.14562,13.16923 -10.91163,23.7046 -4.76599,10.40994 -4.76599,11.78959 -0.75254,1.50506 -0.75254,3.01011 0,1.12877 0.75254,2.63382 l 18.56232,36.2467 z"
             id="path150"
             aria-label="C" /></g></g></g></g></svg>
