<?xml version="1.0" encoding="UTF-8" standalone="no"?>
<!-- Created with Inkscape (http://www.inkscape.org/) -->

<svg
   width="70.297485"
   height="70.297852"
   viewBox="0 0 18.599543 18.59964"
   version="1.1"
   id="svg1"
   inkscape:version="1.3.2 (091e20ef0f, 2023-11-25)"
   sodipodi:docname="Mobile-prototype.svg"
   xml:space="preserve"
   xmlns:inkscape="http://www.inkscape.org/namespaces/inkscape"
   xmlns:sodipodi="http://sodipodi.sourceforge.net/DTD/sodipodi-0.dtd"
   xmlns="http://www.w3.org/2000/svg"
   xmlns:svg="http://www.w3.org/2000/svg"
   xmlns:sketch="http://www.bohemiancoding.com/sketch/ns"><sodipodi:namedview
     id="namedview1"
     pagecolor="#ffffff"
     bordercolor="#000000"
     borderopacity="0.25"
     inkscape:showpageshadow="2"
     inkscape:pageopacity="0.0"
     inkscape:pagecheckerboard="0"
     inkscape:deskcolor="#333333"
     inkscape:document-units="mm"
     inkscape:zoom="0.20012138"
     inkscape:cx="1166.7919"
     inkscape:cy="8157.5492"
     inkscape:window-width="1336"
     inkscape:window-height="738"
     inkscape:window-x="15"
     inkscape:window-y="15"
     inkscape:window-maximized="1"
     inkscape:current-layer="layer1" /><defs
     id="defs1"><clipPath
       clipPathUnits="userSpaceOnUse"
       id="clipPath3917"><g
         id="g3918"
         transform="matrix(14.643799,0,0,14.643799,-2459.1245,-10241.283)"><rect
           style="opacity:0.412791;fill:#49d911;fill-opacity:1;stroke-width:0.287252;-inkscape-stroke:none"
           id="rect3918"
           width="4.087575"
           height="3.5851357"
           x="169.00922"
           y="700.92731" /></g></clipPath></defs><g
     inkscape:label="Layer 1"
     inkscape:groupmode="layer"
     id="layer1"
     transform="translate(-308.55692,-2429.5976)"><g
       id="g4597"
       transform="matrix(1.9228408,0,0,1.9228408,-93.158179,-1797.5211)"><text
         xml:space="preserve"
         style="font-style:normal;font-variant:normal;font-weight:normal;font-stretch:normal;font-size:6.01661px;line-height:1;font-family:Silkscreen;-inkscape-font-specification:'Silkscreen, Normal';font-variant-ligatures:normal;font-variant-caps:normal;font-variant-numeric:normal;font-variant-east-asian:normal;text-align:justify;letter-spacing:0px;fill:#f9e2af;fill-opacity:1;stroke-width:0.318986"
         x="60.882202"
         y="2230.7334"
         id="text4594"><tspan
           sodipodi:role="line"
           id="tspan4594"
           style="font-style:normal;font-variant:normal;font-weight:normal;font-stretch:normal;font-size:6.01661px;font-family:Silkscreen;-inkscape-font-specification:'Silkscreen, Normal';font-variant-ligatures:normal;font-variant-caps:normal;font-variant-numeric:normal;font-variant-east-asian:normal;fill:#f9e2af;fill-opacity:1;stroke-width:0.318986"
           x="60.882202"
           y="2230.7334">Message Us: info@catalyst.or.id</tspan></text><g
         stroke="none"
         stroke-width="1"
         fill="none"
         fill-rule="evenodd"
         id="g4594"
         style="fill:#f9e2af;fill-opacity:1"
         transform="matrix(1.6121593,0,0,1.6121593,94.042961,2210.2237)"><path
           d="M 4,5 V 6 H 3 V 5 Z M 7,7 H 4 V 6 H 5 V 5 H 7 Z M 3,4 V 5 H 2 V 4 Z M 3,0.99999996 V 3 H 2 V 4 H 0.99999996 V 0.99999996 Z"
           fill="#000000"
           fill-rule="nonzero"
           id="path4594"
           style="fill:#f9e2af;fill-opacity:1" /></g><g
         stroke="none"
         stroke-width="1"
         fill="none"
         fill-rule="evenodd"
         sketch:type="MSPage"
         id="g4595"
         style="fill:#f9e2af;fill-opacity:1"
         transform="matrix(0.18262482,0,0,0.18262482,128.63322,2207.8016)"><path
           d="m 68.355524,28.885827 h -5.625 v -5.624999 h 5.625 z m -5.625,0 h -5.624999 v -5.624999 h 5.624999 z m -5.624999,0 h -5.625 v -5.624999 h 5.625 z m -5.625,0 h -5.624999 v -5.624999 h 5.624999 z m -5.624999,0 h -5.625 v -5.624999 h 5.625 z m -5.625,0 h -5.624999 v -5.624999 h 5.624999 z m -5.624999,0 h -5.625 v -5.624999 h 5.625 z m -5.625,0 h -5.624999 v -5.624999 h 5.624999 z m -5.624999,0 h -5.625 v -5.624999 h 5.625 z m -5.625,0 h -5.624999 v -5.624999 h 5.624999 z m -5.624999,0 H 6.4805295 v -5.624999 h 5.6249995 z m -5.6249995,5.625 H 0.85553 v -5.625 h 5.6249995 z m 0,5.624999 H 0.85553 v -5.624999 h 5.6249995 z m 0,5.625 H 0.85553 v -5.625 h 5.6249995 z m 0,5.624999 H 0.85553 v -5.624999 h 5.6249995 z m 0,5.625 H 0.85553 v -5.625 h 5.6249995 z m 0,5.624999 H 0.85553 v -5.624999 h 5.6249995 z m 0,5.625 H 0.85553 v -5.625 h 5.6249995 z m 5.6249995,5.624999 H 6.4805295 v -5.624999 h 5.6249995 z m 5.624999,0 h -5.624999 v -5.624999 h 5.624999 z m 5.625,0 h -5.625 v -5.624999 h 5.625 z m 5.624999,0 h -5.624999 v -5.624999 h 5.624999 z m 5.625,0 h -5.625 v -5.624999 h 5.625 z m 5.624999,0 h -5.624999 v -5.624999 h 5.624999 z m 5.625,0 h -5.625 v -5.624999 h 5.625 z m 5.624999,0 h -5.624999 v -5.624999 h 5.624999 z m 5.625,0 h -5.625 v -5.624999 h 5.625 z m 5.624999,0 h -5.624999 v -5.624999 h 5.624999 z m 5.625,0 h -5.625 v -5.624999 h 5.625 z m 5.624999,-5.624999 h -5.624999 v -5.625 h 5.624999 z m 0,-5.625 h -5.624999 v -5.624999 h 5.624999 z m 0,-5.624999 h -5.624999 v -5.625 h 5.624999 z m 0,-5.625 h -5.624999 v -5.624999 h 5.624999 z m 0,-5.624999 h -5.624999 v -5.625 h 5.624999 z m 0,-5.625 h -5.624999 v -5.624999 h 5.624999 z m 0,-5.624999 h -5.624999 v -5.625 h 5.624999 z M 45.855526,51.385825 h -5.625 v -5.624999 h 5.625 z m -5.625,-5.624999 h -5.624999 v -5.625 h 5.624999 z m -5.624999,-5.625 h -5.625 v -5.624999 h 5.625 z m 0,22.499998 h -5.625 v -5.624999 h 5.625 z m 0,-16.874998 h -5.625 v -5.625 h 5.625 z m 0,5.624999 h -5.625 v -5.624999 h 5.625 z m 0,5.625 h -5.625 v -5.625 h 5.625 z m 5.624999,0 h -5.624999 v -5.625 h 5.624999 z m 5.625,16.875007 h 5.624999 z m 5.624999,0 h 5.625 z m -33.749997,0 h 5.625 z m 5.625,0 h 5.624999 z M 34.605527,23.260828 h -5.625 z m 11.249999,0 h -5.625 z m -5.625,16.874998 h -5.624999 v -5.624999 h 5.624999 z m 5.625,5.625 h -5.625 v -5.625 h 5.625 z m 5.624999,5.624999 h -5.624999 v -5.624999 h 5.624999 z m -5.624999,5.625 h -5.625 v -5.625 h 5.625 z m -5.625,5.624999 h -5.624999 v -5.624999 h 5.624999 z m 0,-11.249999 h -5.624999 v -5.624999 h 5.624999 z"
           fill="#000000"
           sketch:type="MSShapeGroup"
           id="path4595"
           style="fill:#f9e2af;fill-opacity:1"
           sodipodi:nodetypes="cccccccccccccccccccccccccccccccccccccccccccccccccccccccccccccccccccccccccccccccccccccccccccccccccccccccccccccccccccccccccccccccccccccccccccccccccccccccccccccccccccccccccccccccccccccccccccccccccccccccccccccccccccccccccccccccccccccccccccccccccccccccccccccccccccccccccccc" /></g><g
         stroke="none"
         stroke-width="1"
         fill="none"
         fill-rule="evenodd"
         sketch:type="MSPage"
         id="g4596"
         style="fill:#f9e2af;fill-opacity:1"
         transform="matrix(0.18262482,0,0,0.18262482,108.56963,2207.7289)"
         clip-path="url(#clipPath3917)"><path
           d="m 75.8125,67.95508 c 2314.5494,-618.36134 2314.5494,-618.36134 0,0 z m -7.5,7.5 c 2322.0494,-625.86134 2322.0494,-625.86134 0,0 z m -52.5,-7.5 c 7.5,0 0,0 0,0 z m 0,0 h 7.5 v -7.5 -7.5 -7.5 h 7.5 v 7.5 h 7.5 v -7.5 -7.5 h 7.5 7.5 v 7.5 7.5 h 7.5 v -7.5 h 7.5 v 7.5 7.5 7.5 h 7.5 v -7.5 -7.5 -7.5 -7.5 -7.5 h -7.5 v 7.5 h -7.5 v -7.5 h 7.5 v -7.5 h -7.5 -7.5 -7.5 -7.5 -7.5 -7.5 v 7.5 h -7.5 v 7.5 7.5 7.5 7.5 z m 52.5,0 h -7.5 -7.5 -7.5 -7.5 -7.5 -7.5 v 7.5 h 7.5 7.5 7.5 7.5 7.5 7.5 z m -15,-15 h -7.5 -7.5 v 7.5 h 7.5 7.5 z"
           fill="#000000"
           sketch:type="MSShapeGroup"
           id="path4596"
           style="fill:#f9e2af;fill-opacity:1"
           sodipodi:nodetypes="ccccccccccccccccccccccccccccccccccccccccccccccccccccccccccccccccccccccccccc" /></g><g
         stroke="none"
         stroke-width="1"
         fill="none"
         fill-rule="evenodd"
         sketch:type="MSPage"
         id="g21"
         style="fill:#f9e2af;fill-opacity:1"
         transform="matrix(0.18262482,0,0,0.18262482,232.35114,2202.8923)"
         clip-path="url(#clipPath3917)"
         inkscape:export-filename="../../assets/instagram.svg"
         inkscape:export-xdpi="96"
         inkscape:export-ydpi="96"><path
           d="m 15.8125,67.95508 c 7.5,0 0,0 0,0 z m 0,0 h 7.5 v -7.5 -7.5 -7.5 h 7.5 v 7.5 h 7.5 v -7.5 -7.5 h 7.5 7.5 v 7.5 7.5 h 7.5 v -7.5 h 7.5 v 7.5 7.5 7.5 h 7.5 v -7.5 -7.5 -7.5 -7.5 -7.5 h -7.5 v 7.5 h -7.5 v -7.5 h 7.5 v -7.5 h -7.5 -7.5 -7.5 -7.5 -7.5 -7.5 v 7.5 h -7.5 v 7.5 7.5 7.5 7.5 z m 52.5,0 h -7.5 -7.5 -7.5 -7.5 -7.5 -7.5 v 7.5 h 7.5 7.5 7.5 7.5 7.5 7.5 z m -15,-15 h -7.5 -7.5 v 7.5 h 7.5 7.5 z"
           fill="#000000"
           sketch:type="MSShapeGroup"
           id="path21"
           style="fill:#f9e2af;fill-opacity:1"
           sodipodi:nodetypes="ccccccccccccccccccccccccccccccccccccccccccccccccccccccccccccccccccccccccc" /></g><g
         stroke="none"
         stroke-width="1"
         fill="none"
         fill-rule="evenodd"
         sketch:type="MSPage"
         id="g22"
         style="fill:#f9e2af;fill-opacity:1"
         transform="matrix(0.18262482,0,0,0.18262482,208.76125,2208.0155)"
         inkscape:export-filename="../../assets/youtube.svg"
         inkscape:export-xdpi="96"
         inkscape:export-ydpi="96"><path
           d="m 68.355524,28.885827 h -5.625 v -5.624999 h 5.625 z m -5.625,0 h -5.624999 v -5.624999 h 5.624999 z m -5.624999,0 h -5.625 v -5.624999 h 5.625 z m -5.625,0 h -5.624999 v -5.624999 h 5.624999 z m -5.624999,0 h -5.625 v -5.624999 h 5.625 z m -5.625,0 h -5.624999 v -5.624999 h 5.624999 z m -5.624999,0 h -5.625 v -5.624999 h 5.625 z m -5.625,0 h -5.624999 v -5.624999 h 5.624999 z m -5.624999,0 h -5.625 v -5.624999 h 5.625 z m -5.625,0 h -5.624999 v -5.624999 h 5.624999 z m -5.624999,0 H 6.4805295 v -5.624999 h 5.6249995 z m -5.6249995,5.625 H 0.85553 v -5.625 h 5.6249995 z m 0,5.624999 H 0.85553 v -5.624999 h 5.6249995 z m 0,5.625 H 0.85553 v -5.625 h 5.6249995 z m 0,5.624999 H 0.85553 v -5.624999 h 5.6249995 z m 0,5.625 H 0.85553 v -5.625 h 5.6249995 z m 0,5.624999 H 0.85553 v -5.624999 h 5.6249995 z m 0,5.625 H 0.85553 v -5.625 h 5.6249995 z m 5.6249995,5.624999 H 6.4805295 v -5.624999 h 5.6249995 z m 5.624999,0 h -5.624999 v -5.624999 h 5.624999 z m 5.625,0 h -5.625 v -5.624999 h 5.625 z m 5.624999,0 h -5.624999 v -5.624999 h 5.624999 z m 5.625,0 h -5.625 v -5.624999 h 5.625 z m 5.624999,0 h -5.624999 v -5.624999 h 5.624999 z m 5.625,0 h -5.625 v -5.624999 h 5.625 z m 5.624999,0 h -5.624999 v -5.624999 h 5.624999 z m 5.625,0 h -5.625 v -5.624999 h 5.625 z m 5.624999,0 h -5.624999 v -5.624999 h 5.624999 z m 5.625,0 h -5.625 v -5.624999 h 5.625 z m 5.624999,-5.624999 h -5.624999 v -5.625 h 5.624999 z m 0,-5.625 h -5.624999 v -5.624999 h 5.624999 z m 0,-5.624999 h -5.624999 v -5.625 h 5.624999 z m 0,-5.625 h -5.624999 v -5.624999 h 5.624999 z m 0,-5.624999 h -5.624999 v -5.625 h 5.624999 z m 0,-5.625 h -5.624999 v -5.624999 h 5.624999 z m 0,-5.624999 h -5.624999 v -5.625 h 5.624999 z M 45.855526,51.385825 h -5.625 v -5.624999 h 5.625 z m -5.625,-5.624999 h -5.624999 v -5.625 h 5.624999 z m -5.624999,-5.625 h -5.625 v -5.624999 h 5.625 z m 0,22.499998 h -5.625 v -5.624999 h 5.625 z m 0,-16.874998 h -5.625 v -5.625 h 5.625 z m 0,5.624999 h -5.625 v -5.624999 h 5.625 z m 0,5.625 h -5.625 v -5.625 h 5.625 z m 5.624999,0 h -5.624999 v -5.625 h 5.624999 z m 5.625,16.875007 h 5.624999 z m 5.624999,0 h 5.625 z m -33.749997,0 h 5.625 z m 5.625,0 h 5.624999 z M 34.605527,23.260828 h -5.625 z m 11.249999,0 h -5.625 z m -5.625,16.874998 h -5.624999 v -5.624999 h 5.624999 z m 5.625,5.625 h -5.625 v -5.625 h 5.625 z m 5.624999,5.624999 h -5.624999 v -5.624999 h 5.624999 z m -5.624999,5.625 h -5.625 v -5.625 h 5.625 z m -5.625,5.624999 h -5.624999 v -5.624999 h 5.624999 z m 0,-11.249999 h -5.624999 v -5.624999 h 5.624999 z"
           fill="#000000"
           sketch:type="MSShapeGroup"
           id="path22"
           style="fill:#f9e2af;fill-opacity:1"
           sodipodi:nodetypes="cccccccccccccccccccccccccccccccccccccccccccccccccccccccccccccccccccccccccccccccccccccccccccccccccccccccccccccccccccccccccccccccccccccccccccccccccccccccccccccccccccccccccccccccccccccccccccccccccccccccccccccccccccccccccccccccccccccccccccccccccccccccccccccccccccccccccccc" /></g><g
         stroke="none"
         stroke-width="1"
         fill="none"
         fill-rule="evenodd"
         id="g28"
         style="fill:#f9e2af;fill-opacity:1"
         transform="matrix(1.6121593,0,0,1.6121593,207.30533,2196.7596)"><path
           d="M 4,5 V 6 H 3 V 5 Z M 7,7 H 4 V 6 H 5 V 5 H 7 Z M 3,4 V 5 H 2 V 4 Z M 3,0.99999996 V 3 H 2 V 4 H 0.99999996 V 0.99999996 Z"
           fill="#000000"
           fill-rule="nonzero"
           id="path28"
           style="fill:#f9e2af;fill-opacity:1" /></g></g></g></svg>
