<?xml version="1.0" encoding="UTF-8" standalone="no"?>
<!-- Created with Inkscape (http://www.inkscape.org/) -->

<svg
   width="752.67505"
   height="241.0249"
   viewBox="0 0 199.14527 63.771173"
   version="1.1"
   id="svg1"
   xml:space="preserve"
   xmlns="http://www.w3.org/2000/svg"
   xmlns:svg="http://www.w3.org/2000/svg"><defs
     id="defs1" /><g
     id="layer1"
     transform="translate(-759.96772,-1555.2052)"><g
       id="g2236"
       transform="matrix(0.39856958,0,0,0.39856958,759.96768,1555.2052)"
       style="fill:#1e1e2e;fill-opacity:1"><path
         fill="#fba66b"
         d="m 3.95,0 h 6.28 l -0.09,19.46 c -0.01,0.53 0.18,0.61 0.56,0.24 l 8.91,-8.59 c 0.25,-0.24 0.54,-0.36 0.88,-0.36 h 6.97 c 0.65,0 0.75,0.23 0.28,0.68 L 17,21.8 c -0.27,0.26 -0.29,0.54 -0.06,0.84 l 11.08,14.41 c 0.34,0.44 0.23,0.66 -0.33,0.66 l -6.85,-0.04 c -0.32,-0.01 -0.61,-0.15 -0.81,-0.4 l -7.36,-9.54 c -0.82,-1.07 -2.52,-0.48 -2.52,0.86 l 0.03,8.5 c 0,0.33 -0.26,0.59 -0.58,0.59 L 4.58,37.66 c -0.4,0 -0.6,-0.2 -0.6,-0.6 z"
         id="path1-62"
         style="fill:#1e1e2e;fill-opacity:1" /><path
         fill="#fba66b"
         d="m 90.13,0 h 6.19 L 96.3,10.27 c 0,0.32 0.16,0.48 0.48,0.48 H 102 c 0.5,0 0.75,0.25 0.75,0.75 v 4.75 c 0,0.5 -0.25,0.75 -0.75,0.75 h -4.89 c -0.43,0 -0.64,0.21 -0.64,0.64 l 0.02,19.42 c 0,0.34 -0.28,0.61 -0.62,0.6 L 91.05,37.44 C 90.32,37.41 89.96,37.03 89.97,36.3 L 90.2,17.61 C 90.21,17.2 90.01,17 89.61,17 h -1.46 c -0.35,0 -0.53,-0.18 -0.53,-0.54 v -5.17 c 0,-0.36 0.18,-0.54 0.53,-0.54 h 1.4 c 0.44,0 0.8,-0.37 0.79,-0.81 z"
         id="path2-9"
         style="fill:#1e1e2e;fill-opacity:1" /><path
         fill="#fba66b"
         d="M 53.39,36.56 C 37.11,45.92 22.39,24.3 36.35,12.85 43.58,6.93 54.84,9.32 58.87,17.8 c 2.29,4.82 1.42,13.2 1.62,18.93 0.02,0.47 -0.36,0.86 -0.84,0.86 l -4.79,-0.06 c -0.3,0 -0.52,-0.13 -0.67,-0.4 l -0.21,-0.4 c -0.14,-0.26 -0.34,-0.32 -0.59,-0.17 z m 0.63,-12.4 c 0,-4.62 -3.75,-8.37 -8.37,-8.37 -4.62,0 -8.37,3.75 -8.37,8.37 0,4.62 3.75,8.37 8.37,8.37 4.62,0 8.37,-3.75 8.37,-8.37 z"
         id="path3-1"
         style="fill:#1e1e2e;fill-opacity:1" /><path
         fill="#fba66b"
         d="m 72.89,11.44 -0.17,1.76 c -0.04,0.42 0.46,0.67 0.77,0.38 2.68,-2.49 5.86,-3.83 9.53,-4.03 0.36,-0.01 0.52,0.16 0.47,0.51 l -0.71,5.43 c -0.06,0.42 -0.3,0.65 -0.72,0.7 -11.34,1.21 -9.38,13.15 -9.31,20.95 0.01,0.3 -0.14,0.45 -0.44,0.44 L 67.24,37.52 C 66.92,37.51 66.66,37.25 66.66,36.93 L 66.61,11.42 c -0.01,-0.45 0.21,-0.67 0.66,-0.67 h 4.99 c 0.37,0 0.67,0.32 0.63,0.69 z"
         id="path4-2"
         style="fill:#1e1e2e;fill-opacity:1" /><path
         fill="#fba66b"
         d="m 132.5,26.49 c -0.49,16.08 -24.3,16.53 -24.45,-0.45 -0.05,-4.86 -0.09,-9.75 -0.13,-14.68 0,-0.41 0.2,-0.61 0.6,-0.61 h 5.03 c 0.45,0 0.66,0.22 0.63,0.66 -0.38,6.61 -0.33,12.03 0.15,16.28 0.58,5.09 8.1,6.13 10.7,2.2 2.32,-3.51 1.19,-14.21 1.25,-18.63 0,-0.34 0.17,-0.51 0.52,-0.51 h 5.14 c 0.33,0 0.49,0.16 0.5,0.49 0.13,7.39 0.15,12.48 0.06,15.25 z"
         id="path5-7"
         style="fill:#1e1e2e;fill-opacity:1" /><path
         fill="#4a91dc"
         d="m 226.81,70.16 20.48,-19.57 c 0.07,-0.06 0.15,-0.09 0.23,-0.09 h 17.07 c 0.3,0 0.44,0.36 0.23,0.57 L 240.28,74.7 c -0.12,0.11 -0.13,0.3 -0.03,0.43 l 24.64,32.06 c 0.17,0.22 0.02,0.53 -0.26,0.53 l -16.55,0.1 c -0.1,0 -0.2,-0.05 -0.26,-0.13 L 230.31,84.78 c -0.12,-0.16 -0.34,-0.17 -0.49,-0.04 l -3.49,3.27 c -0.06,0.06 -0.1,0.15 -0.1,0.24 l 0.06,19.14 c 0,0.18 -0.15,0.33 -0.33,0.33 l -12.59,0.1 c -0.18,0 -0.33,-0.15 -0.33,-0.33 l -0.17,-79.66 c 0,-0.18 0.15,-0.33 0.33,-0.33 h 12.72 c 0.18,0 0.33,0.15 0.33,0.33 v 42.09 c 0,0.29 0.35,0.44 0.56,0.24 z"
         id="path6-0"
         style="fill:#1e1e2e;fill-opacity:1" /><path
         fill="#4a91dc"
         d="M 0,144.08 V 76.95 C 2.98,47.36 40.39,37.07 57.36,61.78 c 19.25,28 -15.82,63.22 -43.31,42.33 -0.32,-0.25 -0.79,-0.02 -0.79,0.39 l -0.01,39.08 c 0,0.39 -0.2,0.59 -0.59,0.59 z M 49.27,79.16 c 0,-9.87 -8.01,-17.88 -17.88,-17.88 -9.87,0 -17.88,8.01 -17.88,17.88 0,9.87 8.01,17.88 17.88,17.88 9.87,0 17.88,-8.01 17.88,-17.88 z"
         id="path7-9"
         style="fill:#1e1e2e;fill-opacity:1" /><path
         fill="#4a91dc"
         d="m 71.08,69.8 c 10.53,-33.03 59.98,-26.92 61.38,8.46 0.02,0.4 -0.31,0.74 -0.71,0.74 h -12.01 c -0.45,0 -0.69,-0.22 -0.72,-0.67 -0.78,-13.46 -14.71,-20.97 -26.32,-15.12 -8.05,4.06 -9.66,11.3 -9.69,20.42 -0.02,7.94 -0.02,15.86 0,23.75 0,0.23 -0.19,0.42 -0.42,0.42 l -12.35,-0.07 c -0.32,-0.01 -0.48,-0.17 -0.48,-0.49 -0.02,-8.77 -0.02,-17.53 -0.01,-26.27 0.01,-4.7 0.46,-8.42 1.33,-11.17 z"
         id="path8-3"
         style="fill:#1e1e2e;fill-opacity:1" /><path
         fill="#4a91dc"
         d="m 142.3,68.68 c 9.9,-27.59 50.12,-27.67 59.33,0.55 1.05,3.22 1.59,8.51 1.62,15.86 0.02,7.37 0.01,14.75 -0.02,22.16 0,0.31 -0.15,0.46 -0.46,0.46 l -12.49,0.13 c -0.43,0 -0.59,-0.21 -0.5,-0.62 l 0.24,-1.07 c 0.15,-0.67 -0.58,-1.19 -1.16,-0.83 -25.32,15.9 -56.91,-7.79 -46.56,-36.64 z m 47.45,10.41 c 0,-9.9 -8.02,-17.92 -17.92,-17.92 -9.9,0 -17.92,8.02 -17.92,17.92 0,9.9 8.02,17.92 17.92,17.92 9.9,0 17.92,-8.02 17.92,-17.92 z"
         id="path9-6"
         style="fill:#1e1e2e;fill-opacity:1" /><path
         fill="#4a91dc"
         d="m 292.92,109.42 c -29.96,-7.74 -32.69,-49.46 -2.66,-59.87 21.18,-7.34 40.59,8.46 41.47,29.94 0.01,0.28 -0.21,0.51 -0.49,0.51 h -48.26 c -0.46,0 -0.82,0.42 -0.74,0.87 3.11,17.88 25.88,22.4 34.4,5.86 0.15,-0.29 0.39,-0.44 0.72,-0.45 l 13.2,-0.25 c 0.42,-0.01 0.72,0.39 0.61,0.79 -4.75,16.6 -21.09,27.03 -38.25,22.6 z m 23.66,-39.07 c -6.34,-13.93 -26.54,-14.77 -32.28,-0.02 -0.13,0.32 0.11,0.67 0.46,0.67 h 31.41 c 0.33,0 0.55,-0.35 0.41,-0.65 z"
         id="path10-0"
         style="fill:#1e1e2e;fill-opacity:1" /><path
         fill="#4a91dc"
         d="m 344.07,63.52 c 17.1,-27.21 54.87,-16.97 58.57,14.19 0.1,0.86 -0.28,1.29 -1.15,1.29 h -11.68 c -0.34,0 -0.53,-0.17 -0.58,-0.51 -2.44,-19.59 -28.05,-24.18 -34.96,-5.51 -0.87,2.37 -1.3,5.78 -1.29,10.22 0.03,8.08 0.04,16.15 0.01,24.2 0,0.22 -0.18,0.4 -0.41,0.4 l -12.33,-0.07 c -0.31,-0.01 -0.47,-0.17 -0.48,-0.48 -0.06,-10.74 -0.05,-21.46 0.04,-32.17 0.03,-3.23 1.45,-7.08 4.26,-11.56 z"
         id="path11-6"
         style="fill:#1e1e2e;fill-opacity:1" /><path
         fill="#4a91dc"
         d="m 486.25,105.74 c 0,-0.37 -0.17,-0.48 -0.5,-0.31 -9.65,4.85 -18.9,5.95 -27.75,3.3 -18.16,-5.42 -26.04,-26.09 -18.15,-42.89 11.92,-25.39 49.96,-23.18 58.3,3.74 0.9,2.91 1.35,7.41 1.34,13.49 -0.01,8.01 0.05,16.03 0.16,24.05 0,0.37 -0.19,0.56 -0.56,0.57 l -12.36,0.2 c -0.26,0.01 -0.48,-0.21 -0.48,-0.47 z m -0.07,-26.65 c 0,-9.9 -8.03,-17.93 -17.93,-17.93 -9.9,0 -17.93,8.03 -17.93,17.93 0,9.9 8.03,17.93 17.93,17.93 9.9,0 17.93,-8.03 17.93,-17.93 z"
         id="path12-2"
         style="fill:#1e1e2e;fill-opacity:1" /><path
         fill="#4a91dc"
         d="m 413.5,117.5 c 0.41,0 0.75,-0.34 0.75,-0.75 V 51 c 0,-0.33 0.17,-0.5 0.5,-0.5 h 12.45 c 0.35,0 0.53,0.18 0.53,0.53 0.05,20.3 0.05,40.58 0,60.85 -0.01,6.05 -0.36,10.09 -1.05,12.11 -5.66,16.46 -31.8,12.66 -32.87,-6.01 -0.02,-0.26 0.19,-0.48 0.45,-0.48 z"
         id="path13-6"
         style="fill:#1e1e2e;fill-opacity:1" /><circle
         fill="#fba66b"
         cx="371.37"
         cy="78.900002"
         r="8.3500004"
         id="circle13"
         style="fill:#1e1e2e;fill-opacity:1" /><circle
         fill="#fba66b"
         cx="468.22"
         cy="78.879997"
         r="8.3500004"
         id="circle14"
         style="fill:#1e1e2e;fill-opacity:1" /><path
         fill="#fba66b"
         d="m 412.42,160 h -4.72 c -25.56,-2.93 -41.7,-25.41 -34.51,-50.28 0.08,-0.3 0.41,-0.45 0.7,-0.33 l 10.03,4.18 c 0.3,0.13 0.42,0.35 0.36,0.67 -5.46,30.3 29.45,46.05 48.12,21.9 0.19,-0.25 0.42,-0.31 0.7,-0.19 l 10.22,4.24 c 0.38,0.16 0.46,0.42 0.24,0.77 -7.15,11.43 -17.53,17.78 -31.14,19.04 z"
         id="path14-1"
         style="fill:#1e1e2e;fill-opacity:1" /></g></g></svg>
