<?xml version="1.0" encoding="UTF-8" standalone="no"?>
<!-- Created with Inkscape (http://www.inkscape.org/) -->

<svg
   width="1019.4158"
   height="338.47656"
   viewBox="0 0 269.72044 89.555258"
   version="1.1"
   id="svg1"
   xml:space="preserve"
   xmlns="http://www.w3.org/2000/svg"
   xmlns:svg="http://www.w3.org/2000/svg"><defs
     id="defs1" /><g
     id="layer1"
     transform="translate(-431.47681,-1546.7502)"><g
       id="g8882"
       transform="matrix(0.26972212,0,0,0.26972212,271.14911,1604.2289)"
       style="fill:#1e1e2e;fill-opacity:1"><path
         id="path10-3"
         style="fill:#1e1e2e;fill-opacity:1"
         d="m 1321.6567,-213.02985 c -75.2714,0.83364 -161.3351,8.8055 -251.836,24.57617 -120.39122,20.96601 -228.71283,52.2595 -311.45699,87.35742 4.39395,-1.03503 9.22042,-1.52344 14.32227,-1.52344 14.6441,0 34.85742,3.516127 34.85742,26.037113 v 7.261718 h -25.7832 v -6.382812 c 0,-5.646728 -3.57109,-9.382813 -9.61328,-9.382813 -6.4707,0 -8.73318,3.635885 -9.44727,6.931641 -0.24169,1.175487 -0.38499,3.372894 0.10938,5.449219 2.92219,12.106402 42.16398,18.566864 46.52539,40.208984 0.42845,2.208149 1.36177,8.052883 0.10937,16.984374 -2.44986,17.2258084 -17.85288,23.6191407 -36.55078,23.6191407 -19.44494,0 -37.59375,-6.9536494 -37.59375,-30.0019527 l 0.0234,-8.009766 h 27.72851 v 10.009766 c 0,5.67968 3.93237,9.392578 10.41407,9.392578 6.87711,0 9.20639,-3.504794 10.07421,-6.943359 0.47239,-1.944494 0.78018,-5.1632 -0.23046,-7.667969 -5.31718,-13.380762 -42.04338,-19.501172 -46.5586,-40.626953 -1.0876,-5.185313 -0.97751,-9.325639 -0.23047,-13.972656 1.12509,-6.894515 4.3132,-11.983295 8.94727,-15.589843 -98.83127,43.888594 -157.77088,93.0159694 -150.43555,135.160154 13.60051,78.098366 248.22951,102.476646 524.02936,54.435547 122.9968,-21.422044 233.2173,-53.644159 316.5996,-89.6699212 -4.2302,0.9779982 -8.8005,1.4296875 -13.5098,1.4296875 -18.3575,0 -34.6498,-6.71172485 -36.3965,-25.5195313 -0.2967,-3.449559 -0.34,-4.877034 -0.373,-6.810546 l 0.022,-43.539063 c 0,-1.834639 0.2319,-5.085766 0.4297,-6.810546 2.296,-19.324142 17.9609,-25.542971 36.3183,-25.542971 18.3356,0 34.3866,6.185871 36.2871,25.542971 0.3406,3.295757 0.2305,6.810546 0.2305,6.810546 v 3.451172 h -26.0703 v -5.791015 c 0.022,0.01099 -0.032,-2.459532 -0.3399,-3.931641 -0.4394,-2.285062 -2.4278,-7.537109 -10.3047,-7.537109 -7.5358,0 -9.7456,4.966418 -10.2949,7.537109 -0.3186,1.36225 -0.4394,3.207102 -0.4394,4.876953 v 47.283203 c -0.022,1.30732 0.055,2.747119 0.2636,3.933594 0.4504,2.768437 3.0558,7.492187 10.5372,7.492187 7.4919,0 10.1064,-4.734736 10.5898,-7.492187 0.1868,-1.186475 0.2415,-2.626274 0.2305,-3.933594 V -38.93415 h -10.6133 v -15.095703 h 36.6601 V -26.2779 c -0.022,1.933512 -0.065,3.360987 -0.373,6.810546 -0.7418,8.089099 -4.1877,13.9359696 -9.3262,17.9785157 95.2997,-43.2317447 151.8155,-91.2558097 144.6074,-132.5625017 -8.486,-48.8046 -103.3041,-76.6295 -240.5585,-78.90039 -10.2942,-0.17031 -20.827,-0.19721 -31.5801,-0.0781 z m -212.6934,110.98047 c 14.5014,0 34.5508,3.494049 34.5508,25.773433 v 7.185547 h -25.5859 v -6.318359 c 0,-5.602805 -3.4932,-9.25 -9.4805,-9.25 -6.4048,0 -8.6234,3.549451 -9.3594,6.867187 -0.2526,1.109575 -0.3967,3.284263 0.098,5.34961 2.8893,11.985605 41.737,18.379761 46.0761,39.824218 0.4506,2.16422 1.3403,7.93126 0.088,16.796875 -2.4059,17.0720708 -17.6657,23.3789056 -36.166,23.3789056 -19.2474,0 -37.2304,-6.88933993 -37.2304,-29.7070306 l 0.031,-7.898438 h 27.4434 l 0.021,9.919922 c 0,5.547875 3.9012,9.261719 10.295,9.261719 6.8333,0 9.1403,-3.449357 9.9863,-6.876953 0.4614,-1.944502 0.7911,-5.075782 -0.2305,-7.558594 v 0 c -5.2622,-13.248983 -41.6249,-19.324321 -46.0742,-40.230468 -1.0656,-5.163368 -0.9893,-9.227476 -0.2422,-13.808594 2.6915,-16.709536 17.5995,-22.70898 35.7812,-22.70898 z m 61.0488,2.669918 h 26.125 v 76.505858 c 0,1.340281 0.044,2.845504 0.2422,3.955078 0.5603,2.537744 2.7361,7.503907 9.9649,7.503907 7.1738,0 9.4138,-4.966163 9.9082,-7.503907 0.2087,-1.12056 0.2641,-2.614797 0.2422,-3.955078 v -76.505858 h 26.1465 v 74.166015 c 0.055,1.90056 -0.1329,5.811317 -0.2208,6.789062 -1.8344,19.30222648 -17.0934,25.5644529 -36.0878,25.5644529 -19.0167,0 -34.287,-6.26222642 -36.0997,-25.5644529 -0.088,-0.977745 -0.2756,-4.888502 -0.2207,-6.789062 z m -323.99604,0.04492 h 45.98632 L 911.08637,4.0541304 H 883.27973 L 869.50434,-89.756415 h -0.58203 L 854.7602,4.0541304 h -27.91407 z m 87.9746,0 h 42.1875 l 12.76563,79.031249 h 0.54883 L 1002.27,-99.33454 h 42.1621 l 2.2422,103.3886704 h -25.8399 l -0.6797,-92.9531244 h -0.539 L 1002.3344,4.0541304 H 976.10004 L 958.80902,-88.898994 h -0.56054 l -0.64844,92.9531244 h -25.89453 z m 337.48824,0 h 38.3965 l 23.7617,81.173827 h 0.5723 l -1.418,-81.173827 h 25.5977 V 2.9760054 h -36.8027 l -25.543,-83.9648424 h -0.5488 l 1.416,83.9648424 h -25.4317 z" /></g></g></svg>
