<?xml version="1.0" encoding="UTF-8" standalone="no"?>
<!-- Created with Inkscape (http://www.inkscape.org/) -->

<svg
   width="11.483334mm"
   height="11.483343mm"
   viewBox="0 0 11.483334 11.483343"
   version="1.1"
   id="svg1"
   xml:space="preserve"
   xmlns="http://www.w3.org/2000/svg"
   xmlns:svg="http://www.w3.org/2000/svg"><defs
     id="defs1"><style
       id="style1">
      .cls-1 {
        fill: #fff;
      }
    </style></defs><g
     id="layer1"
     transform="translate(20.520163,-696.13814)"><g
       id="g3136"
       transform="matrix(0.56480142,0,0,0.56480142,-46.864536,782.97326)"><g
         id="g3132"
         transform="translate(-6.7165787)"><g
           id="g3131"
           transform="matrix(0.28484783,0,0,0.28484783,0.86803128,-78.724385)"><rect
             style="fill:none;fill-opacity:1;stroke:#f9e2af;stroke-width:0.914364;stroke-dasharray:none;stroke-dashoffset:0;stroke-opacity:1"
             id="rect1568"
             width="29.000002"
             height="29.000002"
             x="59.747887"
             y="-42.124699"
             ry="4.5516744"
             transform="matrix(2.3860499,0,0,2.3860499,42.810797,-161.76665)" /><path
             style="font-size:43.8775px;line-height:1;font-family:OCR-A;-inkscape-font-specification:OCR-A;font-variant-ligatures:no-common-ligatures;text-align:justify;fill:#f9e2af;fill-opacity:1;stroke-width:12.7976;stroke-dasharray:38.3928, 38.3928"
             d="m 218.20722,-214.0566 q 0.7898,0.21939 1.18469,0.7898 0.43878,0.52653 0.43878,1.18469 0,1.66734 -1.71122,2.15 h -10.88162 q -1.22857,0 -2.19388,-0.74592 -0.9653,-0.74592 -1.57959,-1.93061 l -6.09897,-11.8908 q -0.92143,-1.79898 -0.92143,-3.33469 0,-1.1847 0.70204,-2.80816 l 5.35306,-11.40815 q 0.74591,-1.66735 1.40408,-2.50102 0.70204,-0.83367 1.97448,-0.83367 l 11.97856,-0.0439 q 0.61429,0 0.92143,0.61428 0.35102,0.61429 0.35102,1.53572 0,0.9653 -0.43878,1.66734 -0.39489,0.65816 -1.09693,0.48265 h -10.79387 q -2.15,4.60714 -3.81734,8.29285 -1.66735,3.64183 -1.66735,4.12449 -0.26326,0.52653 -0.26326,1.05306 0,0.39489 0.26326,0.92142 l 6.49387,12.6806 z"
             id="path3129"
             aria-label="C" /><path
             style="font-size:43.8775px;line-height:1;font-family:OCR-A;-inkscape-font-specification:OCR-A;font-variant-ligatures:no-common-ligatures;text-align:justify;fill:#f9e2af;stroke-width:12.7976;stroke-dasharray:38.3928, 38.3928"
             d="m -224.86743,-214.0566 q 0.7898,0.21939 1.1847,0.7898 0.43877,0.52653 0.43877,1.18469 0,1.66734 -1.71122,2.15 h -10.88162 q -1.22857,0 -2.19387,-0.74592 -0.96531,-0.74592 -1.57959,-1.93061 l -6.09898,-11.8908 q -0.92142,-1.79898 -0.92142,-3.33469 0,-1.1847 0.70204,-2.80816 l 5.35305,-11.40815 q 0.74592,-1.66735 1.40408,-2.50102 0.70204,-0.83367 1.97449,-0.83367 l 11.97855,-0.0439 q 0.61429,0 0.92143,0.61428 0.35102,0.61429 0.35102,1.53572 0,0.9653 -0.43877,1.66734 -0.3949,0.65816 -1.09694,0.48265 h -10.79386 q -2.15,4.60714 -3.81735,8.29285 -1.66734,3.64183 -1.66734,4.12449 -0.26327,0.52653 -0.26327,1.05306 0,0.39489 0.26327,0.92142 l 6.49387,12.6806 z"
             id="path3130"
             transform="scale(-1,1)"
             aria-label="C" /><path
             style="font-size:43.8775px;line-height:1;font-family:OCR-A;-inkscape-font-specification:OCR-A;font-variant-ligatures:no-common-ligatures;text-align:justify;fill:#f9e2af;fill-opacity:1;stroke-width:12.7976;stroke-dasharray:38.3928, 38.3928"
             d="m 229.16994,-214.0566 q 0.7898,0.21939 1.1847,0.7898 0.43877,0.52653 0.43877,1.18469 0,1.66734 -1.71122,2.15 h -10.88162 q -1.22857,0 -2.19388,-0.74592 -0.9653,-0.74592 -1.57959,-1.93061 l -6.09897,-11.8908 q -0.92143,-1.79898 -0.92143,-3.33469 0,-1.1847 0.70204,-2.80816 l 5.35306,-11.40815 q 0.74592,-1.66735 1.40408,-2.50102 0.70204,-0.83367 1.97449,-0.83367 l 11.97855,-0.0439 q 0.61429,0 0.92143,0.61428 0.35102,0.61429 0.35102,1.53572 0,0.9653 -0.43877,1.66734 -0.3949,0.65816 -1.09694,0.48265 h -10.79387 q -2.14999,4.60714 -3.81734,8.29285 -1.66734,3.64183 -1.66734,4.12449 -0.26327,0.52653 -0.26327,1.05306 0,0.39489 0.26327,0.92142 l 6.49387,12.6806 z"
             id="path3131"
             aria-label="C" /></g></g></g></g></svg>
